<svg width="16" height="17" viewBox="0 0 16 17" fill="none" xmlns="http://www.w3.org/2000/svg">
<path fill-rule="evenodd" clip-rule="evenodd" d="M6.19591 12.3054C5.93556 12.045 5.93556 11.6229 6.19591 11.3626L9.05784 8.50064L6.19591 5.63871C5.93556 5.37836 5.93556 4.95625 6.19591 4.6959C6.45626 4.43555 6.87837 4.43555 7.13872 4.6959L10.4721 8.02924C10.7324 8.28959 10.7324 8.7117 10.4721 8.97204L7.13872 12.3054C6.87837 12.5657 6.45626 12.5657 6.19591 12.3054Z" fill="#7D8C90"/>
<path fill-rule="evenodd" clip-rule="evenodd" d="M1.33398 8.50064C1.33398 8.13245 1.63246 7.83397 2.00065 7.83397L10.0007 7.83397C10.3688 7.83397 10.6673 8.13245 10.6673 8.50064C10.6673 8.86883 10.3688 9.16731 10.0007 9.16731L2.00065 9.16731C1.63246 9.16731 1.33398 8.86883 1.33398 8.50064Z" fill="#7D8C90"/>
<path d="M10 14.5L13 14.5C13.5523 14.5 14 14.0523 14 13.5L14 3.5C14 2.94771 13.5523 2.5 13 2.5L10 2.5" stroke="#7D8C90" stroke-width="1.3" stroke-linecap="round" stroke-linejoin="round"/>
</svg>
