<svg width="16" height="17" viewBox="0 0 16 17" fill="none" xmlns="http://www.w3.org/2000/svg">
<path fill-rule="evenodd" clip-rule="evenodd" d="M8.00033 2.49935C4.68662 2.49935 2.00033 5.18564 2.00033 8.49935C2.00033 11.8131 4.68662 14.4993 8.00033 14.4993C11.314 14.4993 14.0003 11.8131 14.0003 8.49935C14.0003 5.18564 11.314 2.49935 8.00033 2.49935ZM0.666992 8.49935C0.666992 4.44926 3.95024 1.16602 8.00033 1.16602C12.0504 1.16602 15.3337 4.44926 15.3337 8.49935C15.3337 12.5494 12.0504 15.8327 8.00033 15.8327C3.95024 15.8327 0.666992 12.5494 0.666992 8.49935Z" fill="#00AE07"/>
<path fill-rule="evenodd" clip-rule="evenodd" d="M11.0734 6.69438C11.3339 6.95459 11.3341 7.3767 11.0739 7.63718L7.8053 10.9131C7.6803 11.0382 7.51069 11.1085 7.33383 11.1086C7.15696 11.1086 6.98732 11.0384 6.86225 10.9133L4.86225 8.91333C4.6019 8.65298 4.6019 8.23087 4.86225 7.97052C5.1226 7.71017 5.54471 7.71017 5.80506 7.97052L7.33342 9.49887L10.1306 6.69485C10.3908 6.43437 10.813 6.43416 11.0734 6.69438Z" fill="#00AE07"/>
</svg>
