<svg width="16" height="17" viewBox="0 0 16 17" fill="none" xmlns="http://www.w3.org/2000/svg">
<path fill-rule="evenodd" clip-rule="evenodd" d="M8.00033 2.49935C4.68662 2.49935 2.00033 5.18564 2.00033 8.49935C2.00033 11.8131 4.68662 14.4993 8.00033 14.4993C11.314 14.4993 14.0003 11.8131 14.0003 8.49935C14.0003 5.18564 11.314 2.49935 8.00033 2.49935ZM0.666992 8.49935C0.666992 4.44926 3.95024 1.16602 8.00033 1.16602C12.0504 1.16602 15.3337 4.44926 15.3337 8.49935C15.3337 12.5494 12.0504 15.8327 8.00033 15.8327C3.95024 15.8327 0.666992 12.5494 0.666992 8.49935Z" fill="#BAB0D5"/>
<path d="M8.66699 11.8327C8.66699 12.2009 8.36852 12.4993 8.00033 12.4993C7.63214 12.4993 7.33366 12.2009 7.33366 11.8327C7.33366 11.4645 7.63214 11.166 8.00033 11.166C8.36852 11.166 8.66699 11.4645 8.66699 11.8327Z" fill="#BAB0D5"/>
<path fill-rule="evenodd" clip-rule="evenodd" d="M7.60638 6.24646C7.28914 6.31241 7.13964 6.46866 7.10102 6.60356C6.9997 6.95754 6.63061 7.16235 6.27664 7.06103C5.92266 6.95971 5.71785 6.59061 5.81917 6.23664C6.04414 5.45071 6.74117 5.06448 7.33501 4.94103C7.90624 4.82228 8.65201 4.88918 9.13206 5.34135C9.50147 5.68929 9.7546 6.16533 9.77154 6.70635C9.78872 7.25493 9.56062 7.78659 9.12288 8.23315C8.53834 8.82946 8.58001 9.07847 8.58608 9.11473C8.58617 9.11526 8.58625 9.11574 8.58632 9.11618C8.64538 9.4796 8.39865 9.82209 8.03522 9.88115C7.6718 9.94021 7.32931 9.69348 7.27025 9.33005C7.16794 8.7005 7.43769 8.04758 8.17072 7.29979C8.39603 7.06994 8.44291 6.87743 8.43886 6.74807C8.43457 6.61115 8.37026 6.45547 8.21786 6.31192C8.20715 6.30183 8.15128 6.26164 8.02391 6.23795C7.90229 6.21533 7.75406 6.21576 7.60638 6.24646Z" fill="#BAB0D5"/>
</svg>
