<svg width="16" height="15" viewBox="0 0 16 15" fill="none" xmlns="http://www.w3.org/2000/svg">
<path fill-rule="evenodd" clip-rule="evenodd" d="M8.00033 1.50008C4.68662 1.50008 2.00033 4.18637 2.00033 7.50008C2.00033 10.8138 4.68662 13.5001 8.00033 13.5001C11.314 13.5001 14.0003 10.8138 14.0003 7.50008C14.0003 4.18637 11.314 1.50008 8.00033 1.50008ZM0.666992 7.50008C0.666992 3.44999 3.95024 0.166748 8.00033 0.166748C12.0504 0.166748 15.3337 3.44999 15.3337 7.50008C15.3337 11.5502 12.0504 14.8334 8.00033 14.8334C3.95024 14.8334 0.666992 11.5502 0.666992 7.50008Z" fill="#B1C2C7"/>
<path d="M8.47173 4.36201C8.21138 4.10166 7.78927 4.10166 7.52892 4.36201C7.26857 4.62236 7.26857 5.04447 7.52892 5.30482L9.05752 6.83341H5.33366C4.96547 6.83341 4.66699 7.13189 4.66699 7.50008C4.66699 7.86827 4.96547 8.16675 5.33366 8.16675H9.05752L7.52892 9.69534C7.26857 9.95569 7.26857 10.3778 7.52892 10.6382C7.78927 10.8985 8.21138 10.8985 8.47173 10.6382L11.1384 7.97149C11.3987 7.71114 11.3987 7.28903 11.1384 7.02868L8.47173 4.36201Z" fill="#B1C2C7"/>
</svg>
