<svg width="24" height="24" viewBox="0 0 24 24" fill="none" xmlns="http://www.w3.org/2000/svg">
<path fill-rule="evenodd" clip-rule="evenodd" d="M17.25 5.29387C17.6405 5.68439 17.6405 6.31756 17.25 6.70808L11.9571 12.001L17.25 17.2939C17.6405 17.6844 17.6405 18.3176 17.25 18.7081C16.8595 19.0986 16.2263 19.0986 15.8358 18.7081L9.83579 12.7081C9.44526 12.3176 9.44526 11.6844 9.83579 11.2939L15.8358 5.29387C16.2263 4.90335 16.8595 4.90335 17.25 5.29387Z" fill="#2F3A3C"/>
<path fill-rule="evenodd" clip-rule="evenodd" d="M7 4.99805C7.55229 4.99805 8 5.44576 8 5.99805V18C8 18.5523 7.55229 19 7 19C6.44772 19 6 18.5523 6 18V5.99805C6 5.44576 6.44772 4.99805 7 4.99805Z" fill="#2F3A3C"/>
</svg>
