<svg width="32" height="33" viewBox="0 0 32 33" fill="none" xmlns="http://www.w3.org/2000/svg">
<rect y="0.5" width="32" height="32" rx="16" fill="#F4F7F8"/>
<path fill-rule="evenodd" clip-rule="evenodd" d="M15.7154 9.56718C15.8946 9.47761 16.1054 9.47761 16.2846 9.56718L22.6481 12.749C22.8637 12.8568 22.9999 13.0771 22.9999 13.3182C22.9999 13.5592 22.8637 13.7796 22.6481 13.8874L16.2846 17.0692C16.1054 17.1588 15.8946 17.1588 15.7154 17.0692L9.35191 13.8874C9.13632 13.7796 9.00014 13.5592 9.00014 13.3182C9.00014 13.0771 9.13632 12.8568 9.35191 12.749L15.7154 9.56718ZM11.0594 13.3182L16 15.7885L20.9406 13.3182L16 10.8478L11.0594 13.3182Z" fill="#7D8C91"/>
<path fill-rule="evenodd" clip-rule="evenodd" d="M9.06732 19.3972C9.22449 19.0829 9.60673 18.9555 9.92108 19.1126L16 22.1522L22.0789 19.1126C22.3933 18.9555 22.7755 19.0829 22.9327 19.3972C23.0899 19.7116 22.9624 20.0938 22.6481 20.251L16.2846 23.4328C16.1054 23.5224 15.8946 23.5224 15.7154 23.4328L9.35191 20.251C9.03756 20.0938 8.91015 19.7116 9.06732 19.3972Z" fill="#7D8C91"/>
<path fill-rule="evenodd" clip-rule="evenodd" d="M9.06732 16.2154C9.22449 15.9011 9.60673 15.7736 9.92108 15.9308L16 18.9703L22.0789 15.9308C22.3933 15.7736 22.7755 15.9011 22.9327 16.2154C23.0899 16.5298 22.9624 16.912 22.6481 17.0692L16.2846 20.251C16.1054 20.3406 15.8946 20.3406 15.7154 20.251L9.35191 17.0692C9.03756 16.912 8.91015 16.5298 9.06732 16.2154Z" fill="#7D8C91"/>
</svg>
