<svg width="16" height="16" viewBox="0 0 16 16" fill="none" xmlns="http://www.w3.org/2000/svg">
<path fill-rule="evenodd" clip-rule="evenodd" d="M8 2.27273C4.83691 2.27273 2.27273 4.83691 2.27273 8C2.27273 11.1631 4.83691 13.7273 8 13.7273C11.1631 13.7273 13.7273 11.1631 13.7273 8C13.7273 4.83691 11.1631 2.27273 8 2.27273ZM1 8C1 4.13401 4.13401 1 8 1C11.866 1 15 4.13401 15 8C15 11.866 11.866 15 8 15C4.13401 15 1 11.866 1 8Z" fill="#786F9E"/>
<path fill-rule="evenodd" clip-rule="evenodd" d="M8 3.54545C8.35145 3.54545 8.63636 3.83036 8.63636 4.18182V7.60671L10.83 8.70355C11.1444 8.86072 11.2718 9.24297 11.1146 9.55732C10.9575 9.87167 10.5752 9.99908 10.2609 9.84191L7.71541 8.56918C7.49982 8.46139 7.36364 8.24104 7.36364 8V4.18182C7.36364 3.83036 7.64855 3.54545 8 3.54545Z" fill="#786F9E"/>
</svg>
