<svg width="32" height="32" viewBox="0 0 32 32" fill="none" xmlns="http://www.w3.org/2000/svg">
<rect width="32" height="32" rx="16" fill="#F4F7F8"/>
<path fill-rule="evenodd" clip-rule="evenodd" d="M16 10.2727C12.8369 10.2727 10.2727 12.8369 10.2727 16C10.2727 19.1631 12.8369 21.7273 16 21.7273C19.1631 21.7273 21.7273 19.1631 21.7273 16C21.7273 12.8369 19.1631 10.2727 16 10.2727ZM9 16C9 12.134 12.134 9 16 9C19.866 9 23 12.134 23 16C23 19.866 19.866 23 16 23C12.134 23 9 19.866 9 16Z" fill="#7D8C91"/>
<path fill-rule="evenodd" clip-rule="evenodd" d="M16 11.5455C16.3515 11.5455 16.6364 11.8304 16.6364 12.1818V15.6067L18.83 16.7035C19.1444 16.8607 19.2718 17.243 19.1146 17.5573C18.9575 17.8717 18.5752 17.9991 18.2609 17.8419L15.7154 16.5692C15.4998 16.4614 15.3636 16.241 15.3636 16V12.1818C15.3636 11.8304 15.6485 11.5455 16 11.5455Z" fill="#7D8C91"/>
</svg>
