<svg width="16" height="16" viewBox="0 0 16 16" fill="none" xmlns="http://www.w3.org/2000/svg">
<path fill-rule="evenodd" clip-rule="evenodd" d="M13.0909 13.6667C13.2597 13.6667 13.4215 13.5964 13.5409 13.4714C13.6602 13.3464 13.7273 13.1768 13.7273 13L13.7273 9C13.7273 8.82319 13.6602 8.65362 13.5409 8.5286C13.4215 8.40357 13.2597 8.33333 13.0909 8.33333L12.5 8.33333C12.1485 8.33333 11.8636 8.03486 11.8636 7.66667C11.8636 7.29848 12.1485 7 12.5 7L13.0909 7C13.5972 7 14.0828 7.21072 14.4408 7.58579C14.7989 7.96086 15 8.46957 15 9L15 13C15 13.5304 14.7989 14.0391 14.4408 14.4142C14.0828 14.7893 13.5972 15 13.0909 15L2.90909 15C2.40277 15 1.91718 14.7893 1.55916 14.4142C1.20113 14.0391 0.999999 13.5304 0.999999 13L1 9C1 8.46957 1.20114 7.96086 1.55916 7.58579C1.91718 7.21071 2.40277 7 2.90909 7L3.5 7C3.85145 7 4.13636 7.29848 4.13636 7.66667C4.13636 8.03486 3.85145 8.33333 3.5 8.33333L2.90909 8.33333C2.74032 8.33333 2.57846 8.40357 2.45911 8.5286C2.33977 8.65362 2.27273 8.82319 2.27273 9L2.27273 13C2.27273 13.1768 2.33977 13.3464 2.45911 13.4714C2.57846 13.5964 2.74032 13.6667 2.90909 13.6667L13.0909 13.6667Z" fill="#786F9E"/>
<path fill-rule="evenodd" clip-rule="evenodd" d="M5.69528 5.09831C5.95563 4.83796 6.37774 4.83796 6.63809 5.09831L7.6953 6.15545L9.36196 4.43159C9.62231 4.17124 10.0444 4.17124 10.3048 4.43159C10.5651 4.69194 10.5651 5.11405 10.3048 5.3744L8.1667 7.56966C7.90635 7.83001 7.48424 7.83001 7.22389 7.56966L5.69528 6.04112C5.43493 5.78077 5.43493 5.35866 5.69528 5.09831Z" fill="#786F9E"/>
<mask id="path-3-inside-1_1015_80833" fill="white">
<rect x="3" y="1" width="10" height="10" rx="1"/>
</mask>
<rect x="3" y="1" width="10" height="10" rx="1" stroke="#1D153E" stroke-width="2.6" mask="url(#path-3-inside-1_1015_80833)"/>
</svg>
