<svg width="16" height="16" viewBox="0 0 16 16" fill="none" xmlns="http://www.w3.org/2000/svg">
<path fill-rule="evenodd" clip-rule="evenodd" d="M1.05912 2.34747C1.16339 2.13558 1.38862 2 1.63637 2H14.3636C14.6114 2 14.8366 2.13558 14.9409 2.34747C15.0452 2.55937 15.0095 2.80907 14.8495 2.98744L9.90909 8.49569V13.4C9.90909 13.6079 9.79489 13.8011 9.60728 13.9104C9.41967 14.0197 9.1854 14.0297 8.98814 13.9367L6.44268 12.7367C6.22709 12.635 6.09091 12.4273 6.09091 12.2V8.49569L1.15046 2.98744C0.990484 2.80907 0.954842 2.55937 1.05912 2.34747ZM3.00793 3.2L7.21318 7.88856C7.31033 7.99688 7.36364 8.13415 7.36364 8.276V11.8292L8.63636 12.4292V8.276C8.63636 8.13415 8.68967 7.99688 8.78682 7.88856L12.9921 3.2H3.00793Z" fill="#786F9E"/>
</svg>
