<svg width="16" height="16" viewBox="0 0 16 16" fill="none" xmlns="http://www.w3.org/2000/svg">
<path d="M2.33357 14.6676C2.00024 14.6676 1.6669 14.6009 1.33357 14.4009C0.400236 13.8676 0.0669022 12.6009 0.600236 11.6676L6.2669 2.20091C6.4669 1.93424 6.6669 1.66758 6.93357 1.53424C7.40024 1.26758 7.93357 1.20091 8.4669 1.33424C9.00024 1.46758 9.40024 1.80091 9.73357 2.26758L15.3336 11.6676C15.5336 12.0009 15.6002 12.3342 15.6002 12.6676C15.6002 13.2009 15.4002 13.7342 15.0002 14.0676C14.6669 14.4676 14.2002 14.6676 13.6669 14.6676H2.33357ZM7.40024 2.93424L1.80024 12.3342C1.60024 12.6676 1.73357 13.0676 2.0669 13.2676C2.13357 13.3342 2.2669 13.3342 2.33357 13.3342H13.6002C13.8002 13.3342 13.9336 13.2676 14.0669 13.1342C14.2002 13.0009 14.2669 12.8676 14.2669 12.6676C14.2669 12.5342 14.2669 12.4676 14.2002 12.3342L8.60024 2.93424C8.40024 2.60091 8.00024 2.53424 7.6669 2.66758C7.53357 2.73424 7.4669 2.80091 7.40024 2.93424Z" fill="#FFB422"/>
<path d="M8.00024 9.33425C7.60024 9.33425 7.33357 9.06758 7.33357 8.66758V6.00091C7.33357 5.60091 7.60024 5.33424 8.00024 5.33424C8.40024 5.33424 8.6669 5.60091 8.6669 6.00091V8.66758C8.6669 9.06758 8.40024 9.33425 8.00024 9.33425Z" fill="#FFB422"/>
<path d="M8.00024 12.0009C7.80024 12.0009 7.6669 11.9342 7.53357 11.8009C7.40024 11.6676 7.33357 11.5342 7.33357 11.3342C7.33357 11.2676 7.33357 11.1342 7.40024 11.0676C7.4669 11.0009 7.4669 10.9342 7.53357 10.8676C7.60024 10.8009 7.6669 10.7342 7.73357 10.7342C7.8669 10.6676 8.00024 10.6676 8.13357 10.6676C8.20024 10.6676 8.20024 10.6676 8.2669 10.7342C8.33357 10.7342 8.33357 10.7342 8.40024 10.8009C8.40024 10.8009 8.4669 10.8676 8.53357 10.8676C8.60024 10.9342 8.6669 11.0009 8.6669 11.0676C8.6669 11.1342 8.73357 11.2676 8.73357 11.3342C8.73357 11.5342 8.6669 11.6676 8.53357 11.8009C8.33357 11.9342 8.20024 12.0009 8.00024 12.0009Z" fill="#FFB422"/>
</svg>
