<svg width="16" height="16" viewBox="0 0 16 16" fill="none" xmlns="http://www.w3.org/2000/svg">
<g clip-path="url(#clip0_1408_48686)">
<path d="M9.00039 5C9.00039 6.29787 7.94826 7.35 6.65039 7.35C5.35252 7.35 4.30039 6.29787 4.30039 5C4.30039 3.70213 5.35252 2.65 6.65039 2.65C7.94826 2.65 9.00039 3.70213 9.00039 5Z" stroke="#786F9E" stroke-width="1.3"/>
<path fill-rule="evenodd" clip-rule="evenodd" d="M7.86294 8.85156H3.99961C2.53605 8.85156 1.34961 10.038 1.34961 11.5016V13.5016C1.34961 13.8605 1.64062 14.1516 1.99961 14.1516C2.35859 14.1516 2.64961 13.8605 2.64961 13.5016V11.5016C2.64961 10.756 3.25402 10.1516 3.99961 10.1516H7.20613C7.35427 9.68005 7.57793 9.242 7.86294 8.85156Z" fill="#786F9E"/>
<path d="M11.9582 14.909L7.88792 12.559L10.6686 7.7426L13.6762 7.23333L14.739 10.0926L11.9582 14.909Z" stroke="#786F9E" stroke-width="1.3" stroke-linejoin="round"/>
</g>
<defs>
<clipPath id="clip0_1408_48686">
<rect width="16" height="16" fill="white"/>
</clipPath>
</defs>
</svg>
