<svg width="32" height="33" viewBox="0 0 32 33" fill="none" xmlns="http://www.w3.org/2000/svg">
<rect y="0.5" width="32" height="32" rx="16" fill="#F4F7F8"/>
<path fill-rule="evenodd" clip-rule="evenodd" d="M16 9C16.2948 9 16.5856 9.06838 16.8496 9.19979L16.851 9.20049L21.9413 11.7501C22.259 11.9084 22.5264 12.1523 22.7134 12.4545C22.9005 12.7568 22.9998 13.1058 23 13.4616V19.5371C22.9998 19.8929 22.9005 20.2416 22.7134 20.544C22.5263 20.8461 22.2582 21.0904 21.9405 21.2487L16.851 23.7979C16.5858 23.9308 16.2934 24 15.9968 24C15.7002 24 15.4077 23.9308 15.1425 23.7978L10.0518 21.248L10.05 21.2471C9.7323 21.0868 9.46563 20.8406 9.2801 20.5365C9.09499 20.2331 8.99801 19.884 9.00003 19.5284L9.00003 13.4613C9.00022 13.1055 9.09948 12.7568 9.28666 12.4545C9.47368 12.1523 9.74185 11.908 10.0596 11.7497L15.1491 9.20049L15.1505 9.19979C15.4145 9.06838 15.7052 9 16 9ZM11.0625 12.6728L15.7174 10.3413C15.8053 10.2976 15.902 10.2749 16 10.2749C16.0981 10.2749 16.1954 10.2979 16.2832 10.3415L20.9377 12.6729L16.0002 15.146L11.0625 12.6728ZM10.2728 13.7027V19.5348C10.2719 19.6536 10.3042 19.7703 10.3661 19.8717C10.4278 19.9729 10.5165 20.0548 10.6222 20.1083L15.3637 22.4832V16.2526L10.2728 13.7027ZM16.6364 22.4799L21.3727 20.1077L21.3741 20.107C21.4801 20.0542 21.5693 19.9728 21.6317 19.872C21.6941 19.7713 21.7272 19.655 21.7273 19.5364V13.7028L16.6364 16.2527V22.4799Z" fill="#7D8C91"/>
</svg>
