<svg width="60" height="60" viewBox="0 0 60 60" fill="none" xmlns="http://www.w3.org/2000/svg">
<g filter="url(#filter0_d_172_13249)">
<rect x="7" y="4" width="48" height="48" rx="8" fill="#EAEFF1"/>
<path fill-rule="evenodd" clip-rule="evenodd" d="M31 36C30.4477 36 30 35.5523 30 35L30 21C30 20.4477 30.4477 20 31 20C31.5523 20 32 20.4477 32 21L32 35C32 35.5523 31.5523 36 31 36Z" fill="#2F3A3C"/>
<path fill-rule="evenodd" clip-rule="evenodd" d="M38.7071 28.7071C38.3166 29.0976 37.6834 29.0976 37.2929 28.7071L31 22.4142L24.7071 28.7071C24.3166 29.0976 23.6834 29.0976 23.2929 28.7071C22.9024 28.3166 22.9024 27.6834 23.2929 27.2929L30.2929 20.2929C30.6834 19.9024 31.3166 19.9024 31.7071 20.2929L38.7071 27.2929C39.0976 27.6834 39.0976 28.3166 38.7071 28.7071Z" fill="#2F3A3C"/>
</g>
<defs>
<filter id="filter0_d_172_13249" x="0" y="0" width="60" height="60" filterUnits="userSpaceOnUse" color-interpolation-filters="sRGB">
<feFlood flood-opacity="0" result="BackgroundImageFix"/>
<feColorMatrix in="SourceAlpha" type="matrix" values="0 0 0 0 0 0 0 0 0 0 0 0 0 0 0 0 0 0 127 0" result="hardAlpha"/>
<feOffset dx="-1" dy="2"/>
<feGaussianBlur stdDeviation="3"/>
<feComposite in2="hardAlpha" operator="out"/>
<feColorMatrix type="matrix" values="0 0 0 0 0.135417 0 0 0 0 0.195208 0 0 0 0 0.208333 0 0 0 0.15 0"/>
<feBlend mode="normal" in2="BackgroundImageFix" result="effect1_dropShadow_172_13249"/>
<feBlend mode="normal" in="SourceGraphic" in2="effect1_dropShadow_172_13249" result="shape"/>
</filter>
</defs>
</svg>
