<svg width="24" height="24" viewBox="0 0 24 24" fill="none" xmlns="http://www.w3.org/2000/svg">
<path fill-rule="evenodd" clip-rule="evenodd" d="M6.75 18.7061C6.35947 18.3156 6.35947 17.6824 6.75 17.2919L12.0429 11.999L6.75 6.70613C6.35948 6.3156 6.35948 5.68244 6.75 5.29192C7.14052 4.90139 7.77369 4.90139 8.16421 5.29192L14.1642 11.2919C14.5547 11.6824 14.5547 12.3156 14.1642 12.7061L8.16421 18.7061C7.77369 19.0967 7.14052 19.0967 6.75 18.7061Z" fill="#2F3A3C"/>
<path fill-rule="evenodd" clip-rule="evenodd" d="M17 19.002C16.4477 19.002 16 18.5542 16 18.002L16 6C16 5.44772 16.4477 5 17 5C17.5523 5 18 5.44772 18 6L18 18.002C18 18.5542 17.5523 19.002 17 19.002Z" fill="#2F3A3C"/>
</svg>
