<svg width="16" height="17" viewBox="0 0 16 17" fill="none" xmlns="http://www.w3.org/2000/svg">
<path fill-rule="evenodd" clip-rule="evenodd" d="M2.65 3.20117C3.00899 3.20117 3.3 3.49219 3.3 3.85117V11.8512C3.3 12.2102 3.00899 12.5012 2.65 12.5012C2.29101 12.5012 2 12.2102 2 11.8512V3.85117C2 3.49219 2.29101 3.20117 2.65 3.20117Z" fill="#786F9E"/>
<path fill-rule="evenodd" clip-rule="evenodd" d="M13.3008 11.8492C13.3008 12.2082 13.0098 12.4992 12.6508 12.4992L2.65078 12.4992C2.2918 12.4992 2.00078 12.2082 2.00078 11.8492C2.00078 11.4902 2.2918 11.1992 2.65078 11.1992L12.6508 11.1992C13.0098 11.1992 13.3008 11.4902 13.3008 11.8492Z" fill="#786F9E"/>
</svg>
