<svg width="16" height="16" viewBox="0 0 16 16" fill="none" xmlns="http://www.w3.org/2000/svg">
<path fill-rule="evenodd" clip-rule="evenodd" d="M2.58579 1.55916C2.96086 1.20114 3.46957 1 4 1H9.33333C9.51014 1 9.67971 1.06705 9.80474 1.18639L13.8047 5.00457C13.9298 5.12391 14 5.28577 14 5.45455V13.0909C14 13.5972 13.7893 14.0828 13.4142 14.4408C13.0391 14.7989 12.5304 15 12 15H4C3.46957 15 2.96086 14.7989 2.58579 14.4408C2.21071 14.0828 2 13.5972 2 13.0909V2.90909C2 2.40277 2.21071 1.91718 2.58579 1.55916ZM4 2.27273C3.82319 2.27273 3.65362 2.33977 3.5286 2.45911C3.40357 2.57846 3.33333 2.74032 3.33333 2.90909V13.0909C3.33333 13.2597 3.40357 13.4215 3.5286 13.5409C3.65362 13.6602 3.82319 13.7273 4 13.7273H12C12.1768 13.7273 12.3464 13.6602 12.4714 13.5409C12.5964 13.4215 12.6667 13.2597 12.6667 13.0909V5.71814L9.05719 2.27273H4Z" fill="#7D8C91"/>
<path fill-rule="evenodd" clip-rule="evenodd" d="M9.33333 1C9.70152 1 10 1.28491 10 1.63636V4.81818H13.3333C13.7015 4.81818 14 5.10309 14 5.45455C14 5.806 13.7015 6.09091 13.3333 6.09091H9.33333C8.96514 6.09091 8.66667 5.806 8.66667 5.45455V1.63636C8.66667 1.28491 8.96514 1 9.33333 1Z" fill="#7D8C91"/>
<path fill-rule="evenodd" clip-rule="evenodd" d="M4.66667 8.63636C4.66667 8.28491 4.96514 8 5.33333 8H10.6667C11.0349 8 11.3333 8.28491 11.3333 8.63636C11.3333 8.98782 11.0349 9.27273 10.6667 9.27273H5.33333C4.96514 9.27273 4.66667 8.98782 4.66667 8.63636Z" fill="#7D8C91"/>
<path fill-rule="evenodd" clip-rule="evenodd" d="M4.66667 11.1818C4.66667 10.8304 4.96514 10.5455 5.33333 10.5455H10.6667C11.0349 10.5455 11.3333 10.8304 11.3333 11.1818C11.3333 11.5333 11.0349 11.8182 10.6667 11.8182H5.33333C4.96514 11.8182 4.66667 11.5333 4.66667 11.1818Z" fill="#7D8C91"/>
<path fill-rule="evenodd" clip-rule="evenodd" d="M4.66667 6.09091C4.66667 5.73946 4.96514 5.45455 5.33333 5.45455H6.66667C7.03486 5.45455 7.33333 5.73946 7.33333 6.09091C7.33333 6.44236 7.03486 6.72727 6.66667 6.72727H5.33333C4.96514 6.72727 4.66667 6.44236 4.66667 6.09091Z" fill="#7D8C91"/>
</svg>
