<svg width="16" height="16" viewBox="0 0 16 16" fill="none" xmlns="http://www.w3.org/2000/svg">
<path fill-rule="evenodd" clip-rule="evenodd" d="M5.12049 13C5.73168 13 6.14924 12.3632 6.05723 11.759C6.01954 11.5115 6 11.258 6 11C6 10.9584 5.94425 10.9406 5.91974 10.9742C5.4815 11.5745 5.02247 11.8 4.64743 11.8H4.44348C3.99914 11.8 3.4369 11.4835 2.93104 10.602C2.43401 9.73601 2.09091 8.46569 2.09091 7C2.09091 5.53431 2.43401 4.26399 2.93104 3.39795C3.4369 2.51652 3.99914 2.2 4.44348 2.2H4.64743C5.09177 2.2 5.65401 2.51652 6.15987 3.39795C6.6569 4.26399 7 5.53431 7 7C7 7.28918 7.44651 7.47072 7.66173 7.27758C7.75056 7.19787 7.84226 7.12128 7.93665 7.04801C8.03187 6.97409 8.09069 6.86137 8.08776 6.74086C8.04683 5.06279 7.61034 3.56312 6.9366 2.5177C6.8505 2.3841 6.94304 2.2 7.10198 2.2C7.54632 2.2 8.10856 2.51652 8.61442 3.39795C8.94978 3.9823 9.21507 4.75071 9.35216 5.639C9.40021 5.95032 9.70882 6.15799 10.0178 6.09645C10.28 6.0442 10.4813 5.8092 10.4434 5.54445C10.2734 4.35561 9.89989 3.30705 9.39106 2.51757C9.30496 2.38398 9.39759 2.2 9.55652 2.2C10.0009 2.2 10.5631 2.51652 11.069 3.39795C11.4124 3.99631 11.6823 4.78767 11.8163 5.70311C11.8484 5.92183 12.0172 6.09853 12.2315 6.1528C12.5872 6.2429 12.957 5.97708 12.9076 5.61349C12.5485 2.96826 11.1844 1 9.55652 1H4.27651C4.27442 1 4.27273 1.00169 4.27273 1.00378C4.27273 1.00574 4.27122 1.00738 4.26926 1.00755C2.44843 1.16564 1 3.78809 1 7C1 10.2119 2.44843 12.8344 4.26926 12.9925C4.27122 12.9926 4.27273 12.9943 4.27273 12.9962C4.27273 12.9983 4.27442 13 4.2765 13H5.12049Z" fill="#786F9E"/>
<path fill-rule="evenodd" clip-rule="evenodd" d="M11 13.9C12.6016 13.9 13.9 12.6016 13.9 11C13.9 9.39837 12.6016 8.1 11 8.1C9.39837 8.1 8.1 9.39837 8.1 11C8.1 12.6016 9.39837 13.9 11 13.9ZM11 15C13.2091 15 15 13.2091 15 11C15 8.79086 13.2091 7 11 7C8.79086 7 7 8.79086 7 11C7 13.2091 8.79086 15 11 15Z" fill="#786F9E"/>
<path d="M10.1624 10.6143C9.94032 10.4071 9.59229 10.4191 9.38503 10.6411C9.17777 10.8632 9.18977 11.2112 9.41183 11.4185L10.1624 10.6143ZM10.6443 11.8164L10.269 12.2185C10.4786 12.4141 10.8034 12.4159 11.0151 12.2226L10.6443 11.8164ZM12.658 10.7226C12.8823 10.5178 12.8981 10.1699 12.6933 9.94556C12.4885 9.72124 12.1406 9.70543 11.9163 9.91024L12.658 10.7226ZM9.41183 11.4185L10.269 12.2185L11.0195 11.4143L10.1624 10.6143L9.41183 11.4185ZM11.0151 12.2226L12.658 10.7226L11.9163 9.91024L10.2734 11.4102L11.0151 12.2226Z" fill="#786F9E"/>
</svg>
