<svg width="16" height="16" viewBox="0 0 16 16" fill="none" xmlns="http://www.w3.org/2000/svg">
<path fill-rule="evenodd" clip-rule="evenodd" d="M2.61418 14C2.27498 14 2 13.7251 2 13.386L2 7.24566C2 7.08281 2.06471 6.92663 2.17989 6.81148L7.45695 1.53567C7.80217 1.19258 8.26917 1 8.75594 1C9.2427 1 9.7097 1.19258 10.0549 1.53567L9.62192 1.97114L10.0562 1.53696L14.4596 5.93931C14.4597 5.93939 14.4595 5.93923 14.4596 5.93931C14.6308 6.11034 14.7669 6.31366 14.8596 6.53718C14.9523 6.76081 15 7.00052 15 7.24259C15 7.48467 14.9523 7.72438 14.8596 7.94801C14.7669 8.17158 14.631 8.37469 14.4597 8.54574C14.4597 8.54579 14.4598 8.5457 14.4597 8.54574L9.19048 13.8199C9.07528 13.9352 8.91895 14 8.75594 14L2.61418 14ZM9.18893 2.40662C9.18874 2.40643 9.18855 2.40624 9.18836 2.40605C9.07334 2.29204 8.91793 2.22806 8.75594 2.22806C8.59394 2.22806 8.43853 2.29204 8.32351 2.40605C8.32332 2.40624 8.32313 2.40643 8.32294 2.40662L3.22835 7.5L3.22835 12.7719L8.50133 12.7719L13.591 7.67752L13.5915 7.67702C13.6486 7.61999 13.6939 7.55227 13.7248 7.47773C13.7557 7.40319 13.7716 7.32329 13.7716 7.24259C13.7716 7.1619 13.7557 7.082 13.7248 7.00746C13.6939 6.93292 13.6486 6.86519 13.5915 6.80817L9.18893 2.40662Z" fill="#786F9E"/>
</svg>
