<svg width="16" height="17" viewBox="0 0 16 17" fill="none" xmlns="http://www.w3.org/2000/svg">
<path fill-rule="evenodd" clip-rule="evenodd" d="M7.3335 3.16732C4.75617 3.16732 2.66683 5.25666 2.66683 7.83398C2.66683 10.4113 4.75617 12.5007 7.3335 12.5007C9.91083 12.5007 12.0002 10.4113 12.0002 7.83398C12.0002 5.25666 9.91083 3.16732 7.3335 3.16732ZM1.3335 7.83398C1.3335 4.52028 4.01979 1.83398 7.3335 1.83398C10.6472 1.83398 13.3335 4.52028 13.3335 7.83398C13.3335 11.1477 10.6472 13.834 7.3335 13.834C4.01979 13.834 1.3335 11.1477 1.3335 7.83398Z" fill="#1D153E"/>
<path fill-rule="evenodd" clip-rule="evenodd" d="M10.6289 11.1289C10.8892 10.8685 11.3113 10.8685 11.5717 11.1289L14.4717 14.0289C14.732 14.2892 14.732 14.7113 14.4717 14.9717C14.2113 15.232 13.7892 15.232 13.5289 14.9717L10.6289 12.0717C10.3685 11.8113 10.3685 11.3892 10.6289 11.1289Z" fill="#1D153E"/>
</svg>
