<svg width="16" height="17" viewBox="0 0 16 17" fill="none" xmlns="http://www.w3.org/2000/svg">
<path fill-rule="evenodd" clip-rule="evenodd" d="M7.36364 7.22727C7.01218 7.22727 6.72727 7.51218 6.72727 7.86364V13.5909C6.72727 13.9424 7.01218 14.2273 7.36364 14.2273H13.0909C13.4424 14.2273 13.7273 13.9424 13.7273 13.5909V7.86364C13.7273 7.51218 13.4424 7.22727 13.0909 7.22727H7.36364ZM5.45455 7.86364C5.45455 6.80927 6.30927 5.95455 7.36364 5.95455H13.0909C14.1453 5.95455 15 6.80927 15 7.86364V13.5909C15 14.6453 14.1453 15.5 13.0909 15.5H7.36364C6.30927 15.5 5.45455 14.6453 5.45455 13.5909V7.86364Z" fill="#2F3A3C"/>
<path fill-rule="evenodd" clip-rule="evenodd" d="M2.90909 2.77273C2.74032 2.77273 2.57846 2.83977 2.45911 2.95911C2.33977 3.07846 2.27273 3.24032 2.27273 3.40909V9.13636C2.27273 9.30514 2.33977 9.467 2.45911 9.58634C2.57846 9.70568 2.74032 9.77273 2.90909 9.77273H3.54545C3.89691 9.77273 4.18182 10.0576 4.18182 10.4091C4.18182 10.7605 3.89691 11.0455 3.54545 11.0455H2.90909C2.40277 11.0455 1.91718 10.8443 1.55916 10.4863C1.20114 10.1283 1 9.64269 1 9.13636V3.40909C1 2.90277 1.20114 2.41718 1.55916 2.05916C1.91718 1.70114 2.40277 1.5 2.90909 1.5H8.63636C9.14269 1.5 9.62827 1.70114 9.98629 2.05916C10.3443 2.41718 10.5455 2.90277 10.5455 3.40909V4.04545C10.5455 4.39691 10.2605 4.68182 9.90909 4.68182C9.55764 4.68182 9.27273 4.39691 9.27273 4.04545V3.40909C9.27273 3.24032 9.20568 3.07846 9.08634 2.95911C8.967 2.83977 8.80514 2.77273 8.63636 2.77273H2.90909Z" fill="#2F3A3C"/>
</svg>
