<svg width="17" height="16" viewBox="0 0 17 16" fill="none" xmlns="http://www.w3.org/2000/svg">
<path fill-rule="evenodd" clip-rule="evenodd" d="M8.50033 2.00008C5.18662 2.00008 2.50033 4.68637 2.50033 8.00008C2.50033 11.3138 5.18662 14.0001 8.50033 14.0001C11.814 14.0001 14.5003 11.3138 14.5003 8.00008C14.5003 4.68637 11.814 2.00008 8.50033 2.00008ZM1.16699 8.00008C1.16699 3.94999 4.45024 0.666748 8.50033 0.666748C12.5504 0.666748 15.8337 3.94999 15.8337 8.00008C15.8337 12.0502 12.5504 15.3334 8.50033 15.3334C4.45024 15.3334 1.16699 12.0502 1.16699 8.00008Z" fill="#B1C2C7"/>
<path d="M9.16699 11.3334C9.16699 11.7016 8.86852 12.0001 8.50033 12.0001C8.13214 12.0001 7.83366 11.7016 7.83366 11.3334C7.83366 10.9652 8.13214 10.6667 8.50033 10.6667C8.86852 10.6667 9.16699 10.9652 9.16699 11.3334Z" fill="#B1C2C7"/>
<path fill-rule="evenodd" clip-rule="evenodd" d="M8.10638 5.74719C7.78914 5.81314 7.63964 5.96939 7.60102 6.10429C7.4997 6.45827 7.13061 6.66308 6.77664 6.56176C6.42266 6.46044 6.21785 6.09135 6.31917 5.73737C6.54414 4.95144 7.24117 4.56521 7.83501 4.44176C8.40624 4.32301 9.15201 4.38992 9.63206 4.84208C10.0015 5.19003 10.2546 5.66606 10.2715 6.20708C10.2887 6.75567 10.0606 7.28733 9.62288 7.73388C9.03834 8.33019 9.08001 8.5792 9.08608 8.61546C9.08617 8.61599 9.08625 8.61647 9.08632 8.61691C9.14538 8.98033 8.89865 9.32282 8.53522 9.38188C8.1718 9.44094 7.82931 9.19421 7.77025 8.83079C7.66794 8.20124 7.93769 7.54831 8.67072 6.80052C8.89603 6.57067 8.94291 6.37816 8.93886 6.24881C8.93457 6.11188 8.87026 5.9562 8.71786 5.81266C8.70715 5.80256 8.65128 5.76237 8.52391 5.73868C8.40229 5.71606 8.25406 5.71649 8.10638 5.74719Z" fill="#B1C2C7"/>
</svg>
