<svg width="16" height="16" viewBox="0 0 16 16" fill="none" xmlns="http://www.w3.org/2000/svg">
<path d="M13.413 2.46875L8.76807 5.92381L9.63071 3.88541L13.413 2.46875Z" fill="#E17726" stroke="#E17726" stroke-width="0.208097" stroke-linecap="round" stroke-linejoin="round"/>
<path d="M2.7002 2.46875L7.30282 5.95651L6.48243 3.88541L2.7002 2.46875Z" fill="#E27625" stroke="#E27625" stroke-width="0.208097" stroke-linecap="round" stroke-linejoin="round"/>
<path d="M11.7425 10.4785L10.5068 12.3769L13.1508 13.106L13.9064 10.5204L11.7425 10.4785Z" fill="#E27625" stroke="#E27625" stroke-width="0.208097" stroke-linecap="round" stroke-linejoin="round"/>
<path d="M2.21094 10.5204L2.96196 13.106L5.60595 12.3769L4.37491 10.4785L2.21094 10.5204Z" fill="#E27625" stroke="#E27625" stroke-width="0.208097" stroke-linecap="round" stroke-linejoin="round"/>
<path d="M5.46042 7.27021L4.72363 8.38797L7.34465 8.50495L7.25599 5.67578L5.46042 7.27021Z" fill="#E27625" stroke="#E27625" stroke-width="0.208097" stroke-linecap="round" stroke-linejoin="round"/>
<path d="M10.6523 7.26971L8.8287 5.64258L8.76807 8.50445L11.3891 8.38747L10.6523 7.26971Z" fill="#E27625" stroke="#E27625" stroke-width="0.208097" stroke-linecap="round" stroke-linejoin="round"/>
<path d="M5.60547 12.3786L7.18653 11.6067L5.82458 10.541L5.60547 12.3786Z" fill="#E27625" stroke="#E27625" stroke-width="0.208097" stroke-linecap="round" stroke-linejoin="round"/>
<path d="M8.92676 11.6067L10.5078 12.3786L10.2887 10.541L8.92676 11.6067Z" fill="#E27625" stroke="#E27625" stroke-width="0.208097" stroke-linecap="round" stroke-linejoin="round"/>
<path d="M10.5078 12.3774L8.92676 11.6055L9.05262 12.6389L9.03884 13.0737L10.5078 12.3774Z" fill="#D5BFB2" stroke="#D5BFB2" stroke-width="0.208097" stroke-linecap="round" stroke-linejoin="round"/>
<path d="M5.60547 12.3774L7.07445 13.0737L7.06526 12.6389L7.18653 11.6055L5.60547 12.3774Z" fill="#D5BFB2" stroke="#D5BFB2" stroke-width="0.208097" stroke-linecap="round" stroke-linejoin="round"/>
<path d="M7.10221 9.85826L5.78711 9.47047L6.71498 9.04492L7.10221 9.85826Z" fill="#233447" stroke="#233447" stroke-width="0.208097" stroke-linecap="round" stroke-linejoin="round"/>
<path d="M9.00928 9.85826L9.3965 9.04492L10.329 9.47047L9.00928 9.85826Z" fill="#233447" stroke="#233447" stroke-width="0.208097" stroke-linecap="round" stroke-linejoin="round"/>
<path d="M5.60507 12.3769L5.83336 10.4785L4.37402 10.5204L5.60507 12.3769Z" fill="#CC6228" stroke="#CC6228" stroke-width="0.208097" stroke-linecap="round" stroke-linejoin="round"/>
<path d="M10.2788 10.4785L10.5071 12.3769L11.7427 10.5204L10.2788 10.4785Z" fill="#CC6228" stroke="#CC6228" stroke-width="0.208097" stroke-linecap="round" stroke-linejoin="round"/>
<path d="M11.3891 8.39062L8.76807 8.5076L9.0106 9.85841L9.39783 9.04507L10.3303 9.47062L11.3891 8.39062Z" fill="#CC6228" stroke="#CC6228" stroke-width="0.208097" stroke-linecap="round" stroke-linejoin="round"/>
<path d="M5.78701 9.47062L6.71489 9.04507L7.10211 9.85841L7.34465 8.5076L4.72363 8.39062L5.78701 9.47062Z" fill="#CC6228" stroke="#CC6228" stroke-width="0.208097" stroke-linecap="round" stroke-linejoin="round"/>
<path d="M4.72363 8.39062L5.82422 10.5414L5.78701 9.47062L4.72363 8.39062Z" fill="#E27525" stroke="#E27525" stroke-width="0.208097" stroke-linecap="round" stroke-linejoin="round"/>
<path d="M10.3304 9.47062L10.2886 10.5414L11.3892 8.39062L10.3304 9.47062Z" fill="#E27525" stroke="#E27525" stroke-width="0.208097" stroke-linecap="round" stroke-linejoin="round"/>
<path d="M7.34507 8.50586L7.10254 9.85666L7.4103 11.4511L7.47553 9.35189L7.34507 8.50586Z" fill="#E27525" stroke="#E27525" stroke-width="0.208097" stroke-linecap="round" stroke-linejoin="round"/>
<path d="M8.76795 8.50586L8.64209 9.34729L8.70272 11.4511L9.01048 9.85666L8.76795 8.50586Z" fill="#E27525" stroke="#E27525" stroke-width="0.208097" stroke-linecap="round" stroke-linejoin="round"/>
<path d="M9.01089 9.85654L8.70312 11.451L8.92682 11.6053L10.2888 10.5395L10.3306 9.46875L9.01089 9.85654Z" fill="#F5841F" stroke="#F5841F" stroke-width="0.208097" stroke-linecap="round" stroke-linejoin="round"/>
<path d="M5.78711 9.46875L5.82432 10.5395L7.18627 11.6053L7.40997 11.451L7.10221 9.85654L5.78711 9.46875Z" fill="#F5841F" stroke="#F5841F" stroke-width="0.208097" stroke-linecap="round" stroke-linejoin="round"/>
<path d="M9.03769 13.0733L9.05147 12.6385L8.93525 12.5358H7.17689L7.06526 12.6385L7.07445 13.0733L5.60547 12.377L6.11856 12.7974L7.1631 13.5223H8.94903L9.99358 12.7974L10.5067 12.377L9.03769 13.0733Z" fill="#C0AC9D" stroke="#C0AC9D" stroke-width="0.208097" stroke-linecap="round" stroke-linejoin="round"/>
<path d="M8.92626 11.6055L8.70256 11.4512H7.41089L7.18719 11.6055L7.06592 12.6389L7.17754 12.5362H8.93591L9.05213 12.6389L8.92626 11.6055Z" fill="#161616" stroke="#161616" stroke-width="0.208097" stroke-linecap="round" stroke-linejoin="round"/>
<path d="M13.6089 6.14856L14.0007 4.24095L13.4132 2.46875L8.92676 5.80729L10.6525 7.27047L13.0912 7.98617L13.6277 7.35475L13.3943 7.18665L13.7673 6.84492L13.483 6.62063L13.856 6.33555L13.6089 6.14856Z" fill="#763E1A" stroke="#763E1A" stroke-width="0.208097" stroke-linecap="round" stroke-linejoin="round"/>
<path d="M2.11328 4.24095L2.5097 6.14856L2.25797 6.33555L2.63096 6.62063L2.34663 6.84492L2.71962 7.18665L2.48627 7.35475L3.02278 7.98617L5.46144 7.27047L7.18719 5.80729L2.70078 2.46875L2.11328 4.24095Z" fill="#763E1A" stroke="#763E1A" stroke-width="0.208097" stroke-linecap="round" stroke-linejoin="round"/>
<path d="M13.091 7.98718L10.6524 7.27148L11.3892 8.38924L10.2886 10.54L11.7433 10.5211H13.9073L13.091 7.98718Z" fill="#F5841F" stroke="#F5841F" stroke-width="0.208097" stroke-linecap="round" stroke-linejoin="round"/>
<path d="M5.46126 7.27148L3.0226 7.98718L2.21094 10.5211H4.37491L5.82506 10.54L4.72447 8.38924L5.46126 7.27148Z" fill="#F5841F" stroke="#F5841F" stroke-width="0.208097" stroke-linecap="round" stroke-linejoin="round"/>
<path d="M8.76818 8.50652L8.92665 5.8086L9.63083 3.88672H6.4834L7.18757 5.8086L7.34605 8.50652L7.40668 9.35716L7.41127 11.4518H8.70295L8.70754 9.35716L8.76818 8.50652Z" fill="#F5841F" stroke="#F5841F" stroke-width="0.208097" stroke-linecap="round" stroke-linejoin="round"/>
</svg>
