<svg width="16" height="17" viewBox="0 0 16 17" fill="none" xmlns="http://www.w3.org/2000/svg">
<path fill-rule="evenodd" clip-rule="evenodd" d="M1 2.83333C1 2.09695 1.59695 1.5 2.33333 1.5H5.66667C6.40305 1.5 7 2.09695 7 2.83333V6.16667C7 6.90305 6.40305 7.5 5.66667 7.5H2.33333C1.59695 7.5 1 6.90305 1 6.16667V2.83333ZM5.66667 3.23333C5.66667 3.01242 5.48758 2.83333 5.26667 2.83333H2.73333C2.51242 2.83333 2.33333 3.01242 2.33333 3.23333V5.76667C2.33333 5.98758 2.51242 6.16667 2.73333 6.16667H5.26667C5.48758 6.16667 5.66667 5.98758 5.66667 5.76667V3.23333Z" fill="#2F3A3C"/>
<path fill-rule="evenodd" clip-rule="evenodd" d="M9 2.83333C9 2.09695 9.59695 1.5 10.3333 1.5H13.6667C14.403 1.5 15 2.09695 15 2.83333V6.16667C15 6.90305 14.403 7.5 13.6667 7.5H10.3333C9.59695 7.5 9 6.90305 9 6.16667V2.83333ZM13.6667 3.23333C13.6667 3.01242 13.4876 2.83333 13.2667 2.83333H10.7333C10.5124 2.83333 10.3333 3.01242 10.3333 3.23333V5.76667C10.3333 5.98758 10.5124 6.16667 10.7333 6.16667H13.2667C13.4876 6.16667 13.6667 5.98758 13.6667 5.76667V3.23333Z" fill="#2F3A3C"/>
<path fill-rule="evenodd" clip-rule="evenodd" d="M1 10.8333C1 10.097 1.59695 9.5 2.33333 9.5H5.66667C6.40305 9.5 7 10.097 7 10.8333V14.1667C7 14.903 6.40305 15.5 5.66667 15.5H2.33333C1.59695 15.5 1 14.903 1 14.1667V10.8333ZM5.66667 11.2333C5.66667 11.0124 5.48758 10.8333 5.26667 10.8333H2.73333C2.51242 10.8333 2.33333 11.0124 2.33333 11.2333V13.7667C2.33333 13.9876 2.51242 14.1667 2.73333 14.1667H5.26667C5.48758 14.1667 5.66667 13.9876 5.66667 13.7667V11.2333Z" fill="#2F3A3C"/>
<rect x="3" y="5.5" width="2" height="2" rx="0.133333" transform="rotate(-90 3 5.5)" fill="#2F3A3C"/>
<rect x="9" y="9.5" width="2" height="2" rx="0.666667" fill="#2F3A3C"/>
<rect x="9" y="13.5" width="2" height="2" rx="0.666667" fill="#2F3A3C"/>
<rect x="11" y="11.5" width="2" height="2" rx="0.666667" fill="#2F3A3C"/>
<rect x="13" y="13.5" width="2" height="2" rx="0.666667" fill="#2F3A3C"/>
<rect x="13" y="9.5" width="2" height="2" rx="0.666667" fill="#2F3A3C"/>
</svg>
