<svg width="16" height="16" viewBox="0 0 16 16" fill="none" xmlns="http://www.w3.org/2000/svg">
<path fill-rule="evenodd" clip-rule="evenodd" d="M11.125 14.6654C13.4494 14.6654 15.3337 11.6806 15.3337 7.9987C15.3337 4.3168 13.4494 1.33203 11.125 1.33203H4.66699V1.34008C2.43954 1.51238 0.666992 4.42765 0.666992 7.9987C0.666992 11.5698 2.43954 14.485 4.66699 14.6573V14.6654H11.125ZM7.65059 13.332H8.12496C8.66805 13.332 9.35523 12.9803 9.9735 12.001C10.581 11.0387 11.0003 9.62724 11.0003 7.9987C11.0003 6.37016 10.581 4.95868 9.9735 3.99642C9.35523 3.01706 8.66805 2.66536 8.12496 2.66536H7.65059C8.67261 3.88167 9.33366 5.8179 9.33366 7.9987C9.33366 10.1795 8.67261 12.1157 7.65059 13.332ZM4.87569 13.332H5.12496C5.66805 13.332 6.35523 12.9803 6.9735 12.001C7.58098 11.0387 8.00033 9.62724 8.00033 7.9987C8.00033 6.37016 7.58098 4.95868 6.9735 3.99642C6.35523 3.01706 5.66805 2.66536 5.12496 2.66536H4.87569C4.33261 2.66536 3.64543 3.01706 3.02715 3.99642C2.41967 4.95868 2.00033 6.37016 2.00033 7.9987C2.00033 9.62724 2.41967 11.0387 3.02715 12.001C3.64543 12.9803 4.33261 13.332 4.87569 13.332ZM11.125 13.332H10.6506C11.6726 12.1157 12.3337 10.1795 12.3337 7.9987C12.3337 5.8179 11.6726 3.88167 10.6506 2.66536H11.125C11.668 2.66536 12.3552 3.01706 12.9735 3.99642C13.581 4.95868 14.0003 6.37016 14.0003 7.9987C14.0003 9.62724 13.581 11.0387 12.9735 12.001C12.3552 12.9803 11.668 13.332 11.125 13.332Z" fill="#1D153E"/>
</svg>
