<svg width="461" height="480" viewBox="0 0 461 480" fill="none" xmlns="http://www.w3.org/2000/svg">
<g clip-path="url(#clip0_1941_169641)">
<path d="M312.913 46.667C304.412 38.1643 293.591 32.3626 281.808 29.9897C270.024 27.6168 257.803 28.7785 246.677 33.3289C244.573 34.1962 242.259 34.4221 240.027 33.9784C237.795 33.5346 235.744 32.4409 234.131 30.8347L227.102 23.8009C211.869 8.55957 191.208 -0.00292969 169.665 -0.00292969C148.123 -0.00292969 127.462 8.55957 112.23 23.8009C96.9965 39.0423 88.4387 59.7139 88.4387 81.2685C88.4387 102.823 96.9965 123.495 112.23 138.736L193.148 219.699C193.148 219.699 223.2 223.715 229.887 217.024L312.913 133.024C324.358 121.572 330.787 106.041 330.787 89.8456C330.787 73.6506 324.358 58.1189 312.913 46.667Z" fill="#274D76"/>
<path d="M386.54 114.661C350.755 99.8761 319.718 127.188 293.063 147.329C270.004 164.758 210.499 211.101 207.956 213.084C205.414 211.101 145.896 164.758 122.849 147.329C96.1942 127.188 65.1578 99.8761 29.3662 114.661C5.55922 124.494 -9.84057 151.738 7.26683 181.444C38.0165 234.84 99.3103 334.934 99.3103 334.934C103.418 341.792 109.219 347.478 116.155 351.446C123.092 355.414 130.932 357.531 138.922 357.595C143.017 357.632 175.318 357.595 207.956 357.595C240.594 357.595 272.896 357.632 276.997 357.595C284.985 357.53 292.822 355.412 299.757 351.444C306.691 347.476 312.49 341.79 316.596 334.934C316.596 334.934 377.89 234.84 408.639 181.438C425.747 151.738 410.347 124.494 386.54 114.661Z" fill="#74BAAB"/>
<path d="M103.779 471.133H14.4524C13.23 471.133 12.0195 470.892 10.8902 470.424C9.7609 469.956 8.73486 469.27 7.87076 468.404C7.00666 467.539 6.32143 466.512 5.85419 465.382C5.38696 464.252 5.14689 463.041 5.14771 461.817V372.598C5.14771 366.707 7.48654 361.058 11.6497 356.892C15.8128 352.727 21.4592 350.387 27.3468 350.387H103.779V471.133Z" fill="#93B4F6"/>
<path d="M85.9917 390.331H32.1704C29.0905 390.33 26.1373 389.104 23.9601 386.925C21.7829 384.745 20.5598 381.79 20.5598 378.708V367.54C20.5565 363.82 21.2861 360.135 22.7069 356.696C24.1277 353.258 26.2117 350.134 28.84 347.502C31.4683 344.87 34.5892 342.782 38.0244 341.357C41.4596 339.932 45.1417 339.199 48.8603 339.199H69.2957C73.0127 339.198 76.6934 339.93 80.1277 341.353C83.562 342.775 86.6825 344.861 89.3111 347.491C91.9397 350.12 94.0249 353.242 95.4475 356.678C96.8701 360.114 97.6023 363.796 97.6023 367.515V378.689C97.6048 380.217 97.3063 381.73 96.724 383.142C96.1417 384.554 95.287 385.837 94.2087 386.918C93.1303 387.999 91.8496 388.857 90.4397 389.443C89.0298 390.029 87.5183 390.331 85.9917 390.331Z" fill="black"/>
<path d="M29.3724 380.398C29.2884 380.398 29.2054 380.381 29.1283 380.348C29.0512 380.314 28.9816 380.266 28.9236 380.205C28.8076 380.088 28.7424 379.93 28.7424 379.765C28.7424 379.601 28.8076 379.443 28.9236 379.326C34.2974 374.2 41.4424 371.35 48.8667 371.369H69.3021C76.2562 371.368 82.978 373.874 88.2356 378.428C88.3546 378.538 88.4261 378.69 88.4351 378.852C88.4441 379.013 88.3897 379.172 88.2836 379.295C88.1775 379.417 88.0279 379.493 87.8665 379.507C87.7052 379.521 87.5447 379.472 87.4191 379.37C82.3875 375.013 75.956 372.616 69.3021 372.616H48.8605C41.7639 372.602 34.9353 375.327 29.7962 380.224C29.6822 380.334 29.5307 380.396 29.3724 380.398Z" fill="white"/>
<path d="M318.515 330.208H113.968C111.266 330.208 108.674 331.282 106.763 333.194C104.852 335.106 103.779 337.699 103.779 340.403V471.133H328.699V340.403C328.699 337.7 327.626 335.108 325.716 333.196C323.807 331.285 321.217 330.21 318.515 330.208Z" fill="#93B4F6"/>
<path d="M297.563 333.581H127.86C125.089 333.581 122.843 335.828 122.843 338.601V390.656C122.843 393.428 125.089 395.675 127.86 395.675H297.563C300.333 395.675 302.58 393.428 302.58 390.656V338.601C302.58 335.828 300.333 333.581 297.563 333.581Z" fill="#274D76"/>
<path d="M157.868 392.29C157.26 392.773 156.498 393.018 155.723 392.98C154.947 392.943 154.213 392.624 153.655 392.084C147.996 386.634 140.767 384.271 133.755 381.982C126.981 379.768 120.581 377.679 116.798 372.841C113.763 368.968 112.834 361.991 114.305 354.184C115.42 348.213 117.783 342.545 121.241 337.553C124.698 332.56 129.171 328.355 134.366 325.213L137.619 330.42C124.918 338.046 121.366 350.374 120.431 355.3C119.147 362.065 120.163 367.147 121.734 369.124C124.357 372.479 129.624 374.194 135.719 376.189C143.116 378.602 151.399 381.309 158.092 387.8C158.396 388.097 158.633 388.456 158.787 388.852C158.942 389.248 159.01 389.672 158.989 390.097C158.967 390.521 158.855 390.936 158.661 391.314C158.466 391.692 158.194 392.025 157.862 392.29H157.868Z" fill="white"/>
<path d="M449.491 317.743C447.697 317.703 445.921 318.11 444.322 318.926C442.723 319.742 441.351 320.943 440.33 322.42C433.076 333.407 427.311 347.131 416.249 347.131H328.699V441.345H438.386C439.248 441.344 440.109 441.292 440.966 441.19C441.724 441.292 442.488 441.344 443.253 441.345C447.914 441.344 452.383 439.491 455.678 436.193C458.974 432.896 460.826 428.424 460.828 423.761V329.148C460.828 326.134 459.635 323.242 457.511 321.105C455.387 318.968 452.504 317.759 449.491 317.743Z" fill="#274D76"/>
<path d="M134.497 370.378C134.084 370.385 133.69 370.557 133.404 370.854C133.117 371.152 132.96 371.551 132.967 371.965C132.974 372.378 133.146 372.772 133.443 373.059C133.741 373.346 134.14 373.503 134.553 373.496H134.615C139.47 373.321 156.185 374.119 167.609 392.202C167.75 392.424 167.946 392.607 168.177 392.734C168.408 392.86 168.667 392.926 168.93 392.926C169.223 392.927 169.511 392.845 169.759 392.689C169.932 392.58 170.082 392.437 170.2 392.27C170.318 392.103 170.402 391.914 170.447 391.714C170.493 391.514 170.498 391.307 170.463 391.106C170.428 390.904 170.354 390.711 170.245 390.537C157.905 371.039 139.751 370.178 134.497 370.378ZM144.026 364.254C143.821 364.226 143.613 364.239 143.414 364.292C143.214 364.344 143.027 364.436 142.862 364.561C142.698 364.686 142.56 364.842 142.456 365.021C142.352 365.199 142.284 365.396 142.256 365.601C142.228 365.806 142.241 366.014 142.294 366.214C142.346 366.414 142.438 366.601 142.563 366.766C142.688 366.93 142.844 367.068 143.022 367.172C143.201 367.276 143.398 367.344 143.602 367.372C143.808 367.372 164.567 370.49 173.722 388.087C173.817 388.269 173.946 388.43 174.102 388.562C174.259 388.694 174.439 388.794 174.635 388.856C174.83 388.918 175.035 388.941 175.239 388.923C175.443 388.906 175.641 388.848 175.823 388.754C176.004 388.66 176.166 388.531 176.298 388.374C176.43 388.218 176.529 388.037 176.591 387.842C176.653 387.646 176.676 387.441 176.659 387.237C176.641 387.033 176.584 386.834 176.49 386.653C166.555 367.553 144.923 364.373 144.007 364.248L144.026 364.254ZM156.565 363.007C156.487 363.196 156.447 363.399 156.447 363.604C156.447 363.808 156.488 364.011 156.566 364.2C156.645 364.389 156.761 364.56 156.906 364.705C157.051 364.849 157.223 364.963 157.413 365.04C157.544 365.09 170.027 370.272 173.722 377.324C173.855 377.576 174.054 377.787 174.298 377.935C174.542 378.082 174.821 378.16 175.106 378.16C175.358 378.158 175.606 378.096 175.829 377.979C176.194 377.785 176.468 377.455 176.591 377.06C176.713 376.665 176.675 376.238 176.483 375.871C172.258 367.809 159.152 362.377 158.597 362.153C158.408 362.072 158.206 362.029 158 362.026C157.795 362.023 157.591 362.061 157.401 362.138C157.21 362.214 157.037 362.328 156.89 362.472C156.743 362.615 156.627 362.787 156.547 362.976L156.565 363.007ZM168.836 362.097C168.635 362.028 168.422 362 168.21 362.016C167.998 362.033 167.792 362.092 167.603 362.192C167.415 362.291 167.249 362.427 167.116 362.593C166.982 362.759 166.884 362.95 166.828 363.155C166.771 363.36 166.757 363.575 166.786 363.786C166.816 363.997 166.888 364.199 166.998 364.381C167.109 364.563 167.255 364.72 167.429 364.843C167.603 364.966 167.799 365.052 168.008 365.096C168.07 365.096 174.545 366.967 177.755 372.697C177.89 372.939 178.087 373.141 178.326 373.281C178.565 373.421 178.836 373.495 179.113 373.496C179.38 373.497 179.642 373.429 179.874 373.296C180.055 373.199 180.215 373.066 180.344 372.907C180.474 372.747 180.57 372.563 180.628 372.366C180.686 372.169 180.704 371.962 180.682 371.758C180.659 371.554 180.596 371.356 180.497 371.176C176.614 364.286 169.136 362.153 168.818 362.066L168.836 362.097ZM128.265 384.021C128.071 383.93 127.861 383.88 127.648 383.874C127.434 383.867 127.222 383.905 127.023 383.983C126.824 384.062 126.644 384.181 126.493 384.332C126.342 384.484 126.224 384.664 126.145 384.863C126.067 385.062 126.03 385.275 126.037 385.489C126.044 385.702 126.094 385.912 126.185 386.106C126.277 386.299 126.406 386.472 126.567 386.613C126.727 386.754 126.915 386.861 127.118 386.927C127.18 386.927 133.251 389.371 136.84 392.963C136.983 393.109 137.154 393.225 137.342 393.305C137.531 393.384 137.733 393.425 137.937 393.425C138.244 393.422 138.544 393.329 138.799 393.158C139.054 392.986 139.252 392.743 139.37 392.459C139.488 392.175 139.519 391.862 139.461 391.561C139.402 391.259 139.256 390.981 139.04 390.762C134.989 386.715 128.527 384.133 128.265 384.021ZM127.286 361.392C127.554 361.598 134.079 366.275 147.323 357.121C153.505 352.849 160.872 351.39 167.54 353.124C170.206 353.778 172.696 355.007 174.838 356.725C176.979 358.443 178.719 360.608 179.936 363.07C180.066 363.33 180.267 363.549 180.514 363.702C180.762 363.855 181.047 363.936 181.338 363.936C181.576 363.938 181.811 363.882 182.024 363.774C182.208 363.684 182.372 363.558 182.507 363.404C182.642 363.25 182.746 363.071 182.812 362.877C182.878 362.683 182.905 362.478 182.892 362.273C182.878 362.069 182.825 361.869 182.734 361.685C181.319 358.821 179.296 356.301 176.806 354.301C174.316 352.301 171.42 350.869 168.319 350.106C160.778 348.148 152.477 349.769 145.553 354.558C134.447 362.228 129.274 358.979 129.137 358.885C128.807 358.637 128.391 358.531 127.982 358.589C127.573 358.648 127.204 358.866 126.956 359.197C126.708 359.528 126.602 359.944 126.66 360.353C126.719 360.762 126.937 361.132 127.268 361.38L127.286 361.392ZM171.429 345.803C171.547 345.859 182.959 351.453 187.128 358.412C187.233 358.587 187.372 358.74 187.536 358.862C187.701 358.984 187.887 359.073 188.086 359.123C188.284 359.172 188.491 359.183 188.693 359.153C188.896 359.123 189.09 359.053 189.266 358.948C189.441 358.843 189.594 358.704 189.716 358.539C189.838 358.375 189.927 358.188 189.976 357.989C190.026 357.791 190.036 357.584 190.006 357.382C189.976 357.179 189.907 356.985 189.802 356.809C185.159 349.064 173.292 343.24 172.794 342.997C172.61 342.907 172.41 342.855 172.205 342.843C172.001 342.83 171.796 342.858 171.602 342.925C171.409 342.992 171.23 343.096 171.077 343.232C170.924 343.368 170.799 343.533 170.709 343.717C170.62 343.902 170.567 344.102 170.555 344.306C170.542 344.511 170.571 344.716 170.637 344.909C170.704 345.103 170.809 345.282 170.944 345.435C171.08 345.588 171.245 345.713 171.429 345.803ZM181.974 342.941C182.036 342.978 188.275 346.277 189.964 351.34C190.022 351.542 190.121 351.729 190.254 351.891C190.386 352.054 190.551 352.187 190.736 352.285C190.922 352.382 191.125 352.441 191.334 352.458C191.543 352.475 191.753 352.449 191.952 352.383C192.151 352.316 192.334 352.211 192.491 352.072C192.648 351.933 192.776 351.764 192.866 351.574C192.956 351.385 193.007 351.18 193.016 350.97C193.025 350.761 192.991 350.551 192.918 350.355C190.836 344.119 183.719 340.334 183.414 340.179C183.05 340.007 182.633 339.982 182.252 340.111C181.87 340.239 181.553 340.51 181.367 340.867C181.181 341.225 181.14 341.64 181.253 342.026C181.366 342.413 181.625 342.741 181.974 342.941ZM255.233 369.212C246.564 354.77 234.511 347.137 220.383 347.137C205.719 347.137 194.27 354.814 187.278 369.343C184.023 376.239 181.952 383.633 181.151 391.217C181.119 391.631 181.252 392.04 181.522 392.355C181.791 392.67 182.175 392.865 182.588 392.898C183.001 392.93 183.41 392.797 183.725 392.527C184.04 392.257 184.235 391.874 184.267 391.46C185.069 384.238 187.05 377.195 190.132 370.615C196.663 357.102 206.847 350.255 220.402 350.255C233.539 350.255 244.352 357.152 252.541 370.752C256.382 377.268 259.236 384.319 261.011 391.672C261.083 392.024 261.274 392.341 261.552 392.568C261.83 392.795 262.178 392.92 262.538 392.92C262.645 392.931 262.754 392.931 262.862 392.92C263.064 392.877 263.256 392.794 263.426 392.677C263.596 392.559 263.741 392.409 263.853 392.235C263.965 392.061 264.041 391.867 264.077 391.663C264.114 391.46 264.109 391.251 264.065 391.049C262.231 383.372 259.254 376.015 255.233 369.224V369.212ZM219.56 357.202C219.155 357.202 218.75 357.202 218.314 357.245C209.707 357.869 202.06 363.182 196.19 372.691C191.316 380.585 189.334 388.579 189.097 391.217C189.081 391.422 189.106 391.628 189.169 391.823C189.233 392.018 189.334 392.199 189.468 392.355C189.601 392.511 189.764 392.639 189.947 392.732C190.13 392.826 190.329 392.882 190.534 392.898C190.738 392.914 190.944 392.889 191.139 392.826C191.334 392.762 191.515 392.661 191.671 392.527C191.827 392.394 191.955 392.231 192.048 392.048C192.141 391.865 192.197 391.665 192.213 391.46C192.4 389.166 194.326 381.664 198.857 374.325C202.596 368.32 208.991 361.018 218.545 360.351C236.475 359.104 253.264 391.716 253.445 392.047C253.575 392.303 253.774 392.518 254.02 392.667C254.265 392.817 254.547 392.896 254.835 392.895C255.08 392.897 255.321 392.839 255.539 392.726C255.907 392.539 256.187 392.214 256.315 391.821C256.444 391.428 256.411 391 256.224 390.631C255.514 389.253 238.999 357.214 219.56 357.214V357.202ZM219.816 366.162H219.779C213.409 366.162 207.514 370.527 202.733 378.771C200.534 382.608 198.778 386.683 197.498 390.918C197.441 391.114 197.424 391.32 197.447 391.524C197.47 391.727 197.534 391.923 197.633 392.102C197.733 392.281 197.867 392.438 198.028 392.564C198.189 392.691 198.373 392.784 198.57 392.838C198.708 392.877 198.851 392.898 198.994 392.901C199.334 392.9 199.665 392.788 199.936 392.582C200.207 392.376 200.404 392.087 200.496 391.76C200.558 391.535 206.959 369.311 219.816 369.311C227.793 369.311 235.484 385.618 237.777 391.903C237.918 392.292 238.208 392.608 238.583 392.783C238.957 392.958 239.386 392.977 239.775 392.835C240.163 392.694 240.479 392.404 240.654 392.029C240.829 391.654 240.848 391.225 240.706 390.837C240.339 389.808 231.601 366.175 219.816 366.175V366.162ZM219.76 380.068C211.726 380.978 208.274 391.292 208.131 391.747C208.003 392.14 208.036 392.567 208.223 392.936C208.41 393.304 208.735 393.583 209.128 393.711C209.284 393.766 209.448 393.793 209.614 393.792C209.942 393.791 210.262 393.686 210.527 393.493C210.792 393.299 210.99 393.026 211.091 392.714C211.122 392.626 214.045 383.853 220.109 383.167C225.761 382.506 228.211 392.52 228.211 392.589C228.306 392.992 228.557 393.34 228.909 393.558C229.26 393.775 229.684 393.844 230.087 393.749C230.489 393.654 230.837 393.403 231.055 393.051C231.272 392.699 231.341 392.275 231.246 391.872C231.152 391.361 228.155 379.108 219.76 380.08V380.068ZM259.066 367.173C259.081 367.576 259.251 367.958 259.542 368.239C259.833 368.519 260.221 368.676 260.624 368.675H260.68C261.093 368.661 261.482 368.483 261.764 368.182C262.045 367.88 262.196 367.479 262.182 367.067C261.833 357.302 259.322 347.655 258.256 343.957C258.141 343.56 257.873 343.224 257.511 343.024C257.149 342.824 256.722 342.776 256.324 342.891C255.927 343.006 255.591 343.274 255.391 343.637C255.191 343.999 255.144 344.426 255.258 344.824C256.293 348.422 258.73 357.769 259.066 367.185V367.173ZM268.352 348.69C267.945 348.752 267.578 348.972 267.33 349.302C267.083 349.632 266.976 350.046 267.031 350.455C268.059 357.626 271.394 381.564 271.331 388.492C271.33 388.906 271.491 389.303 271.78 389.599C272.07 389.894 272.464 390.063 272.877 390.07C273.288 390.07 273.682 389.907 273.974 389.618C274.266 389.328 274.432 388.935 274.435 388.523C274.51 381.564 271.431 359.272 270.104 350.006C270.042 349.602 269.823 349.238 269.496 348.994C269.168 348.75 268.757 348.645 268.352 348.703V348.69ZM278.168 349.314C277.762 349.389 277.404 349.623 277.17 349.963C276.936 350.303 276.847 350.722 276.922 351.128C276.959 351.347 280.935 373.265 280.773 379.488C280.765 379.902 280.92 380.302 281.204 380.602C281.489 380.902 281.88 381.077 282.294 381.09H282.331C282.738 381.091 283.129 380.932 283.42 380.647C283.711 380.363 283.879 379.976 283.889 379.569C284.064 373.028 280.15 351.509 279.988 350.567C279.909 350.162 279.674 349.804 279.333 349.572C278.992 349.34 278.574 349.251 278.168 349.326V349.314ZM291.119 350.735C291.084 350.534 291.01 350.341 290.901 350.167C290.792 349.994 290.65 349.844 290.483 349.725C290.317 349.607 290.128 349.523 289.928 349.477C289.729 349.432 289.522 349.426 289.321 349.46C289.119 349.495 288.926 349.568 288.753 349.677C288.579 349.787 288.429 349.929 288.311 350.096C288.193 350.263 288.108 350.451 288.063 350.651C288.017 350.851 288.012 351.057 288.046 351.259C288.046 351.403 290.495 365.751 290.67 371.937C290.681 372.342 290.85 372.728 291.141 373.011C291.432 373.294 291.822 373.452 292.228 373.452H292.271C292.684 373.439 293.075 373.263 293.359 372.963C293.642 372.663 293.796 372.262 293.786 371.849C293.599 365.458 291.224 351.347 291.119 350.748V350.735Z" fill="#FFF3A1"/>
<path d="M282.587 392.782C282.159 392.66 281.764 392.445 281.43 392.152C281.095 391.86 280.829 391.497 280.65 391.09C280.471 390.682 280.385 390.241 280.397 389.796C280.408 389.351 280.518 388.915 280.717 388.517C284.456 381.378 291.592 378.54 297.962 375.996C305.085 373.153 311.236 370.696 313.081 363.07C315.25 354.122 309.51 345.404 304.312 339.674C300.589 335.614 296.406 332.003 291.848 328.911L295.276 323.816C296.466 324.577 324.361 342.848 319.126 364.479C316.546 375.161 307.908 378.609 300.292 381.652C294.278 384.053 288.981 386.166 286.258 391.286C285.914 391.923 285.36 392.42 284.691 392.693C284.021 392.966 283.277 392.998 282.587 392.782Z" fill="white"/>
<path d="M449.491 347.53C447.697 347.49 445.921 347.897 444.322 348.713C442.723 349.529 441.351 350.73 440.33 352.207C433.076 363.194 427.311 376.918 416.249 376.918H326.829V471.133H438.386C439.248 471.131 440.109 471.079 440.966 470.977C441.724 471.079 442.488 471.131 443.253 471.133C447.914 471.131 452.383 469.278 455.678 465.98C458.974 462.683 460.826 458.211 460.828 453.548V358.935C460.828 355.921 459.635 353.029 457.511 350.892C455.387 348.755 452.504 347.546 449.491 347.53Z" fill="#93B4F6"/>
<path d="M449.441 350.648C447.431 350.652 445.491 351.385 443.98 352.712C442.47 354.039 441.492 355.869 441.227 357.863L428.925 451.666C428.673 453.626 428.825 455.618 429.371 457.517C429.918 459.417 430.849 461.184 432.105 462.71C433.361 464.236 434.916 465.488 436.674 466.389C438.433 467.29 440.357 467.821 442.329 467.949C444.3 468.077 446.277 467.8 448.137 467.134C449.997 466.468 451.701 465.427 453.144 464.077C454.587 462.726 455.737 461.094 456.525 459.281C457.313 457.468 457.721 455.513 457.724 453.536V358.936C457.721 356.739 456.847 354.633 455.294 353.079C453.742 351.526 451.637 350.652 449.441 350.648Z" fill="white"/>
<path d="M428.102 466.337C426.442 464.445 425.205 462.221 424.473 459.812C423.741 457.403 423.532 454.866 423.858 452.37L435.276 365.289L436.522 365.451L425.105 452.532C424.799 454.852 424.992 457.21 425.671 459.449C426.351 461.688 427.5 463.756 429.044 465.514L428.102 466.337Z" fill="white"/>
<path d="M455.092 455.112C456.11 448.834 451.849 442.918 445.574 441.899C439.299 440.879 433.386 445.143 432.367 451.422C431.349 457.7 435.61 463.616 441.885 464.635C448.16 465.655 454.073 461.391 455.092 455.112Z" fill="#93B4F6"/>
<path d="M452.437 432.456C456.385 428.506 456.385 422.102 452.437 418.152C448.49 414.202 442.089 414.202 438.142 418.152C434.194 422.102 434.194 428.506 438.142 432.456C442.089 436.405 448.49 436.405 452.437 432.456Z" fill="#93B4F6"/>
<path d="M446.787 407.81C451.544 407.81 455.4 403.952 455.4 399.193C455.4 394.433 451.544 390.575 446.787 390.575C442.03 390.575 438.174 394.433 438.174 399.193C438.174 403.952 442.03 407.81 446.787 407.81Z" fill="#93B4F6"/>
<path d="M455.181 379.045C456.07 375.278 453.738 371.503 449.973 370.614C446.208 369.724 442.435 372.058 441.546 375.825C440.657 379.592 442.989 383.367 446.755 384.256C450.52 385.146 454.293 382.812 455.181 379.045Z" fill="#93B4F6"/>
<path d="M455.208 360.813C455.954 357.649 453.996 354.479 450.834 353.732C447.671 352.985 444.503 354.945 443.756 358.109C443.01 361.273 444.968 364.443 448.131 365.19C451.293 365.937 454.462 363.977 455.208 360.813Z" fill="#93B4F6"/>
<path d="M305.82 416.31H265.012V472.942H305.82V416.31Z" fill="#274D76"/>
<path d="M261.148 409.332H134.198C125.645 409.332 118.711 416.27 118.711 424.828V463.251C118.711 471.809 125.645 478.747 134.198 478.747H261.148C269.701 478.747 276.635 471.809 276.635 463.251V424.828C276.635 416.27 269.701 409.332 261.148 409.332Z" fill="white"/>
<path d="M261.154 408.085H134.204C129.768 408.09 125.514 409.855 122.377 412.994C119.24 416.133 117.476 420.389 117.471 424.828V463.252C117.474 467.691 119.238 471.948 122.375 475.087C125.513 478.226 129.767 479.991 134.204 479.994H261.154C265.591 479.989 269.844 478.224 272.981 475.085C276.118 471.946 277.883 467.69 277.888 463.252V424.828C277.881 420.389 276.116 416.135 272.979 412.996C269.843 409.858 265.59 408.092 261.154 408.085ZM276.641 463.252C276.641 467.361 275.01 471.303 272.105 474.209C269.201 477.115 265.262 478.747 261.154 478.747H134.204C132.17 478.748 130.156 478.348 128.277 477.569C126.397 476.791 124.69 475.649 123.251 474.21C121.813 472.771 120.672 471.063 119.894 469.182C119.116 467.302 118.716 465.287 118.717 463.252V424.828C118.717 420.718 120.349 416.777 123.253 413.871C126.158 410.965 130.097 409.332 134.204 409.332H261.154C265.261 409.334 269.199 410.967 272.103 413.872C275.007 416.778 276.64 420.718 276.641 424.828V463.252Z" fill="#93B4F6"/>
<path d="M329.92 359.234H328.674V471.189H329.92V359.234Z" fill="#274D76"/>
<path d="M355.603 435.296C355.603 433.001 354.692 430.8 353.07 429.176C351.447 427.553 349.247 426.641 346.953 426.641C349.247 426.641 351.447 425.73 353.07 424.106C354.692 422.483 355.603 420.282 355.603 417.986C355.603 415.691 354.692 413.489 353.07 411.866C351.447 410.243 349.247 409.331 346.953 409.331H331.94C334.546 406.124 335.871 402.064 335.659 397.937C335.447 393.809 333.713 389.906 330.793 386.983C330.082 386.273 329.12 385.875 328.116 385.875C327.112 385.875 326.15 386.273 325.439 386.983C325.439 386.983 310.276 399.972 301.495 406.937C295.525 411.682 289.585 416.97 289.585 424.808V463.232C289.585 467.342 291.217 471.283 294.122 474.189C297.026 477.095 300.965 478.728 305.072 478.728H323.582C324.381 478.728 325.179 478.667 325.969 478.547H346.953C349.247 478.547 351.447 477.635 353.07 476.012C354.692 474.389 355.603 472.187 355.603 469.892C355.603 467.596 354.692 465.395 353.07 463.772C351.447 462.149 349.247 461.237 346.953 461.237C349.247 461.237 351.447 460.325 353.07 458.702C354.692 457.079 355.603 454.877 355.603 452.582C355.603 450.286 354.692 448.085 353.07 446.462C351.447 444.838 349.247 443.927 346.953 443.927C349.243 443.927 351.439 443.018 353.061 441.4C354.682 439.783 355.597 437.588 355.603 435.296Z" fill="white"/>
<path d="M356.85 435.297C356.849 433.531 356.376 431.798 355.481 430.276C354.586 428.754 353.301 427.5 351.758 426.642C353.674 425.576 355.182 423.904 356.046 421.888C356.91 419.872 357.08 417.626 356.53 415.503C355.981 413.38 354.742 411.499 353.008 410.157C351.275 408.814 349.145 408.085 346.953 408.084H334.345C336.432 404.652 337.303 400.616 336.818 396.627C336.333 392.639 334.52 388.93 331.672 386.098C330.733 385.161 329.464 384.633 328.138 384.627C326.813 384.621 325.539 385.138 324.592 386.066C323.788 386.759 309.186 399.249 300.716 405.983C294.484 410.972 288.339 416.521 288.339 424.827V463.251C288.342 467.69 290.106 471.947 293.244 475.086C296.381 478.225 300.636 479.99 305.073 479.994H323.582C324.416 479.993 325.25 479.933 326.075 479.813H346.965C349.158 479.812 351.288 479.083 353.021 477.741C354.754 476.398 355.993 474.517 356.543 472.394C357.093 470.271 356.922 468.025 356.059 466.009C355.195 463.993 353.687 462.321 351.771 461.256C353.313 460.398 354.598 459.143 355.493 457.621C356.387 456.1 356.859 454.366 356.859 452.601C356.859 450.835 356.387 449.102 355.493 447.58C354.598 446.058 353.313 444.803 351.771 443.946C353.311 443.088 354.594 441.833 355.487 440.313C356.38 438.792 356.85 437.06 356.85 435.297ZM346.953 443.958C349.247 443.958 351.447 444.87 353.07 446.493C354.692 448.116 355.603 450.318 355.603 452.613C355.603 454.909 354.692 457.11 353.07 458.733C351.447 460.356 349.247 461.268 346.953 461.268C349.247 461.268 351.447 462.18 353.07 463.803C354.692 465.426 355.603 467.628 355.603 469.923C355.603 472.219 354.692 474.42 353.07 476.043C351.447 477.666 349.247 478.578 346.953 478.578H325.969C325.179 478.699 324.381 478.759 323.582 478.759H305.073C300.965 478.759 297.026 477.126 294.122 474.221C291.217 471.315 289.586 467.373 289.586 463.264V424.827C289.586 416.989 295.525 411.701 301.495 406.956C310.276 399.972 325.439 387.002 325.439 387.002C325.791 386.65 326.208 386.371 326.667 386.18C327.127 385.989 327.619 385.891 328.116 385.891C328.613 385.891 329.106 385.989 329.565 386.18C330.024 386.371 330.442 386.65 330.793 387.002C333.713 389.925 335.447 393.828 335.659 397.956C335.871 402.083 334.546 406.143 331.94 409.35H346.953C349.247 409.35 351.447 410.262 353.07 411.885C354.692 413.508 355.603 415.71 355.603 418.005C355.603 420.301 354.692 422.502 353.07 424.125C351.447 425.748 349.247 426.66 346.953 426.66C348.108 426.629 349.258 426.83 350.334 427.251C351.41 427.672 352.391 428.304 353.219 429.111C354.047 429.917 354.705 430.881 355.155 431.947C355.604 433.012 355.835 434.156 355.835 435.312C355.835 436.468 355.604 437.613 355.155 438.678C354.705 439.743 354.047 440.707 353.219 441.514C352.391 442.32 351.41 442.953 350.334 443.374C349.258 443.794 348.108 443.995 346.953 443.964V443.958Z" fill="#93B4F6"/>
<path d="M202.908 475.049C220.025 475.049 233.901 461.165 233.901 444.039C233.901 426.913 220.025 413.029 202.908 413.029C185.791 413.029 171.915 426.913 171.915 444.039C171.915 461.165 185.791 475.049 202.908 475.049Z" fill="#274D76"/>
<path d="M212.333 453.47C217.539 448.262 217.539 439.817 212.333 434.608C207.127 429.399 198.687 429.399 193.481 434.608C188.275 439.816 188.275 448.262 193.481 453.47C198.687 458.679 207.127 458.679 212.333 453.47Z" fill="white"/>
<path d="M202.908 429.454C200.025 429.454 197.207 430.31 194.809 431.912C192.412 433.515 190.544 435.793 189.44 438.458C188.337 441.123 188.048 444.055 188.611 446.885C189.173 449.714 190.562 452.313 192.6 454.353C194.639 456.392 197.236 457.781 200.064 458.344C202.892 458.907 205.823 458.618 208.486 457.514C211.15 456.41 213.427 454.541 215.028 452.142C216.63 449.744 217.485 446.924 217.485 444.039C217.482 440.172 215.945 436.464 213.212 433.73C210.479 430.995 206.773 429.457 202.908 429.454ZM202.908 457.377C200.271 457.377 197.694 456.595 195.502 455.129C193.31 453.664 191.601 451.581 190.592 449.143C189.583 446.706 189.319 444.024 189.833 441.437C190.348 438.85 191.617 436.473 193.482 434.608C195.346 432.743 197.721 431.472 200.307 430.958C202.893 430.443 205.574 430.707 208.009 431.717C210.445 432.726 212.527 434.436 213.992 436.629C215.457 438.822 216.239 441.401 216.239 444.039C216.239 447.577 214.834 450.969 212.334 453.471C209.834 455.972 206.443 457.377 202.908 457.377Z" fill="#93B4F6"/>
<path d="M5.14771 426.585V461.817C5.14689 463.04 5.38696 464.251 5.85419 465.381C6.32143 466.511 7.00666 467.539 7.87076 468.404C8.73486 469.269 9.7609 469.955 10.8902 470.423C12.0195 470.892 13.23 471.133 14.4524 471.133H103.779V404.374H27.3468C21.4592 404.374 15.8128 406.714 11.6497 410.88C7.48654 415.045 5.14771 420.695 5.14771 426.585Z" fill="white"/>
<path d="M27.3468 404.374C21.4592 404.374 15.8128 406.714 11.6497 410.88C7.48654 415.045 5.14771 420.695 5.14771 426.585V461.817C5.14689 463.04 5.38696 464.251 5.85419 465.381C6.32143 466.511 7.00666 467.539 7.87076 468.404C8.73486 469.269 9.7609 469.955 10.8902 470.423C12.0195 470.892 13.23 471.133 14.4524 471.133H103.779V404.374H27.3468ZM102.532 469.886H14.4524C12.3177 469.874 10.2737 469.02 8.76481 467.509C7.2559 465.998 6.40397 463.953 6.39415 461.817V426.585C6.40075 421.027 8.61037 415.699 12.5383 411.769C16.4663 407.839 21.7918 405.628 27.3468 405.621H102.532V469.886Z" fill="#93B4F6"/>
<path d="M331.933 408.708H318.896V409.955H331.933V408.708Z" fill="#93B4F6"/>
<path d="M350.817 425.912H337.274V426.935H350.817V425.912Z" fill="#93B4F6"/>
<path d="M350.817 443.528H337.274V444.551H350.817V443.528Z" fill="#93B4F6"/>
<path d="M350.817 461.149H337.274V462.172H350.817V461.149Z" fill="#93B4F6"/>
<path d="M103.841 359.179H102.594V471.133H103.841V359.179Z" fill="#274D76"/>
<path d="M225.637 329.591H194.575V330.838H225.637V329.591Z" fill="white"/>
<path d="M293.78 401.918H113.619V403.165H293.78V401.918Z" fill="white"/>
<path d="M229.133 179.161V151.937H190.088V179.161C190.088 186.257 184.342 197.625 177.25 197.625L209.427 232.545L241.971 197.625C234.885 197.65 229.133 186.257 229.133 179.161Z" fill="#EC8C92"/>
<path d="M246.415 99.4763C245.179 99.474 243.989 99.0009 243.089 98.1532C242.188 97.3054 241.644 96.1465 241.566 94.9118C240.943 84.7228 236.979 60.5161 214.55 53.8564C212.118 67.698 205.493 80.4571 195.571 90.4052C185.65 100.353 172.912 107.01 159.083 109.472C158.321 111.362 157.929 113.382 157.93 115.421C157.93 119.651 159.61 123.708 162.6 126.7C165.589 129.691 169.644 131.372 173.872 131.372H178.746V141.692C178.746 145.811 179.772 149.865 181.73 153.488C183.689 157.111 186.518 160.189 189.964 162.444L196.613 166.809C200.647 169.447 205.362 170.852 210.181 170.852C215 170.852 219.715 169.447 223.749 166.809L230.461 162.444C233.911 160.186 236.745 157.104 238.706 153.475C240.667 149.846 241.693 145.786 241.691 141.66V131.372H246.427C250.656 131.372 254.71 129.691 257.7 126.7C260.69 123.708 262.369 119.651 262.369 115.421C262.369 113.325 261.957 111.25 261.155 109.315C260.353 107.379 259.177 105.621 257.695 104.14C256.214 102.659 254.455 101.485 252.519 100.685C250.584 99.8844 248.509 99.4739 246.415 99.4763Z" fill="#F2BDBA"/>
<path d="M183.364 129.208C178.443 129.208 173.633 127.748 169.542 125.013C165.45 122.278 162.262 118.39 160.379 113.841C158.496 109.293 158.003 104.288 158.963 99.4592C159.923 94.6305 162.292 90.195 165.772 86.7137C169.251 83.2324 173.684 80.8617 178.51 79.9012C183.336 78.9407 188.339 79.4336 192.885 81.3177C197.431 83.2018 201.316 86.3923 204.05 90.4859C206.784 94.5795 208.243 99.3922 208.243 104.315C208.23 110.913 205.604 117.237 200.941 121.903C196.279 126.568 189.958 129.195 183.364 129.208ZM183.364 80.67C178.69 80.67 174.121 82.0568 170.234 84.655C166.348 87.2532 163.319 90.9461 161.53 95.2668C159.742 99.5874 159.274 104.342 160.185 108.929C161.097 113.515 163.348 117.729 166.653 121.035C169.958 124.342 174.169 126.594 178.753 127.507C183.338 128.419 188.089 127.951 192.408 126.161C196.726 124.371 200.417 121.341 203.014 117.452C205.61 113.564 206.996 108.992 206.996 104.315C206.983 98.0484 204.489 92.0417 200.06 87.6101C195.631 83.1786 189.627 80.6832 183.364 80.67Z" fill="#131314"/>
<path d="M147.117 111.143C142.5 111.145 137.895 110.685 133.369 109.772C133.287 109.755 133.209 109.723 133.14 109.676C133.071 109.63 133.011 109.57 132.965 109.501C132.919 109.431 132.886 109.353 132.87 109.271C132.854 109.19 132.854 109.105 132.87 109.023C132.887 108.941 132.919 108.864 132.966 108.794C133.012 108.725 133.072 108.665 133.141 108.619C133.211 108.573 133.288 108.54 133.37 108.524C133.452 108.508 133.537 108.508 133.618 108.524C144.428 110.699 155.605 110.208 166.183 107.094C176.76 103.98 186.421 98.3361 194.332 90.6505C202.242 82.9648 208.164 73.4681 211.585 62.9804C215.007 52.4928 215.825 41.3294 213.97 30.4544C213.956 30.3733 213.958 30.2902 213.976 30.2098C213.994 30.1294 214.027 30.0534 214.075 29.9862C214.123 29.9189 214.183 29.8618 214.253 29.818C214.322 29.7742 214.4 29.7447 214.481 29.7311C214.644 29.704 214.811 29.7427 214.945 29.8385C215.08 29.9344 215.17 30.0796 215.198 30.2424C216.897 40.1677 216.411 50.3443 213.774 60.0624C211.138 69.7804 206.413 78.8058 199.931 86.5087C193.449 94.2116 185.365 100.407 176.243 104.661C167.121 108.916 157.182 111.128 147.117 111.143Z" fill="white"/>
<path d="M237.584 129.208C232.663 129.208 227.853 127.748 223.762 125.013C219.671 122.278 216.482 118.39 214.599 113.841C212.716 109.293 212.223 104.288 213.183 99.4592C214.143 94.6305 216.513 90.195 219.992 86.7137C223.471 83.2324 227.904 80.8617 232.73 79.9012C237.556 78.9407 242.559 79.4336 247.105 81.3177C251.651 83.2018 255.536 86.3923 258.27 90.4859C261.004 94.5795 262.463 99.3922 262.463 104.315C262.45 110.913 259.824 117.237 255.162 121.903C250.499 126.568 244.178 129.195 237.584 129.208ZM237.584 80.67C232.91 80.67 228.341 82.0568 224.455 84.655C220.568 87.2532 217.539 90.9461 215.75 95.2668C213.962 99.5874 213.494 104.342 214.406 108.929C215.317 113.515 217.568 117.729 220.873 121.035C224.178 124.342 228.389 126.594 232.974 127.507C237.558 128.419 242.31 127.951 246.628 126.161C250.946 124.371 254.637 121.341 257.234 117.452C259.831 113.564 261.217 108.992 261.217 104.315C261.203 98.0484 258.709 92.0417 254.28 87.6101C249.851 83.1786 243.848 80.6832 237.584 80.67Z" fill="#131314"/>
<path d="M234.655 109.105H230.785C230.059 109.105 229.363 108.816 228.85 108.303C228.337 107.789 228.049 107.093 228.049 106.367C228.048 105.753 228.168 105.145 228.402 104.578C228.637 104.011 228.98 103.495 229.414 103.061C229.847 102.626 230.362 102.282 230.929 102.047C231.496 101.811 232.103 101.69 232.717 101.69C233.956 101.69 235.145 102.183 236.022 103.06C236.898 103.937 237.391 105.127 237.391 106.367C237.391 107.093 237.103 107.789 236.59 108.303C236.076 108.816 235.381 109.105 234.655 109.105Z" fill="black"/>
<path d="M190.35 109.105H186.48C185.754 109.105 185.059 108.816 184.545 108.303C184.032 107.789 183.744 107.093 183.744 106.367C183.743 105.753 183.863 105.145 184.098 104.578C184.332 104.011 184.676 103.495 185.109 103.061C185.543 102.626 186.058 102.282 186.624 102.047C187.191 101.811 187.799 101.69 188.412 101.69C189.652 101.69 190.841 102.183 191.717 103.06C192.594 103.937 193.086 105.127 193.086 106.367C193.085 107.093 192.796 107.788 192.283 108.301C191.77 108.814 191.075 109.103 190.35 109.105Z" fill="black"/>
<path d="M209.982 144.934C207.554 144.934 205.187 144.177 203.209 142.769C201.231 141.361 199.741 139.372 198.944 137.077L200.122 136.672C200.834 138.719 202.165 140.493 203.931 141.749C205.697 143.005 207.809 143.68 209.975 143.68C212.142 143.68 214.254 143.005 216.02 141.749C217.785 140.493 219.116 138.719 219.828 136.672L221.006 137.083C220.21 139.375 218.721 141.361 216.745 142.768C214.77 144.175 212.406 144.932 209.982 144.934Z" fill="#131314"/>
<path d="M266.801 316.751L248.727 309.05C245.701 307.758 242.307 307.616 239.183 308.649C236.059 309.682 233.418 311.82 231.757 314.662L231.508 315.092C230.643 316.573 230.09 318.215 229.882 319.918C229.674 321.62 229.815 323.348 230.297 324.994C230.779 326.64 231.591 328.17 232.684 329.491C233.778 330.812 235.129 331.896 236.655 332.677L242.003 335.458C243.654 336.3 245.538 336.568 247.358 336.22C249.178 335.872 250.831 334.928 252.055 333.537L266.801 316.751Z" fill="#EC8C92"/>
<path d="M313.767 308.426C304.599 285.722 291.268 276.388 280.998 272.596C277.126 271.194 272.892 271.16 268.998 272.5C265.105 273.84 261.787 276.473 259.596 279.961C252.479 291.185 241.492 308.95 238.444 316.264C236.138 321.808 239.491 330.744 248.335 330.538C245.948 337.272 255.695 341.868 263.454 339.23C262.469 344.499 271.874 347.031 276.641 344.412C279.944 349.694 292.708 350.224 310.115 330.307C312.683 327.353 314.385 323.745 315.029 319.883C315.674 316.02 315.237 312.055 313.767 308.426Z" fill="#F2BDBA"/>
<path d="M328.883 166.931L269.303 263.451L270.364 264.107L329.943 167.586L328.883 166.931Z" fill="#131314"/>
<path d="M242.314 315.504C232.76 315.504 230.398 312.467 230.398 312.467C224.951 292.875 237.073 259.975 237.073 259.975C246.241 258.186 259.017 267.059 259.017 279.998L259.172 295.469C259.222 303.032 253.719 315.504 242.314 315.504Z" fill="#74BAAB"/>
<path d="M236.419 312.049C229.015 313.92 222.97 309.256 222.92 301.655L222.764 277.286C222.714 269.691 228.678 262.033 236.082 260.175C243.492 258.305 249.531 262.975 249.581 270.57L249.737 294.939C249.793 302.534 243.823 310.197 236.419 312.049Z" fill="#FFF3A1"/>
<path d="M242.626 276.949L229.37 279.961C229.201 280.002 229.024 280.003 228.854 279.962C228.685 279.921 228.527 279.84 228.395 279.726C228.263 279.612 228.161 279.468 228.096 279.306C228.032 279.144 228.007 278.968 228.024 278.795C228.026 278.392 228.159 278.001 228.401 277.68C228.644 277.358 228.984 277.124 229.37 277.011L242.626 274.018C242.796 273.978 242.973 273.978 243.142 274.02C243.311 274.062 243.469 274.143 243.6 274.258C243.732 274.373 243.834 274.517 243.899 274.679C243.964 274.841 243.989 275.017 243.972 275.19C243.964 275.589 243.829 275.974 243.587 276.291C243.345 276.607 243.008 276.837 242.626 276.949Z" fill="#74BAAB"/>
<path d="M242.626 292.501L229.37 295.494C229.2 295.536 229.023 295.536 228.853 295.495C228.682 295.454 228.525 295.373 228.393 295.258C228.261 295.143 228.158 294.998 228.094 294.835C228.03 294.672 228.006 294.496 228.024 294.322C228.028 293.92 228.161 293.53 228.403 293.21C228.646 292.89 228.985 292.657 229.37 292.544L242.626 289.551C242.796 289.509 242.973 289.509 243.144 289.55C243.314 289.591 243.471 289.673 243.603 289.788C243.735 289.903 243.838 290.048 243.902 290.211C243.966 290.373 243.99 290.549 243.972 290.724C243.968 291.125 243.835 291.515 243.593 291.835C243.35 292.155 243.011 292.388 242.626 292.501Z" fill="#74BAAB"/>
<path d="M239.547 275.926C239.547 278.246 237.97 280.484 235.976 280.915C233.982 281.345 232.361 279.83 232.343 277.51C232.324 275.19 233.926 272.952 235.914 272.521C237.902 272.091 239.528 273.6 239.547 275.926Z" fill="#274D76"/>
<path d="M239.547 291.852C239.547 294.172 237.97 296.41 235.976 296.84C233.982 297.271 232.361 295.755 232.343 293.436C232.324 291.116 233.926 288.877 235.914 288.447C237.902 288.017 239.528 289.526 239.547 291.852Z" fill="#274D76"/>
<path d="M153.636 316.751L171.71 309.05C174.736 307.758 178.13 307.616 181.254 308.649C184.378 309.682 187.019 311.82 188.68 314.662L188.935 315.092C189.799 316.574 190.351 318.216 190.559 319.918C190.767 321.62 190.625 323.347 190.144 324.993C189.662 326.639 188.85 328.169 187.757 329.49C186.664 330.811 185.313 331.895 183.788 332.677L178.428 335.458C176.778 336.3 174.895 336.569 173.076 336.221C171.256 335.873 169.605 334.929 168.382 333.537L153.636 316.751Z" fill="#EC8C92"/>
<path d="M252.778 329.727L252.286 328.598C256.901 326.678 260.969 323.644 264.127 319.769L265.093 320.56C261.807 324.586 257.576 327.735 252.778 329.727Z" fill="#131314"/>
<path d="M267.767 337.859L267.143 336.768C271.226 334.452 274.799 331.337 277.651 327.607L278.635 328.368C275.683 332.227 271.987 335.454 267.767 337.859Z" fill="#131314"/>
<path d="M279.801 343.377L279.14 342.317C282.706 340 285.906 337.163 288.632 333.898L289.579 334.709C286.77 338.069 283.474 340.991 279.801 343.377Z" fill="#131314"/>
<path d="M106.396 309.106C115.57 285.91 129.063 276.425 139.427 272.596C143.301 271.2 147.535 271.168 151.429 272.507C155.323 273.847 158.644 276.476 160.841 279.961C167.952 291.185 178.945 308.95 181.987 316.265C184.292 321.808 180.946 330.744 172.096 330.538C174.483 337.272 164.742 341.868 156.977 339.23C157.968 344.499 148.557 347.031 143.796 344.412C140.461 349.737 127.492 350.236 109.843 329.758C107.439 326.959 105.847 323.554 105.24 319.913C104.632 316.273 105.032 312.535 106.396 309.106Z" fill="#F2BDBA"/>
<path d="M91.5217 166.946L90.4614 167.602L148.708 261.889L149.768 261.233L91.5217 166.946Z" fill="#131314"/>
<path d="M178.123 315.504C187.683 315.504 190.045 312.467 190.045 312.467C195.485 292.875 183.37 259.975 183.37 259.975C174.202 258.186 161.426 267.059 161.426 279.998L161.296 295.462C161.215 303.032 166.718 315.504 178.123 315.504Z" fill="#74BAAB"/>
<path d="M184.018 312.049C191.422 313.92 197.467 309.256 197.511 301.655L197.673 277.286C197.717 269.691 191.753 262.033 184.349 260.175C176.945 258.305 170.9 262.975 170.856 270.57L170.694 294.926C170.644 302.534 176.608 310.197 184.018 312.049Z" fill="#FFF3A1"/>
<path d="M166.499 329.222C161.925 327.089 157.925 323.896 154.833 319.906L155.817 319.139C158.788 322.977 162.635 326.048 167.035 328.093L166.499 329.222Z" fill="#131314"/>
<path d="M151.324 337.041C147.165 334.404 143.565 330.973 140.729 326.946L141.745 326.229C144.477 330.115 147.943 333.428 151.947 335.981L151.324 337.041Z" fill="#131314"/>
<path d="M139.128 342.379C136.039 340.152 133.238 337.551 130.789 334.635L131.743 333.824C134.118 336.664 136.84 339.194 139.844 341.357L139.128 342.379Z" fill="#131314"/>
<path d="M187.228 313.084C186.092 313.082 184.962 312.938 183.862 312.654C176.209 310.74 170.021 302.789 170.071 294.926L170.233 270.557C170.233 266.698 171.747 263.43 174.433 261.347C177.119 259.265 180.715 258.61 184.504 259.558C192.158 261.478 198.346 269.423 198.296 277.28L198.134 301.648C198.134 305.502 196.62 308.776 193.934 310.858C192.012 312.333 189.65 313.117 187.228 313.084ZM184.168 311.451C187.577 312.299 190.768 311.744 193.167 309.886C195.567 308.027 196.869 305.115 196.906 301.655L197.069 277.286C197.112 269.971 191.347 262.57 184.218 260.78C180.815 259.926 177.618 260.481 175.218 262.345C172.819 264.21 171.516 267.109 171.479 270.576L171.317 294.926C171.273 302.241 177.038 309.642 184.168 311.432V311.451Z" fill="white"/>
<path d="M200.72 271.655C200.381 270.684 199.671 269.888 198.746 269.44C197.821 268.993 196.756 268.93 195.785 269.267L183.033 273.594C182.474 273.849 182.005 274.268 181.69 274.797C181.375 275.325 181.228 275.936 181.27 276.55C181.27 278.62 182.678 280.622 184.454 281.015C184.83 281.096 185.219 281.096 185.595 281.015C185.863 280.952 198.334 276.587 198.334 276.587C199.303 276.249 200.099 275.54 200.547 274.615C200.994 273.69 201.057 272.626 200.72 271.655Z" fill="#274D76"/>
<path d="M200.721 287.094C200.381 286.124 199.671 285.327 198.746 284.88C197.821 284.432 196.756 284.37 195.785 284.706C195.785 284.706 183.214 288.971 183.034 289.04C182.474 289.293 182.005 289.711 181.69 290.238C181.375 290.765 181.228 291.376 181.27 291.989C181.27 294.066 182.678 296.068 184.455 296.46C184.83 296.541 185.219 296.541 185.595 296.46C185.863 296.398 198.334 292.033 198.334 292.033C198.815 291.866 199.258 291.605 199.638 291.266C200.018 290.928 200.328 290.517 200.55 290.058C200.771 289.6 200.9 289.102 200.93 288.593C200.959 288.085 200.888 287.576 200.721 287.094Z" fill="#274D76"/>
<path d="M257.222 273.488C255.823 269.809 253.398 266.608 250.235 264.266L250.983 263.274C254.339 265.754 256.909 269.149 258.387 273.052L257.222 273.488Z" fill="white"/>
<path d="M162.891 274.436L161.701 274.062C162.912 270.285 165.145 266.919 168.151 264.334L168.974 265.269C166.136 267.702 164.03 270.875 162.891 274.436Z" fill="white"/>
<path d="M233.203 313.084C230.785 313.12 228.425 312.34 226.503 310.871C223.817 308.788 222.321 305.514 222.296 301.661L222.141 277.292C222.091 269.435 228.279 261.491 235.933 259.57C239.715 258.622 243.293 259.258 245.998 261.36C248.702 263.461 250.179 266.71 250.204 270.57L250.36 294.939C250.41 302.789 244.221 310.74 236.568 312.654C235.469 312.938 234.338 313.082 233.203 313.084ZM239.292 260.393C238.262 260.396 237.236 260.526 236.238 260.78C229.102 262.57 223.337 269.971 223.387 277.286L223.543 301.654C223.543 305.115 224.889 308.04 227.282 309.886C229.675 311.731 232.891 312.299 236.288 311.451C243.417 309.661 249.182 302.259 249.132 294.945L248.958 270.607C248.958 267.14 247.612 264.222 245.219 262.376C243.52 261.07 241.433 260.372 239.292 260.393Z" fill="white"/>
<path d="M159.601 109.828C159.455 109.831 159.312 109.783 159.199 109.691C159.085 109.6 159.006 109.472 158.977 109.329C157.925 104.209 158.51 98.8865 160.65 94.1176C162.79 89.3486 166.376 85.3747 170.9 82.7596C175.424 80.1444 180.656 79.0207 185.854 79.5478C191.052 80.0748 195.953 82.2259 199.861 85.696C199.931 85.7471 199.99 85.8124 200.033 85.8876C200.077 85.9628 200.104 86.0464 200.114 86.1328C200.123 86.2193 200.115 86.3068 200.088 86.3896C200.062 86.4725 200.019 86.549 199.961 86.6141C199.903 86.6792 199.833 86.7315 199.754 86.7677C199.674 86.8039 199.589 86.8231 199.502 86.8241C199.415 86.8251 199.329 86.808 199.249 86.7737C199.169 86.7394 199.097 86.6888 199.038 86.6251C195.324 83.3357 190.67 81.2982 185.735 80.8009C180.8 80.3036 175.833 81.3718 171.538 83.8542C167.243 86.3366 163.837 90.1076 161.802 94.6334C159.767 99.1593 159.206 104.211 160.199 109.073C160.215 109.154 160.216 109.236 160.2 109.317C160.184 109.397 160.153 109.474 160.108 109.542C160.063 109.61 160.005 109.669 159.937 109.715C159.869 109.761 159.793 109.793 159.713 109.809C159.676 109.82 159.639 109.826 159.601 109.828Z" fill="white"/>
<path d="M261.347 109.828C261.306 109.834 261.264 109.834 261.223 109.828C261.143 109.812 261.066 109.78 260.998 109.734C260.931 109.688 260.872 109.629 260.827 109.561C260.782 109.493 260.751 109.416 260.735 109.336C260.72 109.255 260.72 109.172 260.737 109.092C261.413 105.763 261.366 102.327 260.599 99.0168C259.832 95.707 258.362 92.601 256.29 89.9094C254.218 87.2179 251.591 85.0037 248.588 83.4171C245.585 81.8305 242.277 80.9086 238.887 80.7139C238.805 80.7094 238.725 80.6888 238.651 80.6533C238.577 80.6178 238.511 80.5681 238.456 80.507C238.401 80.4459 238.359 80.3747 238.332 80.2973C238.305 80.2199 238.293 80.1379 238.298 80.056C238.302 79.9741 238.323 79.8939 238.358 79.82C238.394 79.7461 238.443 79.6799 238.504 79.6251C238.565 79.5704 238.637 79.5283 238.714 79.5011C238.791 79.4739 238.873 79.4623 238.955 79.4668C242.524 79.6714 246.006 80.6415 249.167 82.3112C252.328 83.9809 255.093 86.3113 257.275 89.1441C259.457 91.977 261.004 95.2462 261.812 98.73C262.62 102.214 262.67 105.831 261.958 109.335C261.928 109.475 261.851 109.6 261.74 109.69C261.629 109.78 261.49 109.828 261.347 109.828Z" fill="white"/>
<path d="M166.714 184.855L165.793 185.695L216.229 240.979L217.15 240.139L166.714 184.855Z" fill="#131314"/>
<path d="M175.125 211.861L153.474 211L150.875 173.905L152.122 173.817L154.64 209.803L175.175 210.614L175.125 211.861Z" fill="#131314"/>
<path d="M225.332 250.809L168.375 231.204L171.591 220.716L172.782 221.084L169.915 230.418L225.737 249.63L225.332 250.809Z" fill="#131314"/>
<path d="M238.918 211.861L238.874 210.614L259.409 209.803L261.927 173.817L263.173 173.905L260.575 211L238.918 211.861Z" fill="#131314"/>
<path d="M220.664 239.809L220.259 238.631L244.128 230.418L241.018 220.285L242.215 219.924L245.673 231.204L220.664 239.809Z" fill="#131314"/>
<path d="M251.662 186.629L208.969 232.116L209.878 232.97L252.57 187.482L251.662 186.629Z" fill="#131314"/>
</g>
<defs>
<clipPath id="clip0_1941_169641">
<rect width="460.84" height="480" fill="white"/>
</clipPath>
</defs>
</svg>
