<svg width="522" height="516" viewBox="0 0 522 516" fill="none" xmlns="http://www.w3.org/2000/svg">
<path d="M153.191 435.95C153.191 435.95 167.771 461.932 192.485 455.209C193.416 454.955 194.401 455.148 195.194 455.684C202.129 460.371 215.213 464.159 232.971 456.907C233.93 456.515 235.026 456.612 235.887 457.182C250.081 466.564 270.018 469.802 287.631 455.718C288.162 455.292 288.879 455.182 289.513 455.436C298.875 459.189 304.452 458.962 315.999 454.55C318.005 453.78 319.404 453.484 320.3 453.56C323.12 453.794 329.041 457.959 340.843 454.701C336.762 466.702 305.506 476.077 305.506 476.077L203.136 484.249L148.965 462.695L153.191 435.95Z" fill="#93B4F6"/>
<path d="M63.4403 317.369C31.7157 318.283 28.4481 338.82 28.4412 343.859C28.4274 349.495 30.4886 354.629 35.3211 355.956C41.2152 357.578 43.9657 351.873 40.8843 349.783C36.2173 346.629 37.0583 343.797 39.3746 342.443C42.649 340.539 59.1594 341.879 52.6655 368.768C50.3493 378.37 46.3303 379.696 45.0687 383.917C45.5168 395.388 51.0662 394.529 63.0336 394.529C84.4039 394.529 99.7974 376.315 99.7974 355.007C99.7837 333.707 84.8038 316.757 63.4403 317.369Z" fill="#93B4F6"/>
<path d="M468.135 441.944C480.316 416.959 471.03 388.565 449.812 370.564C436.066 358.907 441.808 346.267 448.454 345.139C452.335 344.48 456.995 349.978 452.162 354.26C450.832 355.436 452.514 358.591 457.477 356.267C461.069 354.583 466.274 344.28 457.602 336.197C449.467 328.609 438.878 327.269 427.697 331.296C408.078 338.369 402.004 357.188 405.361 380.469C407.836 397.652 412.283 467.774 412.283 467.774L448.674 467.156C457.346 460.001 463.62 451.21 468.135 441.944Z" fill="#93B4F6"/>
<path d="M446.797 397.559C450.01 403.085 458.075 401.127 455.849 395.903C452.292 387.531 459.861 385.345 462.584 387.187C470.312 392.404 473.765 411.086 452.23 419.623C441.372 423.926 417.575 424.262 391.49 419.224C380.577 432.998 389.773 497.904 454.125 496.866C521.842 495.78 530.48 422.331 514.293 391.738C504.229 372.719 477.123 360.704 456.993 367.103C446.37 370.471 438.649 383.538 446.797 397.559Z" fill="#93B4F6"/>
<path d="M327.069 439.331C328.054 439.063 328.813 438.672 329.095 438.108C329.936 436.41 326.779 434.857 325.414 431.709C323.815 428.038 325.235 424.196 327.903 422.842C331.501 421.014 337.368 422.32 340.642 426.492C344.123 430.918 354.629 451.229 320.554 468.77C347.653 477.376 367.589 445.923 367.982 437.744C369.278 410.903 350.19 399.466 334.128 400.071C319.155 400.634 313.185 411.996 313.667 423.488C314.053 432.76 322.174 440.679 327.069 439.331Z" fill="#93B4F6"/>
<path d="M123.265 475.307C125.05 475.307 127.304 475.294 129.876 475.245L138.382 490.422C166.998 508.609 187.307 520.177 237.796 501.076C267.487 489.844 274.739 485.989 290.491 484.614C297.805 496.092 314.901 503.385 336.024 505.674L366.948 490.511C366.948 490.511 374.476 455.45 367.093 432.177C352.761 463.224 329.53 464.337 317.679 455.051C316.859 454.405 315.687 454.447 314.943 455.182C295.661 474.166 281.274 467.698 274.56 463.732C273.712 463.231 272.664 463.224 271.788 463.677C243.904 478.249 221.685 466.64 214.93 462.268C213.737 461.492 212.172 461.677 211.166 462.681C208.663 465.162 203.176 469.238 193.835 469.719C186.183 470.118 173.168 464.64 165.585 452.989C148.144 426.19 136.052 385.5 145.607 362.13C149.081 353.635 156.003 350.535 161.566 350.645C168.721 350.789 171.872 356.26 166.288 357.504C162.993 358.24 163.386 364.13 169.983 364.034C178.062 363.917 183.122 355.951 183.122 349.373C183.122 328.698 165.378 316.759 138.334 316.759C106.789 316.759 80.5999 345.868 80.5999 377.794C80.593 409.714 91.7262 475.307 123.265 475.307Z" fill="#93B4F6"/>
<path d="M169.887 510.608C187.514 516.361 207.575 516.87 238.651 505.708C260.339 497.92 272.072 487.596 290.499 484.613C294.111 490.277 300.101 494.916 307.781 498.449L347.895 491.974C347.895 491.974 369.121 458.474 355.981 470.241C344.117 480.86 328.207 474.461 320.727 471.98C319.562 471.595 318.287 471.801 317.287 472.516C303.583 482.317 290.498 484.62 277.931 479.217C276.38 478.551 274.664 478.406 273.388 479.52C257.678 493.212 241.416 487.411 229.889 480.18C228.49 479.3 226.691 479.513 225.464 480.613C202.556 501.205 175.568 485.988 168.564 478.296C167.709 477.362 166.427 476.956 165.179 477.19C143.588 481.142 133.861 465.471 133.861 465.471C126.181 482.778 152.86 500.58 169.887 510.608Z" fill="#93B4F6"/>
<path d="M338.506 478.261C326.759 486.289 305.444 492.18 296.903 492.139C316.439 512.106 369.224 514.36 397.329 507.074C436.651 496.874 448.384 473.34 448.363 447.633C448.301 376.961 382.322 372.026 377.145 353.22C374.759 344.546 378.606 340.938 382.094 339.213C386.1 337.233 390.918 339.467 390.994 341.371C391.091 343.969 386.382 343.976 388.505 348.272C389.588 350.471 392.607 350.794 395.827 349.44C401.073 347.234 403.94 341.57 403.037 335.968C400.452 319.885 387.402 308.997 369.341 308.997C348.812 308.997 330.33 322.984 325.649 342.938C319.466 369.29 347.068 388.522 358.415 414.297C371.816 446.279 351.735 469.216 338.506 478.261Z" fill="#93B4F6"/>
<path d="M94.0356 473.328C144.249 497.584 157.933 524.493 209.456 513.448C149.771 509.29 134.246 458.722 142.353 437.023C145.317 429.077 152.494 423.187 160.435 421.757C163.765 421.159 168.99 421.214 171.575 424.788C172.734 426.396 172.023 428.314 169.962 429.325C168.211 430.184 166.453 431.173 166.584 433.964C166.777 438.122 174.016 440.02 179.11 434.493C183.86 429.345 181.116 415.777 173.464 409.371C163.661 401.171 148.716 399.123 134.715 400.731C100.012 404.711 74.3267 429.943 69.6321 466.585C76.2982 467.472 86.0045 469.451 94.0356 473.328Z" fill="#93B4F6"/>
<path d="M41.3951 452.832C47.1513 449.196 46.5998 443.271 46.1517 441.704C44.9729 437.573 39.2236 437.697 38.031 441.821C37.6863 443.017 36.8591 444.007 35.2253 444.426C29.6138 445.863 27.8628 431.951 35.3218 427.834C47.3167 421.215 63.4686 443.038 42.1327 467.184C64.1097 462.352 89.0647 469.335 109.194 479.439C119.776 467.851 127.283 450.935 127.283 433.6C127.283 397.996 97.2543 369.472 66.0054 367.692C33.5708 365.843 0.212385 387.164 0.681153 419.173C1.16371 452.097 30.2342 459.884 41.3951 452.832Z" fill="#93B4F6"/>
<path d="M273.967 204.489H209.332L210.614 209.534H274.877L273.967 204.489Z" fill="white"/>
<path d="M207.704 41.8574H118.086C116.942 41.8574 115.86 41.3694 115.039 40.4758C114.074 39.4311 113.592 37.9602 113.716 36.4549C113.923 33.953 115.915 31.9941 118.252 31.9941H121.512C122.843 31.9941 124.194 31.8772 125.063 31.0043C125.897 30.1726 126.297 28.6674 126.29 26.4129C126.262 19.5945 128.144 14.2401 131.88 10.5079C137.03 5.35282 144.441 4.58301 148.398 4.58301C152.913 4.58301 155.022 7.60043 157.056 10.5216C159.331 13.7865 161.689 17.1544 167.596 17.1544H176.848C182.859 17.1544 186.63 19.9931 189.856 26.9421L189.946 27.1415C191.835 31.2174 192.896 33.1694 196.288 33.1694H207.504C208.889 33.1694 210.054 33.6437 210.875 34.5304C211.592 35.3139 211.992 36.3656 211.992 37.4997C211.985 39.6648 210.516 41.8574 207.704 41.8574ZM118.245 33.3688C116.625 33.3688 115.232 34.7709 115.088 36.5649C114.991 37.6921 115.343 38.7781 116.053 39.5479C116.611 40.1528 117.335 40.4827 118.086 40.4827H207.704C209.696 40.4827 210.606 38.9362 210.606 37.5065C210.606 36.0356 209.648 34.551 207.504 34.551H196.274C191.848 34.551 190.456 31.5404 188.684 27.7257L188.595 27.5264C185.596 21.0585 182.301 18.536 176.841 18.536H167.59C160.965 18.536 158.283 14.7006 155.919 11.3121C153.913 8.44585 152.182 5.96456 148.391 5.96456C144.648 5.96456 137.65 6.67939 132.852 11.4839C129.385 14.9549 127.641 19.9794 127.668 26.4198C127.675 29.0591 127.145 30.8737 126.042 31.9872C124.814 33.2175 123.063 33.3825 121.512 33.3825H118.245V33.3688Z" fill="black"/>
<path d="M458 258.609H331.605C329.185 258.609 327.165 257.736 325.773 256.08C324.559 254.643 323.891 252.677 323.891 250.553C323.891 246.306 326.69 241.79 331.88 241.79H340.918C341.78 241.79 342.4 241.556 342.821 241.082C344.255 239.439 343.627 234.944 342.841 229.253C342.621 227.672 342.393 226.029 342.186 224.29L342.152 223.974C341.352 217.293 339.684 203.395 353.864 198.329C359.303 196.384 361.999 195.642 366.886 194.288C368.155 193.937 369.575 193.546 371.243 193.078C375.628 191.848 378.854 191.813 381.701 192.975C385.175 194.391 387.981 197.642 390.297 202.914C393.33 209.829 395.819 211.959 399.831 211.052C427.178 204.859 431.542 216.022 435.768 226.82C436.03 227.479 436.285 228.139 436.547 228.799C439.263 235.542 442.551 241.783 448.211 241.783H457.738C463.142 241.783 465.976 246.086 465.976 250.34C465.962 254.327 463.473 258.609 458 258.609ZM331.887 243.165C327.544 243.165 325.276 246.883 325.276 250.553C325.276 252.354 325.828 254.004 326.834 255.2C327.958 256.533 329.612 257.234 331.612 257.234H458.007C462.529 257.234 464.59 253.667 464.59 250.347C464.59 246.89 462.446 243.165 457.731 243.165H448.204C441.724 243.165 438.153 236.511 435.258 229.315C434.996 228.655 434.734 227.988 434.472 227.328C430.273 216.599 426.31 206.468 400.128 212.399C394.682 213.636 391.841 209.897 389.029 203.471C384.507 193.161 378.799 192.391 371.609 194.405C369.94 194.872 368.52 195.264 367.252 195.614C362.233 197.003 359.717 197.697 354.326 199.622C341.18 204.323 342.759 217.486 343.517 223.809L343.558 224.125C343.765 225.851 343.993 227.486 344.213 229.06C345.082 235.336 345.716 239.865 343.869 241.975C343.186 242.759 342.193 243.158 340.925 243.158H331.887V243.165Z" fill="black"/>
<path d="M178.842 271.408H65.1036C63.5319 271.408 62.0084 270.749 60.933 269.608C59.8438 268.446 59.2992 266.927 59.4026 265.332C59.5956 262.349 62.1738 260.012 65.276 260.012H70.8736C73.1485 260.012 74.996 258.17 74.996 255.902V246.809C74.996 241.083 78.9116 236.196 84.5162 234.931L100.31 231.378C106.128 230.065 112.098 232.368 115.524 237.234C117.654 240.265 121.142 242.073 124.858 242.073H140.892C147.255 242.073 152.991 246.08 155.169 252.032C156.913 256.802 161.504 260.012 166.599 260.012H178.677C181.779 260.012 184.357 262.349 184.55 265.332C184.653 266.927 184.109 268.446 183.02 269.608C181.937 270.749 180.414 271.408 178.842 271.408ZM65.276 261.387C62.8977 261.387 60.9261 263.16 60.7813 265.422C60.7055 266.631 61.1122 267.786 61.9395 268.666C62.7667 269.546 63.8903 270.034 65.1036 270.034H178.842C180.055 270.034 181.179 269.546 182.006 268.666C182.833 267.786 183.247 266.631 183.164 265.422C183.02 263.16 181.041 261.387 178.67 261.387H166.592C160.919 261.387 155.803 257.82 153.866 252.507C151.888 247.09 146.669 243.447 140.886 243.447H124.851C120.687 243.447 116.778 241.42 114.386 238.024C111.284 233.612 105.873 231.529 100.606 232.718L84.8126 236.272C79.8423 237.392 76.3679 241.722 76.3679 246.809V255.902C76.3679 258.926 73.8999 261.387 70.8667 261.387H65.276Z" fill="black"/>
<path d="M122.552 459.636L121.277 459.106C124.751 450.838 126.585 442.019 126.585 433.599C126.585 416.966 119.932 400.93 107.862 388.441C96.3698 376.557 81.1004 369.244 65.9619 368.378L66.0446 367.003C81.5209 367.89 97.1281 375.354 108.854 387.486C121.18 400.236 127.963 416.608 127.963 433.599C127.97 442.191 126.095 451.195 122.552 459.636Z" fill="white"/>
<path d="M142.196 465.658C139.038 455.224 138.852 444.433 141.706 436.79C144.712 428.748 152.012 422.582 160.312 421.084L160.56 422.438C152.729 423.847 145.843 429.669 143.002 437.271C140.252 444.646 140.445 455.107 143.519 465.266L142.196 465.658Z" fill="white"/>
<path d="M167.011 405.948C158.587 401.604 147.144 399.996 134.776 401.412C132.295 401.693 129.82 402.099 127.421 402.601L127.138 401.254C129.579 400.738 132.095 400.333 134.625 400.044C147.254 398.594 158.98 400.257 167.645 404.725L167.011 405.948Z" fill="white"/>
<path d="M211.993 489.542L211.538 488.243C216.329 486.566 220.859 483.823 225.009 480.091C226.477 478.772 228.635 478.565 230.262 479.589C233.929 481.892 237.534 483.693 240.967 484.923L240.499 486.215C236.969 484.944 233.281 483.109 229.524 480.751C228.414 480.057 226.939 480.208 225.932 481.115C221.644 484.971 216.957 487.81 211.993 489.542Z" fill="white"/>
<path d="M262.143 486.95L261.702 485.651C265.604 484.331 269.382 482.098 272.939 478.998C274.269 477.843 276.137 477.692 278.206 478.585C281.156 479.85 284.175 480.702 287.188 481.101L287.009 482.462C283.872 482.043 280.722 481.163 277.661 479.85C276.565 479.376 275.007 479.025 273.849 480.035C270.154 483.245 266.211 485.575 262.143 486.95Z" fill="white"/>
<path d="M304.884 480.125L304.387 478.84C308.461 477.279 312.66 474.963 316.879 471.946C318.057 471.1 319.581 470.866 320.932 471.32C321.401 471.478 321.897 471.643 322.428 471.829C325.413 472.846 329.501 474.241 333.92 474.97L333.692 476.324C329.163 475.575 325.006 474.159 321.98 473.128C321.456 472.949 320.96 472.777 320.491 472.626C319.553 472.31 318.499 472.475 317.671 473.066C313.37 476.152 309.068 478.53 304.884 480.125Z" fill="white"/>
<path d="M182.13 487.975C175.353 485.13 170.417 481.343 168.053 478.751C167.37 478.002 166.343 477.665 165.302 477.858C161.076 478.628 156.982 478.71 153.142 478.098L153.362 476.744C157.044 477.329 160.98 477.253 165.054 476.511C166.564 476.229 168.073 476.731 169.08 477.837C171.348 480.325 176.105 483.961 182.667 486.718L182.13 487.975Z" fill="white"/>
<path d="M189.603 510.724C174.512 506.374 161.849 498.002 152.97 486.509L154.059 485.671C162.752 496.93 175.174 505.129 189.982 509.405L189.603 510.724Z" fill="white"/>
<path d="M316.708 488.882L316.294 487.57C325.09 484.807 332.839 481.301 338.119 477.693C342.104 474.971 351.99 467.279 357.828 454.598C363.64 441.972 363.626 428.5 357.78 414.561L359.055 414.031C365.053 428.342 365.06 442.185 359.083 455.175C353.106 468.173 342.979 476.05 338.905 478.834C333.508 482.511 325.628 486.078 316.708 488.882Z" fill="white"/>
<path d="M438.146 483.583L437.043 482.752C444.102 473.417 447.68 461.602 447.667 447.629C447.632 410.086 428.64 391.961 414.356 381.596L415.17 380.482C425.462 387.954 433.114 396.106 438.56 405.419C445.502 417.276 449.031 431.483 449.045 447.629C449.059 461.905 445.392 474.002 438.146 483.583Z" fill="white"/>
<path d="M446.195 397.905C441.438 389.726 441.507 381.058 446.381 374.13L447.512 374.92C442.962 381.395 442.914 389.519 447.388 397.218L446.195 397.905Z" fill="white"/>
<path d="M452.494 420.257L451.984 418.979C464.606 413.975 467.288 405.967 467.756 401.637C468.363 396.076 466.081 390.365 462.207 387.753C461.511 387.285 460.38 387.141 459.263 387.375C458.519 387.533 457.147 387.993 456.292 389.347L455.127 388.619C455.961 387.299 457.326 386.385 458.981 386.034C460.484 385.718 461.979 385.938 462.986 386.619C467.267 389.505 469.797 395.747 469.135 401.795C468.625 406.421 465.792 414.985 452.494 420.257Z" fill="white"/>
<path d="M83.0381 363.567L81.7007 363.237C83.9204 354.288 88.1876 345.696 94.0541 338.396L95.1295 339.256C89.3871 346.397 85.2027 354.803 83.0381 363.567Z" fill="white"/>
<path d="M193.047 470.419C188.807 470.419 183.478 468.817 178.598 466.054L179.28 464.858C184.264 467.683 189.69 469.244 193.798 469.024C198.024 468.804 201.884 467.814 205.255 466.075L205.89 467.298C202.339 469.127 198.3 470.172 193.874 470.398C193.598 470.412 193.323 470.419 193.047 470.419Z" fill="white"/>
<path d="M233.095 470.338C228.29 469.341 223.63 467.719 219.252 465.519L219.873 464.289C224.147 466.434 228.69 468.014 233.371 468.99L233.095 470.338Z" fill="white"/>
<path d="M289.107 468.75C285.067 468.75 281.075 467.802 277.132 465.891L277.732 464.654C287.032 469.156 296.703 468.042 306.479 461.348L307.258 462.482C301.164 466.661 295.09 468.75 289.107 468.75Z" fill="white"/>
<path d="M332.889 460.846C331.365 460.846 329.842 460.715 328.325 460.454L328.559 459.1C337.073 460.585 345.883 457.622 353.363 450.763L354.293 451.773C347.82 457.712 340.361 460.846 332.889 460.846Z" fill="white"/>
<path d="M307.495 92.2541L301.925 87.2228L277.032 94.433L270.51 90.522L240.647 99.4093L233.815 95.4983L219.711 101.994L225.667 102.069L233.057 99.9729L238.496 106.125L268.222 97.2373L268.256 97.2717L273.985 103.389L298.512 96.2132L302.421 101.739L330.127 93.9931C330.747 93.9931 331.037 93.2232 330.568 92.8177L327.507 90.1577C327.211 89.8965 327.197 89.436 327.493 89.1679L330.671 86.2055C331.119 85.7931 330.823 85.0508 330.216 85.0508L307.495 92.2541Z" fill="black"/>
<path d="M300.73 106.123L297.145 98.8996L272.762 106.914L267.875 99.0851L236.833 108.481L232.021 102.721L219.44 102.701L219.323 105.794L231.256 108.027L236.957 116.873L266.579 108.055L272.197 117.142L295.036 109.966L299.179 117.142L326.65 109.258C327.27 109.258 327.56 108.488 327.091 108.082L323.941 104.818C323.644 104.556 323.631 104.096 323.927 103.828L327.202 98.9546C327.65 98.5421 327.353 97.7998 326.747 97.7998L300.73 106.123Z" fill="black"/>
<path d="M231.905 268.51H261.182V380.141H202.207C196.099 380.141 191.149 375.205 191.149 369.116V360.118C191.149 353.754 192.569 347.464 195.306 341.711L231.905 268.51Z" fill="black"/>
<path d="M323.479 375.707C323.479 375.707 313.235 368.957 308.871 366.098C303.288 362.428 301.592 357.637 300.723 352.846L260.009 127.145H165.311L166.414 116.56H112.678L105.674 159.924C104.075 169.815 111.734 178.778 121.784 178.778H187.357C196.429 178.778 204.343 184.915 206.576 193.679L253.784 380.36H322.252C324.865 380.367 325.285 376.69 323.479 375.707Z" fill="#274D76"/>
<path d="M229.524 131.067H205.824V97.2842H212.945L229.524 131.067Z" fill="#EC8C92"/>
<path d="M201.082 95.1484V115.714C201.082 117.349 202.413 118.683 204.06 118.683C212.195 118.683 218.44 112.126 218.516 101.809L218.702 101.685L201.082 95.1484Z" fill="#F2BDBA"/>
<path d="M157.734 123.883L152.095 158.858L153.457 159.077L159.095 124.101L157.734 123.883Z" fill="black"/>
<path d="M223.071 93.7917L203.865 79.3301C202.721 78.4778 201.087 79.2888 201.087 80.7185V95.1526L218.707 101.682L222.843 98.988C223.932 98.28 224.567 96.9947 224.305 95.7231C224.146 94.9808 223.733 94.2866 223.071 93.7917Z" fill="#93B4F6"/>
<path d="M218.516 101.808L201.082 97.223V92.3291L219.716 101.024L218.516 101.808Z" fill="black"/>
<path d="M239.002 127.144H165.316L166.412 116.559H157.664L156.044 127.144L234.99 176.474L239.002 127.144Z" fill="#93B4F6"/>
<path d="M236.797 154.184L238.996 127.145H193.526L236.797 154.184Z" fill="white"/>
<path d="M171.583 126.836L158.651 133.607C153.177 136.473 146.414 134.212 143.781 128.63L137.515 115.365L167.04 105.275C170.556 104.072 174.23 106.608 174.354 110.306L174.713 121.475C174.782 123.716 173.568 125.799 171.583 126.836Z" fill="#EC8C92"/>
<path d="M164.103 93.1602V110.894L204.775 103.573C205.506 103.415 206.023 102.769 206.023 102.02C206.023 101.278 205.506 100.632 204.775 100.467L164.103 93.1602Z" fill="#274D76"/>
<path d="M157.732 126.868C155.795 126.992 150.969 127.315 150.577 123.837C147.647 127.734 137.982 128.449 137.017 123.885C134.914 127.61 126.049 129.246 122.705 123.837C118.404 127.06 114.295 127.053 111.365 126.868C107.298 126.607 103.989 123.575 103.989 119.513V98.1577C103.989 84.5827 115.026 79.2559 128.641 79.2559H149.798C160.524 79.2559 169.224 82.2526 169.224 92.9476V115.41C169.217 121.74 164.067 126.469 157.732 126.868Z" fill="#F2BDBA"/>
<path d="M101.527 120.299C97.0118 120.979 87.533 122.127 87.533 122.127V81.7461C87.533 81.7461 97.0187 82.784 101.527 83.5744C108.055 84.7291 113.536 88.9356 113.536 95.5478V108.319C113.536 114.938 108.083 119.309 101.527 120.299Z" fill="#274D76"/>
<path d="M33.9862 60.3145L33.6484 142.768L74.645 133.633C85.1578 131.303 92.6443 122.01 92.6443 111.267V91.7739C92.6443 81.0308 85.1647 71.738 74.645 69.4079L33.9862 60.3145Z" fill="#93B4F6"/>
<path d="M33.3078 142.788C40.7433 142.788 46.7711 124.314 46.7711 101.527C46.7711 78.7388 40.7433 60.2656 33.3078 60.2656C25.8722 60.2656 19.8445 78.7388 19.8445 101.527C19.8445 124.314 25.8722 142.788 33.3078 142.788Z" fill="#274D76"/>
<path d="M311.188 49.1163H247.905V9.49805H303.04C307.542 9.49805 311.188 13.1341 311.188 17.6224V49.1163Z" fill="#74BAAB"/>
<path d="M311.127 23.5V19.5478C311.127 18.6611 310.411 17.9463 309.521 17.9463C308.632 17.9463 307.915 18.6611 307.915 19.5478V54.987C307.915 62.046 313.651 67.7646 320.73 67.7646H386.578C390.17 67.7646 391.714 63.2282 388.874 61.0424L370.303 46.7664C369.041 45.7973 368.917 43.9346 370.048 42.8142L380.85 32.0505C382.408 30.4971 381.305 27.8508 379.106 27.8508H315.491C313.085 27.8508 311.127 25.9057 311.127 23.5Z" fill="#74BAAB"/>
<path d="M256.92 380.372L248.751 5.27051H245.483V380.372H256.92Z" fill="#FFF3A1"/>
<path d="M245.483 440.92V477.122C249.847 477.596 254.417 476.888 259.029 474.813L258.285 440.927H245.483V440.92Z" fill="#FFF3A1"/>
<path d="M247.01 7.80816C244.845 7.80816 243.094 6.06232 243.094 3.90408C243.094 1.74584 244.845 0 247.01 0C249.175 0 250.926 1.74584 250.926 3.90408C250.926 6.05545 249.175 7.80816 247.01 7.80816Z" fill="#FFF3A1"/>
<path d="M225.152 156.897L222.471 156.134C219.182 155.199 217.28 151.783 218.21 148.505L220.981 138.806C222.236 134.421 226.814 131.885 231.212 133.136L231.887 133.328C235.175 134.263 237.085 137.679 236.147 140.958L232.804 152.649C231.867 155.928 228.44 157.832 225.152 156.897Z" fill="#EC8C92"/>
<path d="M236.665 177.883H316.756C322.574 177.883 327.296 173.175 327.296 167.374V150.129C327.296 134.011 314.191 120.951 298.032 120.951H248.005C234.404 120.951 225.015 129.433 226.917 139.949C223.864 142.767 224.057 149.558 226.869 152.892C224.594 156.72 225.442 163.697 229.11 165.415C227.235 169.141 229.592 177.883 236.665 177.883Z" fill="#F2BDBA"/>
<path d="M298.032 120.951H262.908C270.629 120.951 276.896 127.192 276.896 134.897V168.769C276.896 173.808 272.801 177.89 267.748 177.89H316.762C322.587 177.89 327.302 173.182 327.302 167.381V150.136C327.295 134.011 314.19 120.951 298.032 120.951Z" fill="#274D76"/>
<path d="M33.0892 136.805C38.682 136.805 43.216 121.009 43.216 101.524C43.216 82.039 38.682 66.2432 33.0892 66.2432C27.4963 66.2432 22.9624 82.039 22.9624 101.524C22.9624 121.009 27.4963 136.805 33.0892 136.805Z" fill="black"/>
<path d="M213.169 104.915C212.866 104.551 212.521 104.276 212.128 104.077C211.184 103.589 210.039 103.582 208.84 103.575H208.737L208.75 102.2H208.847C210.157 102.214 211.515 102.221 212.756 102.86C213.314 103.142 213.803 103.541 214.224 104.042L213.169 104.915Z" fill="black"/>
<path d="M205.125 111.946C204.918 111.946 204.711 111.946 204.511 111.946H204.159L204.166 110.571H204.518C206.241 110.585 208.192 110.599 209.123 109.54L210.164 110.447C208.95 111.822 206.979 111.946 205.125 111.946Z" fill="black"/>
<path d="M222.731 126.456H200.561V127.831H222.731V126.456Z" fill="black"/>
<path d="M220.739 132.306H210.24V133.68H220.739V132.306Z" fill="black"/>
<path d="M247.013 8.49376C244.476 8.49376 242.408 6.43175 242.408 3.90234H243.787C243.787 5.67568 245.234 7.11909 247.013 7.11909C248.791 7.11909 250.239 5.67568 250.239 3.90234H251.618C251.618 6.43175 249.557 8.49376 247.013 8.49376Z" fill="black"/>
<path d="M246.17 447.959H244.791V470.772H246.17V447.959Z" fill="black"/>
<path d="M310.703 383.014C310.531 383 310.365 382.993 310.193 382.993H194.469C194.297 382.993 194.124 383 193.959 383.014C189.995 383.302 187.575 387.131 189.009 390.485C191.691 396.754 200.632 417.553 206.354 429.588C207.084 431.127 210.111 436.819 211.034 437.939C215.012 442.785 219.817 443.431 222.65 443.431H247.419H257.256H282.025C284.859 443.431 289.663 442.785 293.641 437.939C294.558 436.819 297.584 431.127 298.322 429.588C304.044 417.553 312.985 396.754 315.666 390.485C317.086 387.131 314.667 383.309 310.703 383.014Z" fill="#93B4F6"/>
<path d="M282.019 442.749H222.644V444.124H282.019V442.749Z" fill="black"/>
<path d="M294.049 432.817H284.274V431.442H294.049V432.817ZM282.654 432.817H270.025V431.442H281.613L293.084 391.357L294.408 391.735L282.654 432.817ZM262.07 432.817H250.199V431.442H260.877L266.654 390.635L268.019 390.827L262.07 432.817ZM242.995 432.817H230.373V431.442H241.375L234.826 390.821L236.184 390.601L242.995 432.817ZM222.417 432.817H210.608V431.442H220.549L208.795 393.116L210.112 392.711L222.417 432.817Z" fill="black"/>
<path d="M32.8829 98.7832C32.8829 107.787 33.9239 115.087 31.3388 115.087C28.7537 115.087 26.658 107.787 26.658 98.7832C26.658 89.779 28.7537 82.4795 31.3388 82.4795C33.9239 82.4726 32.8829 89.779 32.8829 98.7832Z" fill="#74BAAB"/>
<path d="M308.604 21.0947H307.225V56.8226H308.604V21.0947Z" fill="black"/>
<path d="M229.193 138.15L228.435 137.002C233.109 133.923 238.107 130.933 238.155 130.898L238.865 132.074C238.81 132.115 233.847 135.091 229.193 138.15Z" fill="black"/>
<path d="M229.883 151.001L229.159 149.832C233.985 146.877 239.328 143.749 239.383 143.722L240.079 144.904C240.031 144.931 234.695 148.052 229.883 151.001Z" fill="black"/>
<path d="M231.735 164.129L231.06 162.933C234.796 160.823 239.366 158.369 239.408 158.349L240.063 159.558C240.014 159.586 235.458 162.033 231.735 164.129Z" fill="black"/>
<path d="M151.516 122.6L150.323 121.92C151.144 120.49 151.578 118.861 151.578 117.212V106.51H152.957V117.212C152.95 119.095 152.453 120.965 151.516 122.6Z" fill="black"/>
<path d="M138.191 121.885L136.909 121.383C137.336 120.284 137.557 119.122 137.557 117.933V106.427H138.936V117.933C138.936 119.301 138.681 120.627 138.191 121.885Z" fill="black"/>
<path d="M123.648 122.105L122.428 121.458C123.152 120.098 123.531 118.565 123.531 117.018V106.853H124.91V117.018C124.917 118.792 124.482 120.551 123.648 122.105Z" fill="black"/>
<path d="M246.04 27.5693H244.661V114.38H246.04V27.5693Z" fill="black"/>
<path d="M246.04 179.794H244.661V266.605H246.04V179.794Z" fill="black"/>
</svg>
