<svg width="132" height="28" viewBox="0 0 132 28" fill="none" xmlns="http://www.w3.org/2000/svg">
<path d="M56.6195 22.3477H54.8515L46.9557 8.87158V22.3477H45.1396V5.50293H46.9557L54.8034 18.9791V5.50293H56.6195V22.3485V22.3477Z" fill="white"/>
<path d="M70.7179 7.21189H65.7052V22.3485H63.8884V7.21189H58.8994V5.50293H70.7186V7.21189H70.7179Z" fill="white"/>
<path d="M84.0884 10.7003C84.0884 13.2997 82.7323 15.8021 79.3656 15.8499L83.749 22.3477H81.618L77.3307 15.8499H74.7633V22.3477H72.9473V5.50293H79.3412C82.7071 5.50293 84.0877 8.07811 84.0877 10.701L84.0884 10.7003ZM79.1963 14.1417C81.4486 14.1417 82.248 12.4327 82.248 10.7003C82.248 8.96783 81.4486 7.21113 79.2932 7.21113H74.7885V14.1417H79.1971H79.1963Z" fill="white"/>
<path d="M86.2197 14.0235C86.2197 9.23461 89.8046 5.28772 94.358 5.28772C98.9115 5.28772 102.496 9.23461 102.496 14.0235C102.496 18.8124 98.9123 22.7107 94.358 22.7107C89.8038 22.7107 86.2197 18.7881 86.2197 14.0235ZM94.358 20.9063C97.9665 20.9063 100.68 17.8021 100.68 14.0235C100.68 10.2448 97.9673 7.09292 94.358 7.09292C90.7488 7.09292 88.061 10.2456 88.061 14.0235C88.061 17.8014 90.7488 20.9063 94.358 20.9063Z" fill="white"/>
<path d="M117.176 10.7003C117.176 13.3232 115.795 15.8499 112.356 15.8499L107.367 15.8741V22.3477H105.551V5.50293H112.429C115.795 5.50293 117.176 8.07811 117.176 10.701V10.7003ZM112.283 14.1417C114.536 14.1417 115.335 12.4327 115.335 10.7003C115.335 8.96783 114.536 7.21113 112.38 7.21113H107.367V14.1417H112.284H112.283Z" fill="white"/>
<path d="M131.999 5.50293L125.847 15.6824V22.3485H124.03V15.6347L117.928 5.50369H120.083L124.927 13.7817L129.82 5.50369H132L131.999 5.50293Z" fill="white"/>
<path d="M34.5055 20.6153V16.87V15.1769V13.4202V12.3388V7.18688L42.0382 7.21113V5.50293H32.6895V22.3477H42.28V20.6153H34.5055Z" fill="white"/>
<path d="M40.4155 12.9662H34.5059V14.7229H40.4155V12.9662Z" fill="white"/>
<path d="M21.439 7.2345C21.2567 7.74453 20.9081 8.41751 20.5641 8.91996C20.1484 9.527 19.6793 10.1242 19.1729 10.6562C18.7587 11.0912 18.3263 11.5088 17.864 11.8945C17.35 12.3227 16.8039 12.7107 16.2372 13.0707C15.807 13.3435 15.3631 13.5952 14.9062 13.8263C12.7988 14.8903 10.4236 15.5034 7.90206 15.5034C7.67019 15.5034 7.44442 15.4792 7.21484 15.4686V16.8084C7.4429 16.8175 7.67172 16.8259 7.90206 16.8259C10.4008 16.8259 12.7713 16.2787 14.9062 15.3064C15.3615 15.0987 15.8054 14.8721 16.2372 14.6266C16.8 14.3068 17.3439 13.9582 17.864 13.5777C18.3263 13.2405 18.7709 12.882 19.195 12.5008C19.7709 11.984 20.3094 11.4269 20.8089 10.8366C21.2315 10.3371 21.6807 9.64295 21.9874 9.11473C21.9416 8.68048 21.6281 7.62479 21.4382 7.2345H21.439Z" fill="url(#paint0_linear_172_13179)"/>
<path d="M19.7375 4.24402C19.5644 4.72677 19.3638 5.19512 19.135 5.64832C18.8589 6.19549 18.5484 6.72068 18.1976 7.21783C17.9154 7.61798 17.6065 7.9969 17.28 8.36143C16.8857 8.80098 16.4669 9.21704 16.0146 9.59824C15.6417 9.912 15.2527 10.206 14.8446 10.4758C12.8539 11.7915 10.4681 12.5622 7.90304 12.5622C7.67117 12.5622 7.44464 12.5402 7.21582 12.5273V13.8498C7.44464 13.8612 7.67117 13.8847 7.90304 13.8847C10.4582 13.8847 12.847 13.1844 14.9072 11.984C15.3694 11.7149 15.8125 11.4194 16.2381 11.1003C16.7659 10.7055 17.2747 10.2856 17.7407 9.82181C18.1198 9.44364 18.4699 9.03819 18.8032 8.6191C19.2074 8.11058 19.5735 7.57326 19.9046 7.01094C20.1776 6.54637 20.4308 6.06968 20.6482 5.57253C20.3759 5.10721 20.0731 4.66235 19.7375 4.24402Z" fill="url(#paint1_linear_172_13179)"/>
<path d="M17.3187 2.00049C17.2226 2.46657 17.0823 2.91522 16.9198 3.35401C16.7276 3.87466 16.4942 4.37408 16.2181 4.84774C15.9931 5.23349 15.7422 5.60256 15.4668 5.95193C15.132 6.37633 14.7613 6.7689 14.3609 7.13115C14.0207 7.43884 13.6653 7.72985 13.2831 7.98676C11.747 9.01972 9.89511 9.62372 7.90133 9.62372C7.77243 9.62372 7.64658 9.60932 7.51844 9.60478C7.34607 10.0087 7.25454 10.4521 7.23242 10.9128C7.45438 10.9265 7.6748 10.9469 7.90057 10.9469C10.2574 10.9469 12.4365 10.1959 14.2243 8.93181C14.5874 8.67489 14.9322 8.39525 15.2609 8.09665C15.6667 7.72909 16.0503 7.33804 16.3966 6.9144C16.6857 6.56049 16.9458 6.18459 17.1891 5.79657C17.4926 5.31154 17.768 4.80757 17.9937 4.27632C18.1806 3.83373 18.3294 3.37296 18.4567 2.90309C18.096 2.581 17.7199 2.27483 17.3187 2.00125V2.00049Z" fill="url(#paint2_linear_172_13179)"/>
<path d="M22.1864 16.9399V11.0612C22.1864 10.4368 22.1216 9.82897 22.0209 9.23254C21.6578 9.77971 21.265 10.3041 20.8425 10.8036C20.8448 10.89 20.8554 10.9748 20.8554 11.0612V16.9399C20.8554 19.8864 19.5222 22.5253 17.4277 24.3055L18.3689 25.2407C20.7029 23.2187 22.1864 20.251 22.1864 16.9399Z" fill="url(#paint3_linear_172_13179)"/>
<path d="M19.2284 16.9386V12.4666C18.8035 12.8478 18.3589 13.2062 17.8974 13.5435V16.9386C17.8974 19.075 16.8921 20.9803 15.3301 22.2194L16.2781 23.1614C18.0789 21.6775 19.2284 19.4388 19.2284 16.9379V16.9386Z" fill="url(#paint4_linear_172_13179)"/>
<path d="M13.2168 20.1203L14.171 21.0684C15.4424 20.1309 16.2708 18.6334 16.2708 16.9388V14.5925C15.8383 14.8381 15.3944 15.0647 14.9398 15.2723V16.9388C14.9398 18.2658 14.2541 19.4352 13.2176 20.1203H13.2168Z" fill="url(#paint5_linear_172_13179)"/>
<path d="M11.0942 2.9794C8.18443 2.9794 5.63387 4.51026 4.19613 6.79821C3.86968 7.31734 3.6012 7.87361 3.39908 8.4617C3.25416 8.88306 3.14662 9.31959 3.07339 9.769C3.00475 10.1911 2.95898 10.6208 2.95898 11.0619V16.9405C2.95898 19.4597 4.12596 21.712 5.94964 23.1959C7.3523 24.3372 9.14394 25.023 11.0935 25.023C13.043 25.023 14.869 24.3243 16.2777 23.1633L15.3297 22.2213C14.1665 23.1443 12.6952 23.7006 11.0935 23.7006C9.49175 23.7006 8.05629 23.1565 6.89924 22.2523C5.31353 21.0133 4.28994 19.0959 4.28994 16.9405V11.0619C4.28994 10.8035 4.30749 10.5496 4.33647 10.2987C4.38757 9.84933 4.48215 9.41432 4.61792 8.99599C4.81012 8.40183 5.08318 7.84329 5.42412 7.33326C6.64372 5.50835 8.72902 4.30185 11.0942 4.30185C12.1102 4.30185 13.0712 4.53072 13.9377 4.92859C14.2222 4.58453 14.4731 4.21394 14.6951 3.8244C13.6082 3.2886 12.3886 2.97864 11.095 2.97864L11.0942 2.9794Z" fill="white"/>
<path d="M7.24698 15.4349V11.0605C7.24698 10.9984 7.26223 10.9408 7.26528 10.8802C7.2874 10.4194 7.37817 9.97605 7.5513 9.57211C7.9258 8.69679 8.6237 7.99578 9.49092 7.59791C9.82118 7.44634 10.1759 7.34782 10.5488 7.29401C11.3116 7.02194 12.0178 6.63544 12.6494 6.1542C12.1582 6.00036 11.6357 5.91699 11.0926 5.91699C9.52067 5.91699 8.11496 6.61573 7.16536 7.71538C6.73595 8.21253 6.40187 8.79153 6.18755 9.42585C6.04873 9.83736 5.96254 10.2724 5.9328 10.7233C5.92517 10.8355 5.91602 10.9469 5.91602 11.0605V16.9392C5.91602 18.6519 6.76188 20.1646 8.05699 21.0998C8.91049 21.7159 9.95695 22.0827 11.0926 22.0827C12.2284 22.0827 13.3091 21.7031 14.1703 21.0687L13.2161 20.1207C12.6074 20.5231 11.8775 20.7603 11.0926 20.7603C10.3078 20.7603 9.61677 20.5307 9.0165 20.1457C7.95479 19.4651 7.24698 18.2851 7.24698 16.9392V15.4349Z" fill="white"/>
<path d="M17.4276 24.3056C15.7213 25.7569 13.5102 26.6391 11.0931 26.6391C8.67603 26.6391 6.49844 25.7713 4.79679 24.3397C2.68023 22.5596 1.33096 19.9048 1.33096 16.9393V11.0607C1.33096 10.9258 1.34545 10.7947 1.35155 10.6605C1.37672 10.052 1.45452 9.4578 1.58876 8.88259C1.69478 8.42409 1.83512 7.97847 2.00445 7.54725C2.23632 6.95689 2.52387 6.39532 2.86252 5.86709C4.59696 3.16308 7.63414 1.3609 11.0931 1.3609C12.6186 1.3609 14.0578 1.72013 15.3446 2.34308C15.4796 1.91489 15.5718 1.46928 15.6298 1.01305C14.2432 0.392368 12.7101 0.0384521 11.0923 0.0384521C7.27413 0.0384521 3.90059 1.96567 1.90453 4.89174C1.53842 5.4283 1.22494 6.00123 0.957986 6.59918C0.761202 7.03798 0.593402 7.49041 0.455349 7.95725C0.281447 8.5461 0.154833 9.1539 0.0816113 9.77837C0.032034 10.1997 0 10.6264 0 11.0607V16.9393C0 20.2686 1.49952 23.2515 3.85559 25.2742C5.80054 26.9437 8.3267 27.9615 11.0931 27.9615C13.8595 27.9615 16.4185 26.9293 18.368 25.2401L17.4268 24.3049L17.4276 24.3056Z" fill="white"/>
<defs>
<linearGradient id="paint0_linear_172_13179" x1="7.21484" y1="12.0302" x2="21.9881" y2="12.0302" gradientUnits="userSpaceOnUse">
<stop offset="0.13" stop-color="#01A695" stop-opacity="0"/>
<stop offset="0.5" stop-color="#01A695"/>
<stop offset="0.94" stop-color="#CDDFDC"/>
</linearGradient>
<linearGradient id="paint1_linear_172_13179" x1="7.21506" y1="9.06472" x2="20.6475" y2="9.06472" gradientUnits="userSpaceOnUse">
<stop offset="0.14" stop-color="#01A695" stop-opacity="0"/>
<stop offset="0.55" stop-color="#01A695"/>
<stop offset="0.9" stop-color="#CDDFDC"/>
</linearGradient>
<linearGradient id="paint2_linear_172_13179" x1="7.23318" y1="6.47333" x2="18.4575" y2="6.47333" gradientUnits="userSpaceOnUse">
<stop offset="0.18" stop-color="#01A695" stop-opacity="0"/>
<stop offset="0.52" stop-color="#01A695"/>
<stop offset="0.89" stop-color="#CDDFDC"/>
</linearGradient>
<linearGradient id="paint3_linear_172_13179" x1="17.3988" y1="13.6016" x2="24.7112" y2="23.6885" gradientUnits="userSpaceOnUse">
<stop offset="0.15" stop-color="#01A695" stop-opacity="0"/>
<stop offset="0.29" stop-color="#01A695" stop-opacity="0.97"/>
<stop offset="0.48" stop-color="white"/>
</linearGradient>
<linearGradient id="paint4_linear_172_13179" x1="14.7946" y1="13.905" x2="21.0189" y2="22.6308" gradientUnits="userSpaceOnUse">
<stop offset="0.27" stop-color="#01A695" stop-opacity="0"/>
<stop offset="0.42" stop-color="#01A695" stop-opacity="0.97"/>
<stop offset="0.58" stop-color="white"/>
</linearGradient>
<linearGradient id="paint5_linear_172_13179" x1="13.9971" y1="15.7528" x2="16.7042" y2="21.6432" gradientUnits="userSpaceOnUse">
<stop offset="0.24" stop-color="#01A695" stop-opacity="0"/>
<stop offset="0.41" stop-color="#01A695" stop-opacity="0.97"/>
<stop offset="0.6" stop-color="white"/>
</linearGradient>
</defs>
</svg>
