<svg width="769" height="378" viewBox="0 0 769 378" fill="none" xmlns="http://www.w3.org/2000/svg">
<path d="M476.011 168.274C473.692 160.488 467.678 154.54 456.566 156.051L403.461 163.141C397.081 163.793 394.656 157.486 400.632 155.79L444.795 142.665C461.846 138.054 467.946 127.521 468.207 115.335C468.381 107.052 461.939 100.036 453.855 99.694C444.105 99.2839 430.909 105.038 401.496 109.214C396.783 109.885 395.695 108.276 396.746 105.206C399.569 96.91 422.987 92.8149 434 91.8268C447.239 90.6399 448.028 81.8965 449.471 77.7952C453.836 65.4103 449.564 18.7541 446.959 4.46764C446.374 1.26112 443.309 -0.441583 438.782 0.0990523C423.261 1.96331 375.174 30.3187 356.917 40.9885C352.098 43.8035 348.945 50.6888 354.268 65.5283C357.899 75.645 356.395 87.1227 352.44 92.2121C349.573 95.8971 345.892 95.0831 344.729 91.0935C341.017 78.3917 336.701 66.069 336.701 66.069C334.462 57.8724 324.053 55.48 315.596 59.2023C308.395 62.3715 305.41 63.2539 297.619 67.3926C284.392 74.4271 279.131 86.6566 284.672 97.6495L304.826 137.619C306.971 141.87 298.383 144.529 295.374 140.546L267.565 103.752C263.219 97.4817 250.993 96.6925 245.055 102.279C241.753 105.386 235.87 113.639 233.165 117.249C226.505 126.135 228.788 133.307 234.477 142.845L256.484 179.186C260.346 186.053 255.017 188.644 252.79 186.053C244.738 176.663 229.571 156.032 229.571 156.032C225.411 150.234 216.444 151.502 214.062 158.226C211.357 165.857 207.272 177.893 206.439 180.249L238.967 358.366L472.125 356.719L478.368 176.881C477.64 173.985 476.857 171.12 476.011 168.274Z" fill="#74BAAB"/>
<path d="M261.307 275.644C258.807 275.75 257.719 273.83 259.764 272.394C261.083 271.474 262.152 270.685 262.532 270.319C266.381 266.559 266.474 263.104 265.535 259.282C262.93 248.687 256.655 238.738 252.427 234.562C249.784 231.952 245.332 232.288 242.813 235.016L242.117 235.768C240.568 237.445 237.938 235.407 239.176 233.493L245.201 224.147C246.762 221.724 247.079 218.691 246.041 216C235.413 188.614 223.493 179.231 212.779 172.501C208.258 169.661 202.282 172.004 200.957 177.174L192.519 210.041C191.537 213.869 185.841 212.837 186.263 208.91L190.019 173.992C190.374 170.183 189.603 165.715 186.375 163.658C178.783 158.817 164.555 155.977 153.113 155.412C150.234 155.269 147.828 157.568 147.877 160.452L148.369 188.21C148.238 192.803 142.331 191.784 141.56 187.253L136.299 160.004C135.31 156.325 132.618 153.647 128.868 152.945C112.141 149.788 95.7365 148.999 85.215 150.391C77.2866 151.435 75.589 159.495 76.8389 165.33L82.5225 192.691C83.7786 196.811 85.3642 198.762 89.5989 199.539L118.632 204.585C123.29 204.976 123.445 209.233 118.825 209.923C105.512 211.911 92.7392 213.571 84.5621 215.087C82.025 215.559 80.1097 217.672 79.917 220.245C79.5003 225.775 78.4743 231.933 83.0696 237.197C87.9324 242.759 111.724 245.406 133.967 249.868C137.244 250.526 137.661 253.23 134.433 254.1C134.433 254.1 105.742 258.275 96.0101 263.582C89.4124 267.174 88.946 270.524 89.2942 277.397C89.5057 281.504 90.4011 288.153 91.2593 293.846C92.2045 300.128 97.3719 304.925 103.715 305.392C103.715 305.392 129.023 307.026 137.232 309.406C142.691 310.991 138.376 314.557 135.634 315.894C128.339 319.442 114.504 326.433 114.504 326.433C107.924 329.521 105.164 336.469 105.132 343.733C105.114 348.655 105.891 358.473 105.891 358.473H270.97C270.97 358.473 277.126 319.721 269.907 279.528C269.471 277.117 267.314 275.408 264.87 275.514L261.307 275.644Z" fill="#93B4F6"/>
<path d="M145.17 346.492C141.146 331.603 197.808 315.135 207.179 357.902C197.012 357.92 202.758 357.902 190.023 357.902C170.441 345.74 148.098 357.342 145.17 346.492Z" fill="#274D76"/>
<path d="M81.9663 339.797L80.7537 339.53C82.0906 333.459 81.9787 330.837 81.6554 329.712C81.2698 328.382 80.648 327.605 79.8023 327.413C78.6767 327.152 77.1035 327.941 75.7044 329.469C74.4048 330.892 72.7818 331.421 71.3578 330.874C69.9275 330.327 69.0259 328.836 69.0072 326.978C68.9139 317.296 67.0298 309.733 63.2428 303.848C62.167 302.177 60.5813 301.176 59.3003 301.363C58.492 301.481 57.9074 302.071 57.6152 303.078C57.3416 304.004 56.1601 306.974 52.2674 306.222C48.2503 305.445 44.6872 298.908 42.7719 295.397C42.4859 294.875 42.2558 294.446 42.0755 294.142C40.8007 291.985 39.128 291.091 37.2376 291.544C33.7615 292.377 30.4409 297.33 30.1362 302.139C30.0056 304.215 30.0554 306.887 30.273 309.286L29.0355 309.398C28.8117 306.937 28.7619 304.196 28.8987 302.059C29.2408 296.665 32.9283 291.296 36.9515 290.332C39.3891 289.748 41.5904 290.873 43.1512 293.508C43.3378 293.825 43.5803 294.266 43.8726 294.807C45.5578 297.901 49.0711 304.345 52.5161 305.01C55.19 305.526 56.1165 303.805 56.4337 302.736C56.869 301.251 57.8328 300.325 59.1387 300.138C60.9171 299.877 62.9443 301.077 64.2999 303.183C68.2175 309.267 70.1638 317.047 70.2633 326.971C70.2758 328.307 70.8727 329.358 71.8117 329.718C72.7507 330.078 73.8389 329.687 74.7965 328.637C76.5252 326.741 78.5089 325.834 80.0946 326.207C80.9962 326.418 82.215 327.139 82.8617 329.37C83.3779 331.203 83.0794 334.714 81.9663 339.797Z" fill="black"/>
<path d="M63.0216 353.259C62.3997 330.056 53.7189 312.855 53.6318 312.681L54.7387 312.115C54.8258 312.289 63.6372 329.726 64.2652 353.228L63.0216 353.259Z" fill="black"/>
<path d="M82.1387 358.608C81.8962 358.608 81.6599 358.608 81.4112 358.602L81.4298 357.359C88.7178 357.477 94.1277 355.856 96.6088 352.792C97.9955 351.083 98.4184 348.976 97.8587 346.534C97.1872 343.595 95.247 341.457 92.2498 340.357C86.79 338.35 78.532 340.096 72.6184 344.508C65.5294 349.797 61.4627 358.254 61.4253 358.341L60.2998 357.807C60.4677 357.446 64.5407 348.983 71.8722 343.514C78.2025 338.791 86.7589 337.014 92.6788 339.195C96.0927 340.451 98.3003 342.893 99.0713 346.267C99.7118 349.063 99.1895 351.593 97.5727 353.587C94.9423 356.831 89.4701 358.608 82.1387 358.608Z" fill="black"/>
<path d="M60.2454 358.137C59.008 346.671 55.9983 339.469 53.685 335.442C51.1915 331.092 48.9591 329.421 48.9342 329.402C48.2999 328.948 47.7838 328.75 47.4791 328.843C47.0687 328.973 46.7951 329.75 46.5526 330.427C46.2541 331.279 45.9681 332.08 45.2592 332.36C44.8736 332.509 44.4508 332.466 44.003 332.223C42.9895 331.683 42.6288 330.558 42.094 328.849C41.1364 325.823 39.5383 320.758 32.7354 313.282C30.8636 311.226 24.3095 304.62 18.6881 306.062C17.2019 306.441 16.1386 307.404 15.8463 308.628C15.5292 309.933 14.3539 310.778 13.0418 310.629C11.1763 310.418 6.5312 310.188 3.75159 312.475C2.43329 313.562 1.68709 315.103 1.53163 317.061C1.00928 323.623 9.46004 326.537 16.2567 328.88C19.6395 330.042 22.5559 331.049 23.7747 332.354C24.3717 332.988 24.4028 333.615 24.3219 334.025C23.9986 335.722 21.163 337.07 18.8871 338.152C18.0725 338.537 17.3076 338.904 16.9656 339.152C15.9458 339.892 14.9073 341.246 15.3488 342.638C15.6846 343.72 17.4879 346.261 26.8466 346.448C35.2725 346.622 40.3342 349.636 43.0952 352.134C46.1173 354.868 47.1122 357.552 47.1558 357.664L45.9867 358.087C45.9494 357.987 42.1127 347.995 26.8217 347.684C17.5066 347.492 14.7954 345.031 14.1611 342.999C13.6388 341.333 14.4534 339.419 16.2381 338.133C16.6733 337.822 17.4133 337.468 18.3585 337.021C20.0561 336.213 22.9041 334.858 23.1031 333.783C23.128 333.653 23.1218 333.466 22.8668 333.193C21.8595 332.111 18.943 331.111 15.8525 330.042C9.03097 327.693 -0.309023 324.474 0.294158 316.949C0.480709 314.643 1.37616 312.816 2.96184 311.505C5.9964 309.001 10.6664 309.1 13.1786 309.38C13.8564 309.461 14.472 309.013 14.6399 308.324C15.0441 306.64 16.4433 305.341 18.3834 304.844C20.4168 304.322 25.9947 304.017 33.6557 312.431C40.6451 320.112 42.2992 325.338 43.2817 328.464C43.7419 329.924 44.0217 330.813 44.5938 331.111C44.7368 331.186 44.8052 331.192 44.8176 331.186C44.998 331.117 45.2529 330.39 45.3897 329.999C45.7255 329.042 46.1111 327.954 47.1185 327.637C47.8336 327.414 48.6668 327.656 49.6742 328.377C50.0597 328.656 59.0577 335.442 61.4891 357.981L60.2454 358.137Z" fill="black"/>
<path d="M65.8025 358.527L64.9568 357.62C75.3663 347.926 87.0755 344.875 87.1936 344.844L87.4983 346.049C87.3864 346.074 75.9695 349.057 65.8025 358.527Z" fill="black"/>
<path d="M51.4353 357.982C51.4166 338.6 20.3807 318.534 20.0698 318.335L20.7414 317.285C20.8222 317.335 28.7942 322.462 36.6542 329.968C47.2814 340.11 52.6727 349.537 52.6789 357.982H51.4353Z" fill="black"/>
<path d="M619.71 92.958H478.08C475.412 92.958 473.193 91.9948 471.663 90.174C470.326 88.5832 469.586 86.4144 469.586 84.0592C469.586 79.3613 472.67 74.3713 478.391 74.3713H488.515C489.528 74.3713 490.262 74.0917 490.759 73.52C492.414 71.6246 491.705 66.5476 490.815 60.1159C490.567 58.3387 490.312 56.4993 490.082 54.548L490.038 54.1938C489.143 46.7306 487.283 31.2013 503.059 25.5464C509.147 23.3652 512.163 22.5262 517.641 21.0162C519.065 20.6247 520.657 20.1835 522.523 19.6553C527.404 18.2819 530.986 18.2447 534.145 19.5372C537.994 21.1094 541.122 24.7385 543.696 30.6234C547.129 38.4719 549.971 40.8892 554.547 39.8514C585.061 32.9226 589.93 45.4007 594.637 57.4687C594.929 58.2144 595.216 58.9539 595.514 59.6934C598.573 67.3182 602.292 74.3713 608.722 74.3713H619.399C625.362 74.3713 628.478 79.1314 628.478 83.8293C628.478 88.229 625.735 92.958 619.71 92.958ZM478.391 75.6204C473.429 75.6204 470.83 79.8709 470.83 84.0655C470.83 86.1224 471.464 88.0115 472.614 89.3786C473.901 90.9073 475.792 91.7213 478.08 91.7213H619.71C624.883 91.7213 627.234 87.6324 627.234 83.8355C627.234 79.8771 624.784 75.6204 619.399 75.6204H608.722C601.546 75.6204 597.578 68.1882 594.357 60.1594C594.059 59.42 593.767 58.6743 593.474 57.9285C591.217 52.1431 588.879 46.1526 583.525 42.5919C577.475 38.5589 568.079 38.0617 554.815 41.0756C548.82 42.4365 545.674 38.2792 542.546 31.1329C537.434 19.4502 530.974 18.5802 522.852 20.8671C520.987 21.3891 519.389 21.8365 517.965 22.228C512.343 23.7815 509.52 24.5645 503.47 26.7333C488.627 32.0526 490.405 46.917 491.263 54.0633L491.307 54.4175C491.537 56.3563 491.792 58.1895 492.034 59.9668C493.004 66.9702 493.707 72.0348 491.686 74.3527C490.946 75.1978 489.876 75.6266 488.502 75.6266H478.391V75.6204Z" fill="black"/>
<path d="M207.665 106.431H93.682C91.518 106.431 89.7147 105.766 88.4586 104.517C87.3393 103.399 86.7236 101.87 86.7236 100.211C86.7236 96.936 89.2483 93.4561 93.9307 93.4561H102.077C102.954 93.4561 103.563 93.2386 103.936 92.7974C105.037 91.5048 104.465 88.056 103.806 84.0602C103.607 82.8547 103.401 81.6118 103.215 80.2882L103.184 80.0459C102.456 74.9316 100.945 64.2991 113.774 60.4276C118.68 58.9487 121.111 58.3832 125.52 57.3578C126.664 57.0906 127.945 56.7923 129.438 56.4381C135.556 54.9902 141.874 54.897 146.575 63.9387C148.976 68.5434 151.059 70.8923 155.213 70.0969C179.825 65.399 183.767 73.8938 187.579 82.109C187.816 82.6123 188.046 83.1157 188.282 83.6128C190.72 88.7271 193.686 93.4561 198.816 93.4561H207.403C212.279 93.4561 214.834 96.7745 214.834 100.056C214.847 103.125 212.602 106.431 207.665 106.431ZM93.937 94.6989C90.0256 94.6989 87.9735 97.4705 87.9735 100.211C87.9735 101.535 88.4586 102.753 89.3416 103.635C90.3552 104.648 91.86 105.188 93.682 105.188H207.665C211.744 105.188 213.603 102.529 213.603 100.056C213.603 97.4767 211.669 94.6989 207.416 94.6989H198.828C193.008 94.6989 189.787 89.6282 187.169 84.1472C186.933 83.6439 186.696 83.1405 186.46 82.6372C182.679 74.4966 179.116 66.8034 155.449 71.3211C150.58 72.2533 148.024 69.4072 145.475 64.5104C141.402 56.6867 136.228 56.1088 129.724 57.6437C128.225 57.9979 126.944 58.2962 125.8 58.5634C121.273 59.6198 118.997 60.148 114.128 61.6146C102.319 65.1753 103.681 74.7327 104.409 79.8656L104.446 80.108C104.633 81.4192 104.838 82.6558 105.031 83.8552C105.795 88.5034 106.349 91.8653 104.881 93.599C104.259 94.3261 103.314 94.6989 102.071 94.6989H93.937Z" fill="black"/>
<path d="M768.8 357.359H6.87024V358.602H768.8V357.359Z" fill="black"/>
<path d="M208.24 357.387H414.21V272.887C414.21 272.887 258.577 324.85 206.548 341.032C195.622 344.431 195.43 357.387 208.24 357.387Z" fill="#EC8C92"/>
<path d="M672.046 309.902L715.525 339.053C721.831 339.053 726.277 332.876 724.262 326.904L690.932 227.844C687.194 216.726 675.075 210.817 664.006 214.701L578.497 244.721C487.504 280.646 567.584 336.02 582.682 330.111L650.96 303.396C658.646 300.394 667.395 303.091 672.046 309.902Z" fill="#EC8C92"/>
<path d="M690.944 227.838C687.207 216.721 675.088 210.811 664.019 214.695L593.123 239.589C602.463 253.707 613.706 288.749 618.463 316.117L650.973 303.396C658.659 300.388 667.402 303.085 672.059 309.896L694.949 329.396C696.765 331.739 715.538 339.047 715.538 339.047C721.843 339.047 726.29 332.87 724.275 326.898L690.944 227.838Z" fill="#FFF3A1"/>
<path d="M369.645 262.015L466.683 338.593L458.804 357.384H516.125C521.211 357.384 526.783 357.384 530.738 357.384H548.249C569.69 357.384 587.07 340.016 587.07 318.589V216.763C587.07 175.476 555.363 169.423 525.477 157.697L369.645 244.932V262.015Z" fill="#274D76"/>
<path d="M278.241 351.968H276.998C276.998 348.668 278.191 345.48 280.355 342.988L287.022 335.326L287.96 336.14L281.294 343.802C279.329 346.064 278.241 348.966 278.241 351.968Z" fill="black"/>
<path d="M258.069 351.966H256.825C256.825 349.114 257.422 345.224 260.264 342.912C265.033 339.028 276.892 329.769 277.01 329.676L277.775 330.658C277.656 330.751 265.804 340.004 261.047 343.881C258.585 345.882 258.069 349.381 258.069 351.966Z" fill="black"/>
<path d="M231.727 351.966H230.484C230.484 348.704 230.484 344.652 237.355 341.228C243.928 337.96 261.233 329.682 261.408 329.602L261.942 330.72C261.768 330.801 244.475 339.072 237.908 342.341C231.727 345.417 231.727 348.897 231.727 351.966Z" fill="black"/>
<path d="M724.271 326.899L717.431 306.572L715.217 299.991L711.399 288.644L708.7 280.628L690.934 227.832C687.589 217.883 677.528 212.11 667.516 213.794L691.077 276.762C682.602 275.402 672.907 274.581 662.921 275.184C658.549 253.366 650.944 234.027 645.149 221.313L634.484 225.06C642.145 241.801 653.643 271.636 655.073 302.34C659.009 301.812 662.983 302.632 666.359 304.608C666.192 298.425 665.651 292.292 664.811 286.289C672.92 285.904 680.873 286.556 687.999 287.637C692.694 288.352 696.624 291.577 698.285 296.026L699.447 299.127C686.376 302.993 678.243 308.07 673.573 311.86L680.413 320.684C681.974 319.392 684.194 317.782 687.228 316.092C690.568 314.234 695.25 312.103 701.518 310.176C702.557 309.859 703.67 310.4 704.049 311.419L705.23 314.576C707.917 321.753 702.606 329.397 694.939 329.397L715.528 339.047C721.834 339.047 726.28 332.871 724.271 326.899Z" fill="#274D76"/>
<path d="M687.961 328.242L707.686 353.676C709.502 356.019 712.306 357.392 715.272 357.392H731.44C737.746 357.392 742.192 351.209 740.177 345.244L706.847 246.183C703.109 235.066 690.99 229.156 679.921 233.04L594.412 263.061C590.824 264.322 587.062 261.656 587.062 257.86V195.165C587.062 172.197 568.78 153.051 545.797 152.753C522.447 152.448 503.419 171.277 503.419 194.543V327.974C503.419 344.218 516.596 357.392 532.857 357.392H551.226C567.437 357.392 583.505 354.36 598.597 348.456L666.875 321.742C674.561 318.734 683.31 321.425 687.961 328.242Z" fill="#274D76"/>
<path d="M327.438 308.797L307.533 305.653C302.136 304.802 296.893 307.921 295.078 313.073L289.543 328.757C289.481 328.938 289.425 329.118 289.369 329.298C287.895 334.537 292.08 339.676 297.521 339.651L319.628 339.545L327.438 308.797Z" fill="#F2BDBA"/>
<path d="M706.852 246.176C703.115 235.058 690.995 229.149 679.927 233.033L594.418 263.053C591.52 264.072 588.51 262.525 587.459 259.89L578.175 276.271L521.209 354.98C524.785 356.521 528.721 357.379 532.856 357.379H551.225C567.436 357.379 583.505 354.346 598.597 348.443L666.874 321.728C674.56 318.72 683.303 321.417 687.961 328.228L707.685 353.663C709.501 356.005 712.306 357.379 715.272 357.379H731.44C737.745 357.379 742.191 351.196 740.176 345.23L706.852 246.176Z" fill="#F2BDBA"/>
<path d="M460.348 198.905L459.857 198.812C440.866 195.195 422.534 207.655 418.915 226.633L407.38 289.763C406.298 295.443 401.858 299.886 396.174 300.973C396.174 300.973 319.763 313.737 307.413 315.049C298.378 316.006 296.631 324.159 301.705 331.311C298.011 334.269 298.9 344.318 305.119 347.077C302.028 353.086 306.188 360.102 311.723 362.407C307.015 369.379 316.878 378.638 328.431 377.203C356.507 373.717 418.567 366.111 449.659 361.288C459.738 359.722 467.095 350.488 469.041 340.26L488.187 239.82C491.807 220.841 479.345 202.522 460.348 198.905Z" fill="#F2BDBA"/>
<path d="M546.755 263.229C545.344 263.229 543.938 262.894 542.651 262.223L527.404 254.25C522.373 251.621 519.245 246.457 519.245 240.784V203.505C519.245 199.453 522.547 196.153 526.601 196.153H566.909C570.963 196.153 574.265 199.453 574.265 203.505V240.784C574.265 246.457 571.137 251.621 566.107 254.25L550.853 262.223C549.572 262.894 548.161 263.229 546.755 263.229ZM526.601 197.39C523.231 197.39 520.489 200.13 520.489 203.499V240.777C520.489 245.991 523.362 250.726 527.982 253.144L543.229 261.117C545.437 262.272 548.073 262.272 550.281 261.117L565.535 253.144C570.155 250.726 573.028 245.991 573.028 240.777V203.499C573.028 200.13 570.285 197.39 566.915 197.39H526.601Z" fill="white"/>
<path d="M546.942 229.368C545.337 229.368 543.839 228.579 542.937 227.262C539.125 221.7 532.826 218.382 526.092 218.382H519.245V203.505C519.245 199.453 522.547 196.153 526.601 196.153H566.909C570.963 196.153 574.265 199.453 574.265 203.505V218.382H567.792C561.057 218.382 554.758 221.7 550.946 227.262C550.038 228.579 548.54 229.368 546.942 229.368ZM520.483 217.132H526.085C533.23 217.132 539.909 220.656 543.957 226.553C544.641 227.547 545.723 228.119 546.935 228.119C548.148 228.119 549.23 227.547 549.914 226.553C553.956 220.656 560.641 217.132 567.786 217.132H573.015V203.499C573.015 200.13 570.273 197.39 566.903 197.39H526.595C523.225 197.39 520.483 200.13 520.483 203.499V217.132Z" fill="white"/>
<path d="M546.779 222.755C544.224 222.755 542.153 220.685 542.153 218.131C542.153 215.577 544.224 213.508 546.779 213.508C549.335 213.508 551.406 215.577 551.406 218.131C551.406 220.679 549.335 222.755 546.779 222.755Z" fill="#FDFDFF"/>
<path d="M556.064 259.61L554.845 259.374C556.213 252.383 557.028 242.533 557.028 233.026C557.028 229.036 556.885 225.096 556.611 221.312L557.848 221.219C558.128 225.034 558.271 229.005 558.271 233.026C558.265 242.602 557.438 252.538 556.064 259.61Z" fill="white"/>
<path d="M538.764 260.301C537.296 253.105 536.419 242.908 536.419 233.021C536.419 229.243 536.544 225.502 536.792 221.897L538.036 221.984C537.787 225.558 537.663 229.274 537.663 233.027C537.663 242.839 538.527 252.944 539.982 260.059L538.764 260.301Z" fill="white"/>
<path d="M706.857 246.176C703.12 235.058 691 229.149 679.932 233.033L597.495 261.978C609.788 278.676 622.909 315.159 625.969 337.742L666.885 321.734C674.571 318.726 683.314 321.423 687.972 328.234L707.696 353.669C709.512 356.012 712.317 357.385 715.283 357.385H731.451C737.756 357.385 742.202 351.202 740.187 345.236L706.857 246.176Z" fill="#FFF3A1"/>
<path d="M740.182 345.237L733.342 324.911L731.129 318.33L727.311 306.983L724.612 298.967L706.846 246.171C703.5 236.222 693.439 230.449 683.427 232.133L706.989 295.101C698.513 293.74 688.819 292.92 678.832 293.523C674.461 271.705 666.856 252.366 661.06 239.652L650.396 243.399C658.057 260.14 669.554 289.975 670.985 320.679C674.921 320.151 678.894 320.971 682.271 322.947C682.103 316.764 681.562 310.631 680.722 304.628C688.831 304.242 696.785 304.895 703.911 305.976C708.606 306.691 712.536 309.916 714.196 314.365L715.359 317.466C702.288 321.331 694.154 326.409 689.484 330.199L696.324 339.023C697.885 337.731 700.105 336.121 703.14 334.437C706.479 332.579 711.161 330.448 717.43 328.521C718.468 328.204 719.581 328.745 719.96 329.764L721.142 332.921C723.828 340.098 718.518 347.742 710.851 347.742H703.084L707.685 353.676C709.501 356.019 712.306 357.392 715.272 357.392H731.44C737.745 357.386 742.191 351.209 740.182 345.237Z" fill="#274D76"/>
<path d="M303.448 331.196L303.141 332.4L315.972 335.66L316.279 334.456L303.448 331.196Z" fill="black"/>
<path d="M308.123 348.03L307.817 349.234L319.61 352.235L319.917 351.03L308.123 348.03Z" fill="black"/>
<path d="M314.054 363.103L313.723 364.301L323.112 366.885L323.442 365.687L314.054 363.103Z" fill="black"/>
<path d="M671.108 235.529L595.192 262.149L595.604 263.322L671.52 236.702L671.108 235.529Z" fill="black"/>
<path d="M591.755 263.308C589.436 262.954 587.49 261.114 587.135 258.666L503.424 299.096V327.973C503.424 343.906 516.103 356.875 531.929 357.366L591.755 263.308Z" fill="#93B4F6"/>
<path d="M322.224 317.28C319.245 317.367 316.118 316.633 315.645 313.856C314.88 309.419 313.811 296.015 313.811 296.015L323.101 293.43L328.672 311.271C329.381 315.329 326.453 317.162 322.224 317.28Z" fill="black"/>
<path d="M333.498 259.587C328.964 241.702 318.48 228.926 310.067 231.057L295.721 234.687C304.128 232.561 314.619 245.331 319.152 263.216C323.685 281.1 320.538 297.326 312.125 299.451L326.471 295.822C334.884 293.697 338.031 277.471 333.498 259.587Z" fill="black"/>
<path d="M312.114 299.439C320.523 297.311 323.668 281.09 319.138 263.207C314.609 245.325 304.119 232.553 295.709 234.68C287.3 236.808 284.155 253.029 288.685 270.911C293.215 288.794 303.704 301.566 312.114 299.439Z" fill="#274D76"/>
<path d="M305.953 238.347C301.942 243.877 301.003 255.318 304.124 267.647C307.14 279.559 313.098 288.936 319.055 292.23C321.803 285.407 322.052 274.656 319.154 263.216C316.375 252.248 311.356 243.212 305.953 238.347Z" fill="#74BAAB"/>
<path d="M309.331 295.523C302.068 292.342 296.142 283.567 293.076 271.45C289.047 255.529 291.223 241.696 298.368 237.8L298.965 238.893C292.417 242.46 290.452 256.026 294.283 271.151C297.255 282.89 302.926 291.36 309.829 294.386L309.331 295.523Z" fill="#FAFCFC"/>
<path d="M396.863 273.196C395.084 266.721 392.46 256.175 390.172 246.792C393.66 245.909 396.253 242.759 396.253 238.999C396.253 234.556 392.647 230.952 388.201 230.952H386.354C385.763 228.466 385.409 226.975 385.409 226.975H341.687V280.174C341.687 290.198 349.815 298.32 359.845 298.32H376.523C388.132 298.32 400.494 286.444 396.863 273.196Z" fill="#F2BDBA"/>
<path d="M352.05 185.316C352.05 185.316 347.977 168.333 348.437 160.391C348.86 153.015 356.533 148.51 362.515 150.013C369.66 151.815 367.645 161.404 371.899 163.958C377.514 167.326 383.689 161.342 391.748 165.269C401.846 170.191 397.885 187.336 369.536 192.748C365.239 193.569 360.787 192.997 356.825 191.139C356.807 191.133 356.801 191.126 356.801 191.126C354.22 190.101 352.435 187.914 352.05 185.316Z" fill="#274D76"/>
<path d="M332.625 229.225C343.408 233.414 368.636 240.33 402.227 230.953C404.82 230.232 405.231 226.727 402.874 225.428C388.317 217.406 372.659 209.048 367.97 206.55C367.093 206.083 366.043 206.083 365.166 206.543L332.327 223.782C330.051 224.975 330.231 228.293 332.625 229.225Z" fill="#FFF3A1"/>
<path d="M388.825 217.212C388.869 215.528 388.782 212.93 388.695 212.123C387.47 200.732 377.819 191.864 366.091 191.864C353.536 191.864 343.356 202.037 343.356 214.583V217.212C354.649 220.984 376.761 222.538 388.825 217.212Z" fill="#93B4F6"/>
<path d="M366.085 191.864C356.515 191.864 348.331 197.774 344.98 206.138C356.142 209.382 375.499 210.606 387.24 206.263C383.919 197.836 375.698 191.864 366.085 191.864Z" fill="#FFF3A1"/>
<path d="M345.762 182.99C339.88 178.261 337.405 172.774 336.366 169.008C335.241 164.913 335.508 161.961 335.521 161.837L336.758 161.955C336.746 162.067 335.813 173.402 346.546 182.021L345.762 182.99Z" fill="#274D76"/>
<path d="M346.22 181.413C340.81 170.283 342.47 160.925 342.544 160.533L343.769 160.763C343.751 160.856 342.122 170.128 347.345 180.872L346.22 181.413Z" fill="#274D76"/>
<path d="M345.507 178.447C347.011 178.037 348.56 178.944 348.945 180.454L349.412 182.312C349.598 183.04 350.071 183.667 350.718 184.046L357.62 188.036C360.518 189.707 368.235 196.021 365.561 198.034C364.672 198.737 363.484 198.929 362.421 198.556C359.386 197.481 357.446 196.779 355.35 196.052C352.428 195.033 349.965 193.001 348.398 190.335L343.877 182.623C342.882 181.026 343.703 178.938 345.507 178.447Z" fill="#274D76"/>
<path d="M354.042 184.056C354.042 184.056 355.547 167.122 358.383 159.932C361.019 153.252 369.333 151.45 374.283 154.681C380.197 158.54 375.44 166.774 378.512 170.44C382.56 175.281 389.978 171.646 396.066 177.754C403.69 185.398 394.891 200.001 367.636 196.304C363.469 195.745 353.564 190.114 354.042 184.056Z" fill="white"/>
<path d="M366.539 260.041L365.637 259.189C365.799 259.015 369.691 254.995 376.675 256.915L376.345 258.114C370.114 256.405 366.682 259.891 366.539 260.041Z" fill="black"/>
<path d="M378.588 249.477C378.079 249.433 375.573 249.191 373.154 248.93C368.701 248.458 368.042 248.383 367.955 247.954C367.874 247.861 367.806 247.749 367.756 247.631C367.588 247.208 367.7 246.736 368.036 246.438L373.626 241.386L374.46 242.305L369.05 247.19C370.579 247.445 377.556 248.141 378.694 248.234L378.588 249.477ZM368.739 247.066L368.77 248.296C368.944 248.24 369.155 248.06 369.18 247.768C369.199 247.544 369.099 247.364 368.975 247.258L368.857 247.364C368.894 247.333 368.919 247.271 368.907 247.208C368.863 247.177 368.826 247.159 368.782 247.153C368.807 247.159 368.844 247.171 368.894 247.177C368.875 247.103 368.801 247.066 368.739 247.066C368.745 247.066 368.745 247.066 368.739 247.066Z" fill="black"/>
<path d="M352.419 253.709C350.318 253.709 348.614 252 348.614 249.906V246.936C348.614 244.835 350.324 243.133 352.419 243.133C354.521 243.133 356.225 244.842 356.225 246.936V249.906C356.225 252.007 354.521 253.709 352.419 253.709ZM352.419 244.369C351.008 244.369 349.857 245.519 349.857 246.93V249.9C349.857 251.311 351.008 252.46 352.419 252.46C353.831 252.46 354.981 251.311 354.981 249.9V246.93C354.981 245.519 353.831 244.369 352.419 244.369Z" fill="black"/>
<path d="M348.593 268.517H347.349V285.32H348.593V268.517Z" fill="black"/>
<path d="M358.138 272.071H356.894V291.124H358.138V272.071Z" fill="black"/>
<path d="M368.609 270.605L367.365 270.624L367.738 294.925L368.981 294.906L368.609 270.605Z" fill="black"/>
<path d="M379.044 268.502L377.801 268.544L378.577 291.61L379.82 291.568L379.044 268.502Z" fill="black"/>
<path d="M387.091 261.142L385.857 261.295L388.621 283.619L389.856 283.467L387.091 261.142Z" fill="black"/>
<path d="M460.348 198.905L459.857 198.812C440.866 195.195 422.534 207.655 418.915 226.633L407.38 287.153C407.2 288.085 406.727 289.471 406.143 290.819C415.016 297.823 459.229 331.734 469.209 339.408L488.194 239.813C491.807 220.841 479.345 202.522 460.348 198.905Z" fill="#93B4F6"/>
<path d="M565.383 274.403L511.379 307.477L512.029 308.536L566.033 275.463L565.383 274.403Z" fill="black"/>
<path d="M556.862 289.001L509.574 332.555L510.417 333.469L557.705 289.915L556.862 289.001Z" fill="black"/>
<path d="M567.062 288.913L535.244 333.482L536.256 334.204L568.075 289.635L567.062 288.913Z" fill="black"/>
<path d="M418.373 286.228L417.677 287.258L459.721 315.653L460.418 314.623L418.373 286.228Z" fill="black"/>
<path d="M419.084 273.096L418.425 274.149L453.071 295.799L453.73 294.746L419.084 273.096Z" fill="black"/>
<path d="M447.802 281.535L447.184 282.613L464.425 292.479L465.043 291.4L447.802 281.535Z" fill="black"/>
<path d="M504.049 214.435H502.806V323.171H504.049V214.435Z" fill="black"/>
<path d="M367.516 221.275C359.606 221.275 351.622 220.238 345.64 218.659L345.957 217.46C356.304 220.188 372.727 221.282 384.106 218.081L384.442 219.281C379.449 220.679 373.504 221.275 367.516 221.275Z" fill="black"/>
<path d="M299.54 341.254C298.303 337.364 298.881 333.275 300.896 331.224C298.259 327.266 297.569 322.984 299.061 319.678C300.398 316.726 303.339 314.862 307.356 314.439L307.487 315.676C303.93 316.055 301.337 317.658 300.193 320.194C298.825 323.22 299.584 327.247 302.22 330.963L302.562 331.442L302.102 331.808C300.168 333.362 299.571 337.258 300.728 340.887L299.54 341.254Z" fill="black"/>
<path d="M411.07 273.059L409.845 272.835L418.309 226.521C421.984 207.232 440.676 194.53 459.978 198.203L460.469 198.296C468.503 199.825 475.555 203.907 480.859 210.103L479.914 210.911C474.796 204.933 467.987 200.993 460.233 199.514L459.742 199.421C450.719 197.706 441.565 199.601 433.973 204.759C426.38 209.923 421.25 217.728 419.527 226.744L411.07 273.059Z" fill="black"/>
</svg>
