<svg width="96" height="21" viewBox="0 0 96 21" fill="none" xmlns="http://www.w3.org/2000/svg">
<path d="M41.1771 16.4496H39.8913L34.1489 6.51397V16.4496H32.8281V4.03033H34.1489L39.8563 13.966V4.03033H41.1771V16.4502V16.4496Z" fill="#082435"/>
<path d="M51.4302 5.29031H47.7847V16.4502H46.4633V5.29031H42.835V4.03033H51.4308V5.29031H51.4302Z" fill="#082435"/>
<path d="M61.1544 7.86222C61.1544 9.77873 60.1682 11.6237 57.7197 11.6589L60.9076 16.4496H59.3577L56.2397 11.6589H54.3725V16.4496H53.0518V4.03033H57.7019C60.1498 4.03033 61.1539 5.92896 61.1539 7.86278L61.1544 7.86222ZM57.5965 10.3995C59.2346 10.3995 59.8159 9.13952 59.8159 7.86222C59.8159 6.58493 59.2346 5.28975 57.667 5.28975H54.3908V10.3995H57.5971H57.5965Z" fill="#082435"/>
<path d="M62.7051 10.3117C62.7051 6.78093 65.3122 3.87097 68.6239 3.87097C71.9355 3.87097 74.5426 6.78093 74.5426 10.3117C74.5426 13.8424 71.936 16.7166 68.6239 16.7166C65.3117 16.7166 62.7051 13.8245 62.7051 10.3117ZM68.6239 15.3862C71.2482 15.3862 73.2213 13.0976 73.2213 10.3117C73.2213 7.52574 71.2487 5.20191 68.6239 5.20191C65.999 5.20191 64.0442 7.5263 64.0442 10.3117C64.0442 13.097 65.999 15.3862 68.6239 15.3862Z" fill="#082435"/>
<path d="M85.218 7.86222C85.218 9.79605 84.214 11.6589 81.7128 11.6589L78.0844 11.6768V16.4496H76.7637V4.03033H81.7661C84.214 4.03033 85.218 5.92896 85.218 7.86278V7.86222ZM81.6601 10.3995C83.2982 10.3995 83.8795 9.13952 83.8795 7.86222C83.8795 6.58493 83.2982 5.28975 81.7306 5.28975H78.0844V10.3995H81.6607H81.6601Z" fill="#082435"/>
<path d="M95.9989 4.03033L91.5252 11.5354V16.4502H90.2039V11.5002L85.7656 4.03089H87.3332L90.8562 10.1341L94.4147 4.03089H96.0001L95.9989 4.03033Z" fill="#082435"/>
<path d="M25.0942 15.1723V12.411V11.1627V9.86757V9.07024V5.27187L30.5725 5.28975V4.03033H23.7734V16.4496H30.7484V15.1723H25.0942Z" fill="#082435"/>
<path d="M29.3917 9.53159H25.0938V10.8268H29.3917V9.53159Z" fill="#082435"/>
<path d="M15.5919 5.30457C15.4593 5.6806 15.2058 6.17677 14.9556 6.54722C14.6533 6.99478 14.3122 7.43507 13.9438 7.82731C13.6426 8.14803 13.3281 8.4559 12.992 8.7403C12.6181 9.056 12.2209 9.34207 11.8088 9.60748C11.4959 9.80863 11.1731 9.99413 10.8408 10.1646C9.30811 10.949 7.58074 11.4011 5.74686 11.4011C5.57823 11.4011 5.41404 11.3832 5.24707 11.3754V12.3632C5.41293 12.3699 5.57934 12.3761 5.74686 12.3761C7.5641 12.3761 9.28814 11.9727 10.8408 11.2558C11.1719 11.1027 11.4948 10.9356 11.8088 10.7546C12.2181 10.5188 12.6136 10.2618 12.992 9.98128C13.3281 9.73264 13.6515 9.46835 13.9599 9.1873C14.3787 8.80624 14.7704 8.39556 15.1337 7.96029C15.441 7.59208 15.7677 7.08027 15.9907 6.69082C15.9574 6.37066 15.7295 5.59232 15.5913 5.30457H15.5919Z" fill="url(#paint0_linear_172_13138)"/>
<path d="M14.3538 3.10144C14.2278 3.45736 14.082 3.80267 13.9155 4.1368C13.7147 4.54022 13.489 4.92743 13.2338 5.29396C13.0286 5.58898 12.8039 5.86836 12.5665 6.13711C12.2797 6.46119 11.9752 6.76794 11.6462 7.04899C11.375 7.28031 11.0921 7.49711 10.7953 7.69602C9.3475 8.66601 7.61236 9.23425 5.74687 9.23425C5.57823 9.23425 5.41348 9.21805 5.24707 9.20855V10.1836C5.41348 10.1919 5.57823 10.2093 5.74687 10.2093C7.60515 10.2093 9.34251 9.69298 10.8408 8.80793C11.1769 8.60957 11.4992 8.39166 11.8088 8.15643C12.1926 7.86532 12.5626 7.55578 12.9015 7.21382C13.1772 6.93501 13.4318 6.63608 13.6742 6.32709C13.9682 5.95217 14.2345 5.55602 14.4752 5.14143C14.6738 4.79891 14.858 4.44746 15.0161 4.08092C14.8181 3.73785 14.5978 3.40987 14.3538 3.10144Z" fill="url(#paint1_linear_172_13138)"/>
<path d="M12.5953 1.44675C12.5254 1.79038 12.4233 2.12116 12.3052 2.44467C12.1654 2.82853 11.9956 3.19674 11.7948 3.54596C11.6312 3.83036 11.4487 4.10247 11.2484 4.36006C11.0049 4.67295 10.7353 4.96239 10.4441 5.22947C10.1967 5.45632 9.9382 5.67088 9.66029 5.86029C8.5431 6.62186 7.19626 7.06719 5.74625 7.06719C5.6525 7.06719 5.56097 7.05657 5.46778 7.05322C5.34242 7.35103 5.27585 7.6779 5.25977 8.01762C5.42119 8.02767 5.5815 8.04276 5.74569 8.04276C7.45975 8.04276 9.04456 7.48904 10.3448 6.55705C10.6088 6.36763 10.8596 6.16146 11.0987 5.94131C11.3938 5.67032 11.6728 5.382 11.9246 5.06966C12.1349 4.80873 12.324 4.53159 12.501 4.24551C12.7217 3.88791 12.922 3.51635 13.0862 3.12467C13.2221 2.79836 13.3303 2.45864 13.4229 2.11221C13.1605 1.87475 12.887 1.64901 12.5953 1.44731V1.44675Z" fill="url(#paint2_linear_172_13138)"/>
<path d="M16.1357 12.4608V8.12658C16.1357 7.66617 16.0885 7.21805 16.0153 6.77832C15.7512 7.18174 15.4656 7.56839 15.1582 7.9366C15.1599 8.0003 15.1677 8.06288 15.1677 8.12658V12.4608C15.1677 14.6332 14.198 16.5787 12.6748 17.8912L13.3593 18.5807C15.0567 17.09 16.1357 14.9019 16.1357 12.4608Z" fill="url(#paint3_linear_172_13138)"/>
<path d="M13.9845 12.4605V9.1633C13.6756 9.44435 13.3522 9.70864 13.0166 9.95728V12.4605C13.0166 14.0356 12.2855 15.4403 11.1494 16.3538L11.8389 17.0483C13.1486 15.9543 13.9845 14.3038 13.9845 12.4599V12.4605Z" fill="url(#paint4_linear_172_13138)"/>
<path d="M9.6123 14.8063L10.3062 15.5053C11.231 14.8141 11.8334 13.71 11.8334 12.4607V10.7308C11.5188 10.9118 11.196 11.0789 10.8654 11.232V12.4607C10.8654 13.4391 10.3667 14.3012 9.61286 14.8063H9.6123Z" fill="url(#paint5_linear_172_13138)"/>
<path d="M8.06792 2.16731C5.9517 2.16731 4.09674 3.29598 3.05111 4.98283C2.81369 5.36558 2.61843 5.7757 2.47144 6.20929C2.36604 6.51995 2.28783 6.84179 2.23457 7.17313C2.18465 7.48435 2.15137 7.80116 2.15137 8.12635V12.4606C2.15137 14.3178 3.00008 15.9784 4.32639 17.0725C5.3465 17.9139 6.64952 18.4196 8.06736 18.4196C9.48521 18.4196 10.8132 17.9044 11.8377 17.0484L11.1482 16.3539C10.3023 17.0345 9.23226 17.4446 8.06736 17.4446C6.90247 17.4446 5.8585 17.0434 5.01701 16.3768C3.86376 15.4633 3.11934 14.0496 3.11934 12.4606V8.12635C3.11934 7.93582 3.1321 7.74863 3.15318 7.56369C3.19034 7.23235 3.25913 6.91163 3.35786 6.6032C3.49765 6.16514 3.69624 5.75335 3.94419 5.37731C4.83118 4.03185 6.34776 3.14232 8.06792 3.14232C8.8068 3.14232 9.50573 3.31106 10.1359 3.6044C10.3428 3.35073 10.5253 3.07751 10.6867 2.79031C9.89625 2.39528 9.00926 2.16675 8.06847 2.16675L8.06792 2.16731Z" fill="#1D4767"/>
<path d="M5.27071 11.3516V8.12648C5.27071 8.08066 5.2818 8.0382 5.28402 7.9935C5.30011 7.65378 5.36612 7.32691 5.49204 7.0291C5.7644 6.38374 6.27196 5.8669 6.90267 5.57356C7.14286 5.46181 7.4008 5.38917 7.67205 5.3495C8.22676 5.14891 8.74043 4.86395 9.19973 4.50915C8.84249 4.39572 8.46252 4.33426 8.06756 4.33426C6.9243 4.33426 5.90197 4.84942 5.21135 5.66017C4.89905 6.0267 4.65609 6.45359 4.50021 6.92126C4.39925 7.22466 4.33657 7.54538 4.31494 7.87784C4.30939 7.96053 4.30273 8.04267 4.30273 8.12648V12.4607C4.30273 13.7235 4.91791 14.8387 5.85981 15.5282C6.48053 15.9825 7.2416 16.2529 8.06756 16.2529C8.89353 16.2529 9.67955 15.973 10.3058 15.5053L9.61188 14.8063C9.16922 15.103 8.63836 15.2779 8.06756 15.2779C7.49676 15.2779 6.99419 15.1086 6.55764 14.8247C5.78548 14.323 5.27071 13.453 5.27071 12.4607V11.3516Z" fill="#1D4767"/>
<path d="M12.6746 17.8917C11.4337 18.9617 9.8256 19.612 8.06772 19.612C6.30984 19.612 4.72614 18.9723 3.48858 17.9168C1.94926 16.6043 0.967971 14.647 0.967971 12.4606V8.12642C0.967971 8.02697 0.978511 7.9303 0.982949 7.8314C1.00125 7.38273 1.05783 6.94467 1.15546 6.52058C1.23257 6.18254 1.33464 5.854 1.45778 5.53607C1.62641 5.1008 1.83554 4.68677 2.08183 4.29733C3.34325 2.30371 5.55211 0.975014 8.06772 0.975014C9.17715 0.975014 10.2239 1.23986 11.1597 1.69915C11.2579 1.38346 11.325 1.05491 11.3671 0.718548C10.3587 0.260934 9.24371 0 8.06717 0C5.29028 0 2.83679 1.42089 1.38511 3.57822C1.11885 3.97381 0.890866 4.39622 0.696717 4.83708C0.553602 5.16059 0.431566 5.49416 0.331163 5.83835C0.204689 6.2725 0.112606 6.72061 0.0593537 7.18102C0.0232974 7.49168 0 7.80626 0 8.12642V12.4606C0 14.9152 1.09056 17.1144 2.80407 18.6057C4.21858 19.8367 6.05578 20.587 8.06772 20.587C10.0797 20.587 11.9407 19.826 13.3586 18.5806L12.674 17.8911L12.6746 17.8917Z" fill="#1D4767"/>
<defs>
<linearGradient id="paint0_linear_172_13138" x1="5.24707" y1="8.84032" x2="15.9913" y2="8.84032" gradientUnits="userSpaceOnUse">
<stop offset="0.12" stop-color="#01A695" stop-opacity="0"/>
<stop offset="0.73" stop-color="#01A695"/>
<stop offset="1" stop-color="#1D4767"/>
</linearGradient>
<linearGradient id="paint1_linear_172_13138" x1="5.24652" y1="6.65563" x2="15.0155" y2="6.65563" gradientUnits="userSpaceOnUse">
<stop offset="0.13" stop-color="#01A695" stop-opacity="0"/>
<stop offset="0.71" stop-color="#01A695"/>
<stop offset="1" stop-color="#1D4767"/>
</linearGradient>
<linearGradient id="paint2_linear_172_13138" x1="5.26032" y1="4.74447" x2="13.4235" y2="4.74447" gradientUnits="userSpaceOnUse">
<stop offset="0.18" stop-color="#01A695" stop-opacity="0"/>
<stop offset="0.7" stop-color="#01A695"/>
<stop offset="1" stop-color="#1D4767"/>
</linearGradient>
<linearGradient id="paint3_linear_172_13138" x1="12.6537" y1="9.9995" x2="18.0675" y2="17.3661" gradientUnits="userSpaceOnUse">
<stop offset="0.12" stop-color="#01A695" stop-opacity="0"/>
<stop offset="0.23" stop-color="#098886" stop-opacity="0.31"/>
<stop offset="0.37" stop-color="#146575" stop-opacity="0.68"/>
<stop offset="0.49" stop-color="#1A4F6A" stop-opacity="0.91"/>
<stop offset="0.56" stop-color="#1D4767"/>
</linearGradient>
<linearGradient id="paint4_linear_172_13138" x1="10.76" y1="10.2238" x2="15.3691" y2="16.5976" gradientUnits="userSpaceOnUse">
<stop offset="0.26" stop-color="#01A695" stop-opacity="0"/>
<stop offset="0.34" stop-color="#098886" stop-opacity="0.31"/>
<stop offset="0.45" stop-color="#146575" stop-opacity="0.68"/>
<stop offset="0.54" stop-color="#1A4F6A" stop-opacity="0.91"/>
<stop offset="0.6" stop-color="#1D4767"/>
</linearGradient>
<linearGradient id="paint5_linear_172_13138" x1="10.1798" y1="11.5862" x2="12.1934" y2="15.9082" gradientUnits="userSpaceOnUse">
<stop offset="0.22" stop-color="#01A695" stop-opacity="0"/>
<stop offset="0.31" stop-color="#098886" stop-opacity="0.31"/>
<stop offset="0.44" stop-color="#146575" stop-opacity="0.68"/>
<stop offset="0.54" stop-color="#1A4F6A" stop-opacity="0.91"/>
<stop offset="0.6" stop-color="#1D4767"/>
</linearGradient>
</defs>
</svg>
