<svg width="22" height="22" viewBox="0 0 22 22" fill="none" xmlns="http://www.w3.org/2000/svg">
<path d="M16.246 10.9714L14.768 12.3714L13.2801 11.5487L11.5476 12.8498L11.0925 9.5543L12.3989 10.1659L13.2287 8.93941L14.6929 9.54288L15.9479 8.07962L16.4153 8.32738L16.2518 6.68246C16.2518 6.68246 16.159 6.28157 15.8818 6.23545C15.6041 6.18932 11.0645 6.03762 5.3251 7.44714C5.05309 7.54939 4.87714 7.81427 4.88712 8.10435C4.94181 9.70362 5.18814 15.0012 6.1245 18.0233C6.20344 18.2778 6.42219 18.4637 6.68612 18.4989C8.69721 18.7652 10.5323 18.6254 11.4421 18.5198C11.7845 18.4799 12.0427 18.1907 12.0427 17.8464V16.8601C11.1482 16.4669 10.2037 15.5429 10.2037 15.5429C11.6061 15.4953 16.9223 15.0916 16.9223 15.0916C17.0278 14.4743 17.1895 13.5603 17.2865 11.8735L16.246 10.9714Z" fill="#FFCF15"/>
<path d="M17.6705 11.4466L16.63 10.5445L16.2363 10.1888L15.8511 10.5535L14.6779 11.6649L13.5575 11.0452L13.2322 10.8655L12.935 11.0885L11.9825 11.8037L11.8051 10.5207L12.1551 10.6848L12.5993 10.8926L12.8741 10.4865L13.4424 9.64711L14.4744 10.0723L14.8581 10.2306L15.1287 9.91532L16.085 8.80064L17.0285 9.30091L17.875 9.74888L17.8712 8.79303C17.8702 8.18718 17.8607 7.56659 17.8417 6.94933C17.8236 6.35204 17.5773 5.79517 17.1474 5.38097C16.7213 4.9701 16.1616 4.74374 15.5719 4.74374C15.4897 4.74374 15.4064 4.74802 15.3242 4.75705C13.4372 4.96154 11.8089 5.21833 10.4322 5.48654C10.6158 4.66432 10.7774 3.81119 10.7774 3.35228V2.97708L10.4327 2.8268C10.3827 2.8054 9.92764 2.61328 9.41642 2.61328C9.09067 2.61328 8.80392 2.68984 8.56472 2.84107L8.32647 2.99134L8.29984 3.27144C8.29841 3.28713 8.28747 3.40269 8.27606 3.57912C7.67354 3.11831 6.92075 2.88529 6.03242 2.88529C5.58303 2.88529 5.09464 2.94712 4.58105 3.06886L4.18444 3.15921C4.18444 3.15921 4.125 3.70038 4.125 3.89251C4.125 4.48028 4.23961 5.72907 5.12032 6.71346C5.16502 6.76339 5.21115 6.81142 5.25871 6.8585C5.21068 6.87609 5.16502 6.89321 5.1227 6.90891C4.62005 7.09818 4.29477 7.58609 4.31332 8.12298C4.36705 9.69086 4.61672 15.0959 5.5759 18.1922C5.72046 18.6597 6.12658 19.0026 6.61069 19.0668C7.40438 19.1719 8.24372 19.2251 9.10637 19.2251C10.1236 19.2251 10.9738 19.1509 11.5084 19.0891C12.1404 19.0154 12.6169 18.4809 12.6169 17.8456V16.3833L16.3176 16.2254C16.9073 16.1954 17.3885 15.7684 17.4879 15.1868C17.6039 14.5063 17.7628 13.5808 17.8593 11.905L17.875 11.6301L17.6705 11.4456V11.4466Z" fill="#4A382A"/>
<path d="M8.87061 3.32641C8.87061 3.32641 8.74268 4.66128 8.89201 5.4388C8.67991 4.75924 7.80585 2.89414 4.71289 3.62791C4.71289 3.62791 7.24756 6.68473 9.66715 6.22963C9.90778 5.24477 10.2031 3.9199 10.2031 3.35352C10.2031 3.35352 9.38943 2.99876 8.87061 3.32641Z" fill="#8EC400"/>
<path d="M14.7676 12.3709L13.2796 11.5482L11.5472 12.8493L11.0921 9.55373L12.3984 10.1653L13.2282 8.93884L14.6924 9.54231L15.9474 8.07905L17.2966 8.79428C17.2961 8.22029 17.287 7.61206 17.2675 6.96722C17.2376 5.97618 16.3711 5.22148 15.3853 5.32848C9.74913 5.93956 6.45976 7.01953 5.3251 7.44657C5.05309 7.54881 4.87714 7.81369 4.88712 8.10378C4.94181 9.70305 5.18814 15.0007 6.1245 18.0228C6.20344 18.2772 6.42219 18.4631 6.68612 18.4983C8.69721 18.7646 10.5324 18.6248 11.4421 18.5192C11.7845 18.4793 12.0427 18.1902 12.0427 17.8459V15.8381L16.2884 15.6526C16.6051 15.6365 16.8686 15.4034 16.9223 15.091C17.0279 14.4738 17.1896 13.5597 17.2866 11.873L16.2461 10.9709L14.7681 12.3709H14.7676Z" fill="#FFCF15"/>
<path d="M15.8809 6.23487C16.1586 6.281 16.2509 6.68189 16.2509 6.68189L16.4145 8.32681L17.2966 8.79428C17.2961 8.22029 17.2871 7.61206 17.2676 6.96722C17.2377 5.97618 16.3712 5.22148 15.3854 5.32848C9.74825 5.93908 6.45888 7.01905 5.32422 7.4461C11.0636 6.03657 15.6032 6.18827 15.8809 6.2344V6.23487Z" fill="#FFDF63"/>
<path d="M14.5235 8.92751L12.9775 8.37302L12.219 9.39402L10.9883 8.77343L11.091 9.55381L12.3973 10.1654L13.2272 8.93892L14.6914 9.5424L15.9463 8.07913L17.2955 8.79436C17.2955 8.6165 17.2941 8.43532 17.2921 8.25128L15.8237 7.42383L14.5226 8.92751H14.5235Z" fill="#FFAC00"/>
<path d="M16.2453 10.9712L14.7673 12.3712L13.2793 11.5485L11.5469 12.8496L11.6173 13.5605L13.3516 12.2994L14.8809 13.1126L16.2838 11.8191L17.2335 12.6541C17.2558 12.3707 17.2672 12.1952 17.2858 11.8728L16.2453 10.9707V10.9712Z" fill="#FFDF63"/>
<path d="M7.88908 9.57227C7.75878 9.57227 7.62896 9.61364 7.51387 9.69163C7.29322 9.84095 7.19526 10.0954 7.24519 10.3897C7.28799 10.6422 7.4454 10.8581 7.66653 10.967C7.76449 11.0156 7.86673 11.0398 7.96945 11.0398C8.07788 11.0398 8.1825 11.0132 8.28093 10.9599C8.46259 10.862 8.58291 10.7017 8.61953 10.5091C8.66233 10.2846 8.58481 10.0278 8.41124 9.82145C8.37367 9.77675 8.18583 9.57274 7.88861 9.57274L7.88908 9.57227Z" fill="#4A382A"/>
<path d="M12.0421 16.8604V15.8389L16.2878 15.6534C16.6045 15.6372 16.8679 15.4042 16.9217 15.0918C16.9217 15.0918 11.6055 15.4955 10.2031 15.5431C10.2031 15.5431 11.1476 16.4671 12.0421 16.8604Z" fill="#FFAC00"/>
<path d="M4.71288 3.62891C4.71288 3.62891 4.44181 6.05372 6.50854 7.04477C7.28083 6.80509 8.33084 6.51691 9.66713 6.23063C7.24755 6.68525 4.71288 3.62891 4.71288 3.62891Z" fill="#007F37"/>
</svg>
