<svg width="24" height="24" viewBox="0 0 24 24" fill="none" xmlns="http://www.w3.org/2000/svg">
<path fill-rule="evenodd" clip-rule="evenodd" d="M12 24C18.6274 24 24 18.6274 24 12C24 5.37258 18.6274 0 12 0C5.37258 0 0 5.37258 0 12C0 18.6274 5.37258 24 12 24Z" fill="#F5BC00"/>
<mask id="mask0_1057_98081" style="mask-type:alpha" maskUnits="userSpaceOnUse" x="0" y="0" width="24" height="24">
<path fill-rule="evenodd" clip-rule="evenodd" d="M12 24C18.6274 24 24 18.6274 24 12C24 5.37258 18.6274 0 12 0C5.37258 0 0 5.37258 0 12C0 18.6274 5.37258 24 12 24Z" fill="white"/>
</mask>
<g mask="url(#mask0_1057_98081)">
<path fill-rule="evenodd" clip-rule="evenodd" d="M8.11596 10.404L11.9999 6.52022L15.8859 10.4061L18.1459 8.14611L11.9999 2L5.85601 8.14406L8.11596 10.404ZM4.26014 9.73958L6.52005 11.9995L4.25991 14.2596L2 11.9997L4.26014 9.73958ZM11.9999 17.4794L8.11596 13.5956L5.85269 15.8526L5.85585 15.8557L11.9999 21.9998L18.1459 15.8537L18.147 15.8524L15.8858 13.5937L11.9999 17.4794ZM22 12.0009L19.74 14.2609L17.4801 12.001L19.7401 9.74096L22 12.0009ZM14.2932 11.9988H14.2922L14.2943 11.9999L14.2932 12.0012L11.9999 14.2943L9.70869 12.0031L9.70553 11.9999L9.70869 11.9966L10.1104 11.5949L10.305 11.4003H10.3051L11.9999 9.70535L14.2932 11.9988Z" fill="white"/>
</g>
</svg>
